M48
METRIC,LZ,000.000
;FILE_FORMAT=3:3
;TYPE=PLATED
;Layer: PTH_Through
;EasyEDA v6.5.5, 2022-07-12 11:33:07
;f1e15a90033e4b75946299fcb03ef411,10
;Gerber Generator version 0.2
;Holesize 1 = 0.305 mm
T01C0.305
;Holesize 2 = 0.900 mm
T02C0.900
;Holesize 3 = 0.915 mm
T03C0.915
;Holesize 4 = 1.000 mm
T04C1.000
;Holesize 5 = 1.501 mm
T05C1.501
%
G05
G90
T01
X048013Y034649
X047042Y027817
X016112Y071142
T02
X009779Y054610
X017399Y054610
X009779Y061976
X017399Y061976
X009779Y046609
X017399Y046609
X009652Y038862
X017272Y038862
X009271Y034417
X016891Y034417
T03
X048260Y044196
X048260Y039116
X053340Y029210
X053340Y034290
X040386Y044029
X040386Y039029
X028448Y044410
X028448Y039410
X036703Y024765
X036703Y029845
X036703Y034925
X030480Y018288
X035560Y018288
X040640Y018288
X013335Y074930
X015875Y074930
X018415Y074930
X020955Y074930
X023495Y074930
X026035Y074930
X028575Y074930
X031115Y074930
T04
X025527Y054737
X028067Y054737
X050927Y054737G85X050927Y054737
X050927Y057277G85X050927Y057277
X050927Y059817G85X050927Y059817
X050927Y062357G85X050927Y062357
X050927Y064897G85X050927Y064897
X050927Y067437G85X050927Y067437
X050927Y069977G85X050927Y069977
X050927Y072517G85X050927Y072517
X050927Y075057G85X050927Y075057
X050927Y077597G85X050927Y077597
X050927Y080137G85X050927Y080137
X050927Y082677G85X050927Y082677
X035687Y054737G85X035687Y054737
X035687Y057277G85X035687Y057277
X035687Y059817G85X035687Y059817
X035687Y062357G85X035687Y062357
X035687Y064897G85X035687Y064897
X035687Y067437G85X035687Y067437
X035687Y072517G85X035687Y072517
X035687Y075057G85X035687Y075057
X035687Y080137G85X035687Y080137
X035687Y082677G85X035687Y082677
X035687Y077597G85X035687Y077597
X035687Y069977G85X035687Y069977
X050927Y085217G85X050927Y085217
X050927Y087757G85X050927Y087757
X050927Y090297G85X050927Y090297
X035687Y085217G85X035687Y085217
X035687Y087757G85X035687Y087757
X035687Y090297G85X035687Y090297
T05
X014272Y022225
X020272Y022225
M30
