G04 Layer: BottomSilkscreenLayer*
G04 EasyEDA v6.5.5, 2022-07-12 11:33:07*
G04 f1e15a90033e4b75946299fcb03ef411,10*
G04 Gerber Generator version 0.2*
G04 Scale: 100 percent, Rotated: No, Reflected: No *
G04 Dimensions in millimeters *
G04 leading zeros omitted , absolute positions ,4 integer and 5 decimal *
%FSLAX45Y45*%
%MOMM*%

%ADD10C,0.2540*%

%LPD*%
D10*
X1104900Y5537200D02*
G01*
X1612900Y5537200D01*
X1612900Y5537200D02*
G01*
X1612900Y5461000D01*
X1612900Y5461000D02*
G01*
X1612900Y5384800D01*
X1612900Y5384800D02*
G01*
X1104900Y5384800D01*
X1104900Y5384800D02*
G01*
X1104900Y5461000D01*
X1104900Y5461000D02*
G01*
X1104900Y5537200D01*
X1104900Y6273800D02*
G01*
X1612900Y6273800D01*
X1612900Y6273800D02*
G01*
X1612900Y6197600D01*
X1612900Y6197600D02*
G01*
X1612900Y6121400D01*
X1612900Y6121400D02*
G01*
X1104900Y6121400D01*
X1104900Y6121400D02*
G01*
X1104900Y6197600D01*
X1104900Y6197600D02*
G01*
X1104900Y6273800D01*
X1104900Y4737100D02*
G01*
X1612900Y4737100D01*
X1612900Y4737100D02*
G01*
X1612900Y4660900D01*
X1612900Y4660900D02*
G01*
X1612900Y4584700D01*
X1612900Y4584700D02*
G01*
X1104900Y4584700D01*
X1104900Y4584700D02*
G01*
X1104900Y4660900D01*
X1104900Y4660900D02*
G01*
X1104900Y4737100D01*
X1092200Y3962400D02*
G01*
X1600200Y3962400D01*
X1600200Y3962400D02*
G01*
X1600200Y3886200D01*
X1600200Y3886200D02*
G01*
X1600200Y3810000D01*
X1600200Y3810000D02*
G01*
X1092200Y3810000D01*
X1092200Y3810000D02*
G01*
X1092200Y3886200D01*
X1092200Y3886200D02*
G01*
X1092200Y3962400D01*
X1054100Y3517900D02*
G01*
X1562100Y3517900D01*
X1562100Y3517900D02*
G01*
X1562100Y3441700D01*
X1562100Y3441700D02*
G01*
X1562100Y3365500D01*
X1562100Y3365500D02*
G01*
X1054100Y3365500D01*
X1054100Y3365500D02*
G01*
X1054100Y3441700D01*
X1054100Y3441700D02*
G01*
X1054100Y3517900D01*
M02*
