G04 Layer: BottomLayer*
G04 EasyEDA v6.5.5, 2022-07-12 11:33:07*
G04 f1e15a90033e4b75946299fcb03ef411,10*
G04 Gerber Generator version 0.2*
G04 Scale: 100 percent, Rotated: No, Reflected: No *
G04 Dimensions in millimeters *
G04 leading zeros omitted , absolute positions ,4 integer and 5 decimal *
%FSLAX45Y45*%
%MOMM*%

%ADD10C,0.2540*%
%ADD11C,0.7600*%
%ADD13C,0.6096*%
%ADD16C,2.5000*%
%ADD17C,1.5240*%
%ADD18R,1.5080X1.5080*%
%ADD19C,1.5080*%
%ADD20C,1.8796*%

%LPD*%
G36*
X736092Y1461008D02*
G01*
X732180Y1461770D01*
X728929Y1464005D01*
X726694Y1467256D01*
X725932Y1471168D01*
X725932Y9363964D01*
X726694Y9367875D01*
X728929Y9371126D01*
X732180Y9373362D01*
X736092Y9374124D01*
X5663946Y9374124D01*
X5667857Y9373362D01*
X5671108Y9371126D01*
X5673344Y9367875D01*
X5674106Y9363964D01*
X5674106Y1471168D01*
X5673344Y1467256D01*
X5671108Y1464005D01*
X5667857Y1461770D01*
X5663946Y1461008D01*
G37*

%LPC*%
G36*
X1016000Y1574292D02*
G01*
X1031392Y1575257D01*
X1046530Y1578000D01*
X1061212Y1582572D01*
X1075232Y1588922D01*
X1088440Y1596898D01*
X1100531Y1606397D01*
X1111402Y1617268D01*
X1120902Y1629359D01*
X1128877Y1642567D01*
X1135227Y1656588D01*
X1139799Y1671269D01*
X1142542Y1686407D01*
X1143508Y1701800D01*
X1142542Y1717192D01*
X1139799Y1732330D01*
X1135227Y1747012D01*
X1128877Y1761032D01*
X1120902Y1774240D01*
X1111402Y1786331D01*
X1100531Y1797202D01*
X1088440Y1806702D01*
X1075232Y1814677D01*
X1061212Y1821027D01*
X1046530Y1825599D01*
X1031392Y1828342D01*
X1016000Y1829307D01*
X1000607Y1828342D01*
X985469Y1825599D01*
X970787Y1821027D01*
X956767Y1814677D01*
X943559Y1806702D01*
X931468Y1797202D01*
X920597Y1786331D01*
X911098Y1774240D01*
X903122Y1761032D01*
X896772Y1747012D01*
X892200Y1732330D01*
X889457Y1717192D01*
X888492Y1701800D01*
X889457Y1686407D01*
X892200Y1671269D01*
X896772Y1656588D01*
X903122Y1642567D01*
X911098Y1629359D01*
X920597Y1617268D01*
X931468Y1606397D01*
X943559Y1596898D01*
X956767Y1588922D01*
X970787Y1582572D01*
X985469Y1578000D01*
X1000607Y1575257D01*
G37*
G36*
X5422900Y1612392D02*
G01*
X5438292Y1613357D01*
X5453430Y1616100D01*
X5468112Y1620672D01*
X5482132Y1627022D01*
X5495340Y1634998D01*
X5507431Y1644497D01*
X5518302Y1655368D01*
X5527802Y1667459D01*
X5535777Y1680667D01*
X5542127Y1694688D01*
X5546699Y1709369D01*
X5549442Y1724507D01*
X5550408Y1739900D01*
X5549442Y1755292D01*
X5546699Y1770430D01*
X5542127Y1785112D01*
X5535777Y1799132D01*
X5527802Y1812340D01*
X5518302Y1824431D01*
X5507431Y1835302D01*
X5495340Y1844802D01*
X5482132Y1852777D01*
X5468112Y1859127D01*
X5453430Y1863699D01*
X5438292Y1866442D01*
X5422900Y1867407D01*
X5407507Y1866442D01*
X5392369Y1863699D01*
X5377688Y1859127D01*
X5363667Y1852777D01*
X5350459Y1844802D01*
X5338368Y1835302D01*
X5327497Y1824431D01*
X5317998Y1812340D01*
X5310022Y1799132D01*
X5303672Y1785112D01*
X5299100Y1770430D01*
X5296357Y1755292D01*
X5295392Y1739900D01*
X5296357Y1724507D01*
X5299100Y1709369D01*
X5303672Y1694688D01*
X5310022Y1680667D01*
X5317998Y1667459D01*
X5327497Y1655368D01*
X5338368Y1644497D01*
X5350459Y1634998D01*
X5363667Y1627022D01*
X5377688Y1620672D01*
X5392369Y1616100D01*
X5407507Y1613357D01*
G37*
G36*
X3044596Y1726793D02*
G01*
X3058210Y1727250D01*
X3071672Y1729486D01*
X3084677Y1733550D01*
X3097072Y1739290D01*
X3108553Y1746605D01*
X3118967Y1755393D01*
X3128111Y1765554D01*
X3135833Y1776780D01*
X3141980Y1788922D01*
X3146450Y1801825D01*
X3149193Y1815185D01*
X3150108Y1828800D01*
X3149193Y1842414D01*
X3146450Y1855774D01*
X3141980Y1868678D01*
X3135833Y1880819D01*
X3128111Y1892046D01*
X3118967Y1902206D01*
X3108248Y1911146D01*
X3105200Y1914194D01*
X3103676Y1918258D01*
X3103981Y1922576D01*
X3106064Y1926386D01*
X3109518Y1928977D01*
X3113735Y1929892D01*
X3174441Y1929892D01*
X3180740Y1930603D01*
X3186226Y1932533D01*
X3191103Y1935581D01*
X3195218Y1939696D01*
X3198266Y1944573D01*
X3200196Y1950059D01*
X3200908Y1956358D01*
X3200908Y2209241D01*
X3200196Y2215540D01*
X3198266Y2221026D01*
X3195218Y2225903D01*
X3191103Y2230018D01*
X3186226Y2233066D01*
X3180740Y2234996D01*
X3174441Y2235708D01*
X2921558Y2235708D01*
X2915259Y2234996D01*
X2909773Y2233066D01*
X2904896Y2230018D01*
X2900781Y2225903D01*
X2897733Y2221026D01*
X2895803Y2215540D01*
X2895092Y2209241D01*
X2895092Y1956358D01*
X2895803Y1950059D01*
X2897733Y1944573D01*
X2900781Y1939696D01*
X2904896Y1935581D01*
X2909773Y1932533D01*
X2915259Y1930603D01*
X2921558Y1929892D01*
X2982569Y1929892D01*
X2986684Y1929028D01*
X2990088Y1926539D01*
X2992221Y1922881D01*
X2992678Y1918716D01*
X2991408Y1914702D01*
X2988614Y1911553D01*
X2982112Y1906778D01*
X2972308Y1897278D01*
X2963824Y1886559D01*
X2956864Y1874824D01*
X2951581Y1862277D01*
X2947974Y1849120D01*
X2946146Y1835607D01*
X2946146Y1821992D01*
X2947974Y1808480D01*
X2951581Y1795322D01*
X2956864Y1782775D01*
X2963824Y1771040D01*
X2972308Y1760321D01*
X2982112Y1750822D01*
X2993085Y1742744D01*
X3005023Y1736191D01*
X3017774Y1731314D01*
X3031032Y1728114D01*
G37*
G36*
X3552596Y1726793D02*
G01*
X3566210Y1727250D01*
X3579672Y1729486D01*
X3592677Y1733550D01*
X3605072Y1739290D01*
X3616553Y1746605D01*
X3626967Y1755393D01*
X3636111Y1765554D01*
X3643833Y1776780D01*
X3649979Y1788922D01*
X3654450Y1801825D01*
X3657193Y1815185D01*
X3658108Y1828800D01*
X3657193Y1842414D01*
X3654450Y1855774D01*
X3649979Y1868678D01*
X3643833Y1880819D01*
X3636111Y1892046D01*
X3626967Y1902206D01*
X3616248Y1911146D01*
X3613200Y1914194D01*
X3611676Y1918258D01*
X3611981Y1922576D01*
X3614064Y1926386D01*
X3617518Y1928977D01*
X3621735Y1929892D01*
X3682441Y1929892D01*
X3688740Y1930603D01*
X3694226Y1932533D01*
X3699103Y1935581D01*
X3703218Y1939696D01*
X3706266Y1944573D01*
X3708196Y1950059D01*
X3708908Y1956358D01*
X3708908Y2209241D01*
X3708196Y2215540D01*
X3706266Y2221026D01*
X3703218Y2225903D01*
X3699103Y2230018D01*
X3694226Y2233066D01*
X3688740Y2234996D01*
X3682441Y2235708D01*
X3429558Y2235708D01*
X3423259Y2234996D01*
X3417773Y2233066D01*
X3412896Y2230018D01*
X3408781Y2225903D01*
X3405733Y2221026D01*
X3403803Y2215540D01*
X3403092Y2209241D01*
X3403092Y1956358D01*
X3403803Y1950059D01*
X3405733Y1944573D01*
X3408781Y1939696D01*
X3412896Y1935581D01*
X3417773Y1932533D01*
X3423259Y1930603D01*
X3429558Y1929892D01*
X3490569Y1929892D01*
X3494684Y1929028D01*
X3498087Y1926539D01*
X3500221Y1922881D01*
X3500678Y1918716D01*
X3499408Y1914702D01*
X3496614Y1911553D01*
X3490112Y1906778D01*
X3480308Y1897278D01*
X3471824Y1886559D01*
X3464864Y1874824D01*
X3459581Y1862277D01*
X3455974Y1849120D01*
X3454146Y1835607D01*
X3454146Y1821992D01*
X3455974Y1808480D01*
X3459581Y1795322D01*
X3464864Y1782775D01*
X3471824Y1771040D01*
X3480308Y1760321D01*
X3490112Y1750822D01*
X3501085Y1742744D01*
X3513023Y1736191D01*
X3525774Y1731314D01*
X3539032Y1728114D01*
G37*
G36*
X4019550Y1737004D02*
G01*
X4019550Y1784350D01*
X3972204Y1784350D01*
X3972864Y1782775D01*
X3979824Y1771040D01*
X3988308Y1760321D01*
X3998112Y1750822D01*
X4009085Y1742744D01*
G37*
G36*
X4108450Y1737156D02*
G01*
X4113072Y1739290D01*
X4124553Y1746605D01*
X4134967Y1755393D01*
X4144111Y1765554D01*
X4151833Y1776780D01*
X4155643Y1784350D01*
X4108450Y1784350D01*
G37*
G36*
X3972204Y1873250D02*
G01*
X4019550Y1873250D01*
X4019550Y1919732D01*
X4020312Y1923643D01*
X4022547Y1926894D01*
X4025798Y1929130D01*
X4029710Y1929892D01*
X4098290Y1929892D01*
X4102201Y1929130D01*
X4105452Y1926894D01*
X4107687Y1923643D01*
X4108450Y1919732D01*
X4108450Y1873250D01*
X4155643Y1873250D01*
X4151833Y1880819D01*
X4144111Y1892046D01*
X4134967Y1902206D01*
X4124248Y1911146D01*
X4121200Y1914194D01*
X4119676Y1918258D01*
X4119981Y1922576D01*
X4122064Y1926386D01*
X4125518Y1928977D01*
X4129735Y1929892D01*
X4190441Y1929892D01*
X4196740Y1930603D01*
X4202226Y1932533D01*
X4207103Y1935581D01*
X4211218Y1939696D01*
X4214266Y1944573D01*
X4216196Y1950059D01*
X4216908Y1956358D01*
X4216908Y2209241D01*
X4216196Y2215540D01*
X4214266Y2221026D01*
X4211218Y2225903D01*
X4207103Y2230018D01*
X4202226Y2233066D01*
X4196740Y2234996D01*
X4190441Y2235708D01*
X3937558Y2235708D01*
X3931259Y2234996D01*
X3925773Y2233066D01*
X3920896Y2230018D01*
X3916781Y2225903D01*
X3913733Y2221026D01*
X3911803Y2215540D01*
X3911092Y2209241D01*
X3911092Y1956358D01*
X3911803Y1950059D01*
X3913733Y1944573D01*
X3916781Y1939696D01*
X3920896Y1935581D01*
X3925773Y1932533D01*
X3931259Y1930603D01*
X3937558Y1929892D01*
X3998569Y1929892D01*
X4002684Y1929028D01*
X4006087Y1926539D01*
X4008221Y1922881D01*
X4008678Y1918716D01*
X4007408Y1914702D01*
X4004614Y1911553D01*
X3998112Y1906778D01*
X3988308Y1897278D01*
X3979824Y1886559D01*
X3972864Y1874824D01*
G37*
G36*
X1427226Y2071624D02*
G01*
X1444091Y2072538D01*
X1460754Y2075383D01*
X1477060Y2080056D01*
X1492656Y2086559D01*
X1507490Y2094738D01*
X1521256Y2104542D01*
X1533906Y2115820D01*
X1545183Y2128418D01*
X1554988Y2142236D01*
X1563166Y2157018D01*
X1569618Y2172665D01*
X1574292Y2188921D01*
X1577136Y2205583D01*
X1578102Y2222500D01*
X1577136Y2239416D01*
X1574292Y2256078D01*
X1569618Y2272334D01*
X1563166Y2287981D01*
X1554988Y2302764D01*
X1545183Y2316581D01*
X1533906Y2329180D01*
X1521256Y2340457D01*
X1507490Y2350262D01*
X1492656Y2358440D01*
X1477060Y2364943D01*
X1460754Y2369616D01*
X1444091Y2372461D01*
X1427226Y2373376D01*
X1410309Y2372461D01*
X1393647Y2369616D01*
X1377340Y2364943D01*
X1361744Y2358440D01*
X1346911Y2350262D01*
X1333144Y2340457D01*
X1320495Y2329180D01*
X1309217Y2316581D01*
X1299413Y2302764D01*
X1291234Y2287981D01*
X1284782Y2272334D01*
X1280109Y2256078D01*
X1277264Y2239416D01*
X1276299Y2222500D01*
X1277264Y2205583D01*
X1280109Y2188921D01*
X1284782Y2172665D01*
X1291234Y2157018D01*
X1299413Y2142236D01*
X1309217Y2128418D01*
X1320495Y2115820D01*
X1333144Y2104542D01*
X1346911Y2094738D01*
X1361744Y2086559D01*
X1377340Y2080056D01*
X1393647Y2075383D01*
X1410309Y2072538D01*
G37*
G36*
X2027174Y2071624D02*
G01*
X2044090Y2072538D01*
X2060752Y2075383D01*
X2077059Y2080056D01*
X2092655Y2086559D01*
X2107488Y2094738D01*
X2121255Y2104542D01*
X2133904Y2115820D01*
X2145182Y2128418D01*
X2154986Y2142236D01*
X2163165Y2157018D01*
X2169617Y2172665D01*
X2174290Y2188921D01*
X2177135Y2205583D01*
X2178100Y2222500D01*
X2177135Y2239416D01*
X2174290Y2256078D01*
X2169617Y2272334D01*
X2163165Y2287981D01*
X2154986Y2302764D01*
X2145182Y2316581D01*
X2133904Y2329180D01*
X2121255Y2340457D01*
X2107488Y2350262D01*
X2092655Y2358440D01*
X2077059Y2364943D01*
X2060752Y2369616D01*
X2044090Y2372461D01*
X2027174Y2373376D01*
X2010308Y2372461D01*
X1993646Y2369616D01*
X1977339Y2364943D01*
X1961743Y2358440D01*
X1946910Y2350262D01*
X1933143Y2340457D01*
X1920493Y2329180D01*
X1909216Y2316581D01*
X1899412Y2302764D01*
X1891233Y2287981D01*
X1884781Y2272334D01*
X1880107Y2256078D01*
X1877263Y2239416D01*
X1876298Y2222500D01*
X1877263Y2205583D01*
X1880107Y2188921D01*
X1884781Y2172665D01*
X1891233Y2157018D01*
X1899412Y2142236D01*
X1909216Y2128418D01*
X1920493Y2115820D01*
X1933143Y2104542D01*
X1946910Y2094738D01*
X1961743Y2086559D01*
X1977339Y2080056D01*
X1993646Y2075383D01*
X2010308Y2072538D01*
G37*
G36*
X3289858Y2323592D02*
G01*
X3542741Y2323592D01*
X3549040Y2324303D01*
X3554526Y2326233D01*
X3559403Y2329281D01*
X3563518Y2333396D01*
X3566566Y2338273D01*
X3568496Y2343759D01*
X3569208Y2350058D01*
X3569208Y2411069D01*
X3570071Y2415184D01*
X3572560Y2418588D01*
X3576218Y2420721D01*
X3580384Y2421178D01*
X3584397Y2419908D01*
X3587546Y2417114D01*
X3592322Y2410612D01*
X3601821Y2400808D01*
X3612540Y2392324D01*
X3624275Y2385364D01*
X3636822Y2380081D01*
X3649979Y2376474D01*
X3663492Y2374646D01*
X3677107Y2374646D01*
X3690620Y2376474D01*
X3703777Y2380081D01*
X3716324Y2385364D01*
X3728059Y2392324D01*
X3738778Y2400808D01*
X3748278Y2410612D01*
X3756355Y2421585D01*
X3762908Y2433523D01*
X3767785Y2446274D01*
X3770985Y2459532D01*
X3772306Y2473096D01*
X3771849Y2486710D01*
X3769614Y2500172D01*
X3765550Y2513177D01*
X3759809Y2525572D01*
X3752494Y2537053D01*
X3743706Y2547467D01*
X3733546Y2556611D01*
X3722319Y2564333D01*
X3710178Y2570480D01*
X3697274Y2574950D01*
X3683914Y2577693D01*
X3670300Y2578608D01*
X3656685Y2577693D01*
X3643325Y2574950D01*
X3630422Y2570480D01*
X3618280Y2564333D01*
X3607054Y2556611D01*
X3596894Y2547467D01*
X3587953Y2536748D01*
X3584905Y2533700D01*
X3580841Y2532176D01*
X3576523Y2532481D01*
X3572713Y2534564D01*
X3570122Y2538018D01*
X3569208Y2542235D01*
X3569208Y2602941D01*
X3568496Y2609240D01*
X3566566Y2614726D01*
X3563518Y2619603D01*
X3559403Y2623718D01*
X3554526Y2626766D01*
X3549040Y2628696D01*
X3542741Y2629408D01*
X3289858Y2629408D01*
X3283559Y2628696D01*
X3278073Y2626766D01*
X3273196Y2623718D01*
X3269081Y2619603D01*
X3266033Y2614726D01*
X3264103Y2609240D01*
X3263392Y2602941D01*
X3263392Y2350058D01*
X3264103Y2343759D01*
X3266033Y2338273D01*
X3269081Y2333396D01*
X3273196Y2329281D01*
X3278073Y2326233D01*
X3283559Y2324303D01*
G37*
G36*
X2386736Y2705963D02*
G01*
X4666589Y2705963D01*
X4674616Y2706776D01*
X4681880Y2708960D01*
X4688535Y2712516D01*
X4694732Y2717647D01*
X4699660Y2722524D01*
X4702556Y2724556D01*
X4705959Y2725470D01*
X4713986Y2726182D01*
X4723434Y2728722D01*
X4732375Y2732836D01*
X4740402Y2738475D01*
X4747361Y2745435D01*
X4753000Y2753461D01*
X4757115Y2762402D01*
X4759655Y2771851D01*
X4760518Y2781655D01*
X4759655Y2791460D01*
X4757115Y2800908D01*
X4753000Y2809849D01*
X4747361Y2817876D01*
X4740402Y2824835D01*
X4732375Y2830474D01*
X4723434Y2834589D01*
X4713986Y2837129D01*
X4704181Y2837992D01*
X4694377Y2837129D01*
X4684928Y2834589D01*
X4675987Y2830474D01*
X4667961Y2824835D01*
X4661001Y2817876D01*
X4655362Y2809849D01*
X4651248Y2800908D01*
X4648504Y2790698D01*
X4646472Y2786786D01*
X4642967Y2784144D01*
X4638700Y2783179D01*
X3619804Y2783179D01*
X3615588Y2784094D01*
X3612134Y2786735D01*
X3610051Y2790545D01*
X3609797Y2794863D01*
X3611321Y2798927D01*
X3614420Y2801975D01*
X3622090Y2806954D01*
X3628390Y2812542D01*
X3702659Y2886760D01*
X3705860Y2888945D01*
X3716324Y2893364D01*
X3728059Y2900324D01*
X3738778Y2908808D01*
X3748278Y2918612D01*
X3756355Y2929585D01*
X3762908Y2941523D01*
X3765550Y2948432D01*
X3767886Y2951988D01*
X3939641Y3123793D01*
X3945229Y3130092D01*
X3946550Y3131870D01*
X3950970Y3138932D01*
X3951986Y3140913D01*
X3955186Y3148634D01*
X3955846Y3150768D01*
X3958082Y3161080D01*
X3958590Y3169513D01*
X3958590Y3228543D01*
X3959351Y3232404D01*
X3961587Y3235706D01*
X4065320Y3339439D01*
X4068572Y3341624D01*
X4072483Y3342436D01*
X5277510Y3342436D01*
X5280202Y3342030D01*
X5282692Y3341014D01*
X5287975Y3337864D01*
X5300522Y3332581D01*
X5313680Y3328974D01*
X5327192Y3327146D01*
X5340807Y3327146D01*
X5354320Y3328974D01*
X5367477Y3332581D01*
X5380024Y3337864D01*
X5391759Y3344824D01*
X5402478Y3353308D01*
X5411978Y3363112D01*
X5420055Y3374085D01*
X5426608Y3386023D01*
X5431485Y3398774D01*
X5434685Y3412032D01*
X5436006Y3425596D01*
X5435549Y3439210D01*
X5433314Y3452672D01*
X5429250Y3465677D01*
X5423509Y3478072D01*
X5416194Y3489553D01*
X5407406Y3499967D01*
X5397246Y3509111D01*
X5386019Y3516833D01*
X5373878Y3522979D01*
X5360974Y3527450D01*
X5347614Y3530193D01*
X5334000Y3531108D01*
X5320385Y3530193D01*
X5307025Y3527450D01*
X5294122Y3522979D01*
X5281980Y3516833D01*
X5270754Y3509111D01*
X5260594Y3499967D01*
X5251805Y3489553D01*
X5244490Y3478072D01*
X5243576Y3476091D01*
X5241340Y3472992D01*
X5238089Y3470960D01*
X5234381Y3470249D01*
X4865776Y3470249D01*
X4861458Y3471164D01*
X4858004Y3473856D01*
X4855972Y3477768D01*
X4854244Y3484118D01*
X4850079Y3493058D01*
X4844440Y3501085D01*
X4837531Y3508044D01*
X4829454Y3513683D01*
X4820564Y3517798D01*
X4811064Y3520338D01*
X4801311Y3521201D01*
X4791506Y3520338D01*
X4782007Y3517798D01*
X4773117Y3513683D01*
X4765090Y3508044D01*
X4763465Y3506470D01*
X4760214Y3504234D01*
X4756302Y3503472D01*
X3579368Y3503472D01*
X3575456Y3504234D01*
X3572205Y3506470D01*
X3569970Y3509772D01*
X3569208Y3513632D01*
X3569208Y3526790D01*
X3569970Y3530701D01*
X3572205Y3533952D01*
X3575456Y3536187D01*
X3579368Y3536950D01*
X3625850Y3536950D01*
X3625850Y3584143D01*
X3618280Y3580333D01*
X3607054Y3572611D01*
X3596894Y3563467D01*
X3587953Y3552748D01*
X3584905Y3549700D01*
X3580841Y3548176D01*
X3576523Y3548481D01*
X3572713Y3550564D01*
X3570122Y3554018D01*
X3569208Y3558235D01*
X3569208Y3618941D01*
X3568496Y3625240D01*
X3566566Y3630726D01*
X3563518Y3635603D01*
X3559403Y3639718D01*
X3554526Y3642766D01*
X3549040Y3644696D01*
X3542741Y3645408D01*
X3289858Y3645408D01*
X3283559Y3644696D01*
X3278073Y3642766D01*
X3273196Y3639718D01*
X3269081Y3635603D01*
X3266033Y3630726D01*
X3264103Y3625240D01*
X3263392Y3618941D01*
X3263392Y3601516D01*
X3262629Y3597656D01*
X3260394Y3594354D01*
X3257143Y3592118D01*
X3253232Y3591356D01*
X3249320Y3592118D01*
X3246069Y3594354D01*
X2943402Y3896969D01*
X2941269Y3900119D01*
X2940456Y3903776D01*
X2941015Y3907485D01*
X2943250Y3914038D01*
X2945993Y3927398D01*
X2946908Y3940962D01*
X2945993Y3954576D01*
X2943250Y3967937D01*
X2938780Y3980840D01*
X2932633Y3993032D01*
X2924911Y4004259D01*
X2915767Y4014368D01*
X2905353Y4023156D01*
X2893872Y4030522D01*
X2881477Y4036263D01*
X2868472Y4040276D01*
X2855010Y4042562D01*
X2841396Y4043019D01*
X2827832Y4041648D01*
X2814574Y4038498D01*
X2801823Y4033570D01*
X2789885Y4027017D01*
X2778912Y4018940D01*
X2769108Y4009440D01*
X2760624Y3998772D01*
X2753664Y3987037D01*
X2748381Y3974490D01*
X2744774Y3961333D01*
X2742946Y3947820D01*
X2742946Y3934155D01*
X2744774Y3920642D01*
X2748635Y3906672D01*
X2748940Y3903116D01*
X2748026Y3899712D01*
X2745994Y3896817D01*
X2556967Y3707790D01*
X2553665Y3705555D01*
X2549804Y3704793D01*
X1152093Y3704793D01*
X1144066Y3703980D01*
X1136853Y3701796D01*
X1130147Y3698240D01*
X1123950Y3693160D01*
X984859Y3554069D01*
X981557Y3551834D01*
X977646Y3551072D01*
X973734Y3551885D01*
X966927Y3554729D01*
X952753Y3558794D01*
X938174Y3561079D01*
X923391Y3561486D01*
X908710Y3560165D01*
X894283Y3557015D01*
X880364Y3552088D01*
X867156Y3545484D01*
X854862Y3537356D01*
X843635Y3527755D01*
X833729Y3516833D01*
X825195Y3504793D01*
X818184Y3491788D01*
X812850Y3478022D01*
X809294Y3463747D01*
X807466Y3449065D01*
X807466Y3434334D01*
X809294Y3419652D01*
X812850Y3405378D01*
X818184Y3391611D01*
X825195Y3378606D01*
X833729Y3366566D01*
X843635Y3355644D01*
X854862Y3346043D01*
X867156Y3337915D01*
X880364Y3331311D01*
X894283Y3326384D01*
X908710Y3323234D01*
X923391Y3321862D01*
X938174Y3322320D01*
X952753Y3324606D01*
X966927Y3328670D01*
X980541Y3334410D01*
X993292Y3341776D01*
X1005078Y3350666D01*
X1015695Y3360928D01*
X1024940Y3372459D01*
X1032713Y3385007D01*
X1038860Y3398418D01*
X1043330Y3412439D01*
X1046073Y3426968D01*
X1046987Y3441700D01*
X1046073Y3456432D01*
X1043330Y3470960D01*
X1038860Y3484981D01*
X1037437Y3488080D01*
X1036523Y3492042D01*
X1037234Y3496106D01*
X1039520Y3499510D01*
X1164590Y3624579D01*
X1167892Y3626815D01*
X1171803Y3627577D01*
X2569514Y3627577D01*
X2577541Y3628390D01*
X2584754Y3630574D01*
X2591409Y3634130D01*
X2597658Y3639261D01*
X2800756Y3842308D01*
X2803956Y3844493D01*
X2807766Y3845306D01*
X2811576Y3844645D01*
X2814574Y3843477D01*
X2827832Y3840327D01*
X2841396Y3838956D01*
X2855010Y3839413D01*
X2868472Y3841699D01*
X2878683Y3844848D01*
X2882290Y3845306D01*
X2885846Y3844391D01*
X2888843Y3842308D01*
X3260394Y3470757D01*
X3262629Y3467455D01*
X3263392Y3463594D01*
X3263392Y3366058D01*
X3264103Y3359759D01*
X3266033Y3354273D01*
X3269081Y3349396D01*
X3273196Y3345281D01*
X3278073Y3342233D01*
X3283559Y3340303D01*
X3289858Y3339592D01*
X3542741Y3339592D01*
X3549040Y3340303D01*
X3554526Y3342233D01*
X3559403Y3345281D01*
X3563518Y3349396D01*
X3566566Y3354273D01*
X3568496Y3359759D01*
X3569208Y3366058D01*
X3569208Y3416096D01*
X3569970Y3420008D01*
X3572205Y3423259D01*
X3575456Y3425494D01*
X3579368Y3426256D01*
X3588359Y3426256D01*
X3592322Y3425444D01*
X3595674Y3423158D01*
X3601821Y3416808D01*
X3612540Y3408324D01*
X3624275Y3401364D01*
X3625850Y3400704D01*
X3625850Y3416096D01*
X3626612Y3420008D01*
X3628847Y3423259D01*
X3632098Y3425494D01*
X3636010Y3426256D01*
X3704590Y3426256D01*
X3708501Y3425494D01*
X3711752Y3423259D01*
X3713987Y3420008D01*
X3714750Y3416096D01*
X3714750Y3400704D01*
X3716324Y3401364D01*
X3728059Y3408324D01*
X3738778Y3416808D01*
X3744925Y3423158D01*
X3748278Y3425444D01*
X3752240Y3426256D01*
X3946855Y3426256D01*
X3950715Y3425494D01*
X3954018Y3423259D01*
X3956202Y3420008D01*
X3957015Y3416096D01*
X3956202Y3412236D01*
X3954018Y3408934D01*
X3849725Y3304590D01*
X3844137Y3298291D01*
X3842816Y3296513D01*
X3838397Y3289452D01*
X3837381Y3287471D01*
X3834180Y3279749D01*
X3831640Y3269538D01*
X3831285Y3267303D01*
X3830777Y3258870D01*
X3830777Y3199841D01*
X3830015Y3195980D01*
X3827779Y3192678D01*
X3717239Y3082086D01*
X3714089Y3079953D01*
X3710432Y3079140D01*
X3706723Y3079699D01*
X3697274Y3082950D01*
X3683914Y3085693D01*
X3670300Y3086608D01*
X3656685Y3085693D01*
X3643325Y3082950D01*
X3630422Y3078480D01*
X3618280Y3072333D01*
X3607054Y3064611D01*
X3596894Y3055467D01*
X3587953Y3044748D01*
X3584905Y3041700D01*
X3580841Y3040176D01*
X3576523Y3040481D01*
X3572713Y3042564D01*
X3570122Y3046018D01*
X3569208Y3050235D01*
X3569208Y3110941D01*
X3568496Y3117240D01*
X3566566Y3122726D01*
X3563518Y3127603D01*
X3559403Y3131718D01*
X3554526Y3134766D01*
X3549040Y3136696D01*
X3542741Y3137408D01*
X3289858Y3137408D01*
X3283559Y3136696D01*
X3278073Y3134766D01*
X3273196Y3131718D01*
X3269081Y3127603D01*
X3266033Y3122726D01*
X3264103Y3117240D01*
X3263392Y3110941D01*
X3263392Y2858058D01*
X3264103Y2851759D01*
X3266033Y2846273D01*
X3269081Y2841396D01*
X3273196Y2837281D01*
X3278073Y2834233D01*
X3283559Y2832303D01*
X3289858Y2831592D01*
X3478885Y2831592D01*
X3482441Y2830931D01*
X3485540Y2829102D01*
X3487826Y2826258D01*
X3489807Y2822549D01*
X3496310Y2814218D01*
X3504082Y2807106D01*
X3512108Y2801823D01*
X3515106Y2798775D01*
X3516629Y2794762D01*
X3516274Y2790444D01*
X3514191Y2786684D01*
X3510737Y2784094D01*
X3506571Y2783179D01*
X2406446Y2783179D01*
X2402535Y2783941D01*
X2399233Y2786176D01*
X1801520Y3383889D01*
X1799234Y3387293D01*
X1798523Y3391357D01*
X1799437Y3395319D01*
X1800860Y3398418D01*
X1805330Y3412439D01*
X1808073Y3426968D01*
X1808988Y3441700D01*
X1808073Y3456432D01*
X1805330Y3470960D01*
X1800860Y3484981D01*
X1794713Y3498392D01*
X1786940Y3510940D01*
X1777695Y3522472D01*
X1767078Y3532733D01*
X1755292Y3541623D01*
X1742541Y3548989D01*
X1728927Y3554729D01*
X1714754Y3558794D01*
X1700174Y3561079D01*
X1685391Y3561486D01*
X1670710Y3560165D01*
X1656283Y3557015D01*
X1642364Y3552088D01*
X1629156Y3545484D01*
X1616862Y3537356D01*
X1605635Y3527755D01*
X1595729Y3516833D01*
X1587195Y3504793D01*
X1580184Y3491788D01*
X1574850Y3478022D01*
X1571294Y3463747D01*
X1569466Y3449065D01*
X1569466Y3434334D01*
X1571294Y3419652D01*
X1574850Y3405378D01*
X1580184Y3391611D01*
X1587195Y3378606D01*
X1595729Y3366566D01*
X1605635Y3355644D01*
X1616862Y3346043D01*
X1629156Y3337915D01*
X1642364Y3331311D01*
X1656283Y3326384D01*
X1670710Y3323234D01*
X1685391Y3321862D01*
X1700174Y3322320D01*
X1714754Y3324606D01*
X1728927Y3328670D01*
X1735734Y3331514D01*
X1739646Y3332327D01*
X1743557Y3331565D01*
X1746859Y3329330D01*
X2358593Y2717647D01*
X2364790Y2712516D01*
X2371496Y2708960D01*
X2378710Y2706776D01*
G37*
G36*
X5378450Y2829204D02*
G01*
X5380024Y2829864D01*
X5391759Y2836824D01*
X5402478Y2845308D01*
X5411978Y2855112D01*
X5420055Y2866085D01*
X5425795Y2876550D01*
X5378450Y2876550D01*
G37*
G36*
X5289550Y2829204D02*
G01*
X5289550Y2876550D01*
X5242204Y2876550D01*
X5247944Y2866085D01*
X5256022Y2855112D01*
X5265521Y2845308D01*
X5276240Y2836824D01*
X5287975Y2829864D01*
G37*
G36*
X5242356Y2965450D02*
G01*
X5289550Y2965450D01*
X5289550Y3012643D01*
X5281980Y3008833D01*
X5270754Y3001111D01*
X5260594Y2991967D01*
X5251805Y2981553D01*
X5244490Y2970072D01*
G37*
G36*
X5378450Y2965450D02*
G01*
X5425643Y2965450D01*
X5423509Y2970072D01*
X5416194Y2981553D01*
X5407406Y2991967D01*
X5397246Y3001111D01*
X5386019Y3008833D01*
X5378450Y3012643D01*
G37*
G36*
X3714750Y3536950D02*
G01*
X3761943Y3536950D01*
X3759809Y3541572D01*
X3752494Y3553053D01*
X3743706Y3563467D01*
X3733546Y3572611D01*
X3722319Y3580333D01*
X3714750Y3584143D01*
G37*
G36*
X1723491Y3766362D02*
G01*
X1738274Y3766820D01*
X1752854Y3769106D01*
X1767027Y3773170D01*
X1780641Y3778910D01*
X1793392Y3786276D01*
X1805178Y3795166D01*
X1815795Y3805428D01*
X1825040Y3816959D01*
X1832813Y3829507D01*
X1838960Y3842918D01*
X1843430Y3856939D01*
X1846173Y3871468D01*
X1847088Y3886200D01*
X1846173Y3900932D01*
X1843430Y3915460D01*
X1838960Y3929481D01*
X1832813Y3942892D01*
X1825040Y3955440D01*
X1815795Y3966972D01*
X1805178Y3977233D01*
X1793392Y3986123D01*
X1780641Y3993489D01*
X1767027Y3999229D01*
X1752854Y4003294D01*
X1738274Y4005579D01*
X1723491Y4005986D01*
X1708810Y4004665D01*
X1694383Y4001515D01*
X1680464Y3996588D01*
X1667256Y3989984D01*
X1654962Y3981856D01*
X1643735Y3972255D01*
X1633829Y3961333D01*
X1625295Y3949293D01*
X1618284Y3936288D01*
X1612950Y3922522D01*
X1609394Y3908247D01*
X1607566Y3893565D01*
X1607566Y3878834D01*
X1609394Y3864152D01*
X1612950Y3849878D01*
X1618284Y3836111D01*
X1625295Y3823106D01*
X1633829Y3811066D01*
X1643735Y3800144D01*
X1654962Y3790543D01*
X1667256Y3782415D01*
X1680464Y3775811D01*
X1694383Y3770884D01*
X1708810Y3767734D01*
G37*
G36*
X961491Y3766362D02*
G01*
X976274Y3766820D01*
X990853Y3769106D01*
X1005027Y3773170D01*
X1018641Y3778910D01*
X1031392Y3786276D01*
X1043178Y3795166D01*
X1053795Y3805428D01*
X1063040Y3816959D01*
X1070813Y3829507D01*
X1076960Y3842918D01*
X1081430Y3856939D01*
X1084173Y3871468D01*
X1085088Y3886200D01*
X1084173Y3900932D01*
X1081430Y3915460D01*
X1076960Y3929481D01*
X1070813Y3942892D01*
X1063040Y3955440D01*
X1053795Y3966972D01*
X1043178Y3977233D01*
X1031392Y3986123D01*
X1018641Y3993489D01*
X1005027Y3999229D01*
X990853Y4003294D01*
X976274Y4005579D01*
X961491Y4005986D01*
X946810Y4004665D01*
X932383Y4001515D01*
X918464Y3996588D01*
X905256Y3989984D01*
X892962Y3981856D01*
X881735Y3972255D01*
X871829Y3961333D01*
X863295Y3949293D01*
X856284Y3936288D01*
X850950Y3922522D01*
X847394Y3908247D01*
X845566Y3893565D01*
X845566Y3878834D01*
X847394Y3864152D01*
X850950Y3849878D01*
X856284Y3836111D01*
X863295Y3823106D01*
X871829Y3811066D01*
X881735Y3800144D01*
X892962Y3790543D01*
X905256Y3782415D01*
X918464Y3775811D01*
X932383Y3770884D01*
X946810Y3767734D01*
G37*
G36*
X4035196Y3800856D02*
G01*
X4048810Y3801313D01*
X4062272Y3803599D01*
X4075277Y3807612D01*
X4087672Y3813352D01*
X4099153Y3820718D01*
X4109567Y3829507D01*
X4118711Y3839616D01*
X4126433Y3850843D01*
X4130395Y3858717D01*
X4132630Y3861663D01*
X4135831Y3863594D01*
X4139488Y3864305D01*
X4729784Y3864305D01*
X4733137Y3863695D01*
X4736084Y3862120D01*
X4738370Y3859580D01*
X4743805Y3851046D01*
X4752594Y3840632D01*
X4762754Y3831488D01*
X4773980Y3823766D01*
X4786122Y3817620D01*
X4799025Y3813149D01*
X4812385Y3810406D01*
X4826000Y3809492D01*
X4839614Y3810406D01*
X4852974Y3813149D01*
X4865878Y3817620D01*
X4878019Y3823766D01*
X4889246Y3831488D01*
X4899406Y3840632D01*
X4908194Y3851046D01*
X4915509Y3862527D01*
X4921250Y3874922D01*
X4925314Y3887927D01*
X4927549Y3901389D01*
X4928006Y3915003D01*
X4926685Y3928567D01*
X4923485Y3941826D01*
X4918608Y3954576D01*
X4912055Y3966514D01*
X4903978Y3977487D01*
X4894478Y3987292D01*
X4883759Y3995775D01*
X4872024Y4002735D01*
X4859477Y4008018D01*
X4846320Y4011625D01*
X4832807Y4013454D01*
X4819192Y4013454D01*
X4805680Y4011625D01*
X4792522Y4008018D01*
X4779975Y4002735D01*
X4768240Y3995775D01*
X4757521Y3987292D01*
X4748022Y3977487D01*
X4739944Y3966514D01*
X4733391Y3954576D01*
X4730851Y3948023D01*
X4728718Y3944620D01*
X4725365Y3942283D01*
X4721402Y3941521D01*
X4139437Y3941521D01*
X4135831Y3942181D01*
X4132630Y3944112D01*
X4130395Y3947058D01*
X4126433Y3954932D01*
X4118711Y3966159D01*
X4109567Y3976268D01*
X4099153Y3985056D01*
X4087672Y3992422D01*
X4075277Y3998163D01*
X4062272Y4002176D01*
X4048810Y4004462D01*
X4035196Y4004919D01*
X4021632Y4003548D01*
X4008374Y4000398D01*
X3995623Y3995470D01*
X3983685Y3988917D01*
X3972712Y3980840D01*
X3962908Y3971340D01*
X3954424Y3960672D01*
X3947464Y3948937D01*
X3942181Y3936390D01*
X3938574Y3923233D01*
X3936746Y3909720D01*
X3936746Y3896055D01*
X3938574Y3882542D01*
X3942181Y3869385D01*
X3947464Y3856837D01*
X3954424Y3845102D01*
X3962908Y3834434D01*
X3972712Y3824935D01*
X3983685Y3816858D01*
X3995623Y3810304D01*
X4008374Y3805377D01*
X4021632Y3802227D01*
G37*
G36*
X3994150Y4311091D02*
G01*
X3994150Y4358436D01*
X3946804Y4358436D01*
X3947464Y4356862D01*
X3954424Y4345127D01*
X3962908Y4334408D01*
X3972712Y4324908D01*
X3983685Y4316831D01*
G37*
G36*
X4083050Y4311243D02*
G01*
X4087672Y4313377D01*
X4099153Y4320692D01*
X4109567Y4329480D01*
X4118711Y4339640D01*
X4126433Y4350867D01*
X4130243Y4358436D01*
X4083050Y4358436D01*
G37*
G36*
X4870450Y4327956D02*
G01*
X4878019Y4331766D01*
X4889246Y4339488D01*
X4899406Y4348632D01*
X4908194Y4359046D01*
X4915509Y4370527D01*
X4917643Y4375150D01*
X4870450Y4375150D01*
G37*
G36*
X4781550Y4327956D02*
G01*
X4781550Y4375150D01*
X4734356Y4375150D01*
X4736490Y4370527D01*
X4743805Y4359046D01*
X4752594Y4348632D01*
X4762754Y4339488D01*
X4773980Y4331766D01*
G37*
G36*
X2800350Y4349191D02*
G01*
X2800350Y4396536D01*
X2753004Y4396536D01*
X2753664Y4394962D01*
X2760624Y4383227D01*
X2769108Y4372508D01*
X2778912Y4363008D01*
X2789885Y4354931D01*
G37*
G36*
X2889250Y4349343D02*
G01*
X2893872Y4351477D01*
X2905353Y4358792D01*
X2915767Y4367580D01*
X2924911Y4377740D01*
X2932633Y4388967D01*
X2936443Y4396536D01*
X2889250Y4396536D01*
G37*
G36*
X4083050Y4447336D02*
G01*
X4130243Y4447336D01*
X4126433Y4454906D01*
X4118711Y4466132D01*
X4109567Y4476292D01*
X4099153Y4485081D01*
X4087672Y4492396D01*
X4083050Y4494530D01*
G37*
G36*
X3946804Y4447336D02*
G01*
X3994150Y4447336D01*
X3994150Y4494682D01*
X3983685Y4488942D01*
X3972712Y4480864D01*
X3962908Y4471365D01*
X3954424Y4460646D01*
X3947464Y4448911D01*
G37*
G36*
X4734204Y4464050D02*
G01*
X4781550Y4464050D01*
X4781550Y4511395D01*
X4779975Y4510735D01*
X4768240Y4503775D01*
X4757521Y4495292D01*
X4748022Y4485487D01*
X4739944Y4474514D01*
G37*
G36*
X4870450Y4464050D02*
G01*
X4917795Y4464050D01*
X4912055Y4474514D01*
X4903978Y4485487D01*
X4894478Y4495292D01*
X4883759Y4503775D01*
X4872024Y4510735D01*
X4870450Y4511395D01*
G37*
G36*
X2889250Y4485436D02*
G01*
X2936443Y4485436D01*
X2932633Y4493006D01*
X2924911Y4504232D01*
X2915767Y4514392D01*
X2905353Y4523181D01*
X2893872Y4530496D01*
X2889250Y4532630D01*
G37*
G36*
X2753004Y4485436D02*
G01*
X2800350Y4485436D01*
X2800350Y4532782D01*
X2789885Y4527042D01*
X2778912Y4518964D01*
X2769108Y4509465D01*
X2760624Y4498746D01*
X2753664Y4487011D01*
G37*
G36*
X1736191Y4541062D02*
G01*
X1750974Y4541520D01*
X1765554Y4543806D01*
X1779727Y4547870D01*
X1793341Y4553610D01*
X1806092Y4560976D01*
X1817878Y4569866D01*
X1828495Y4580128D01*
X1837740Y4591659D01*
X1845513Y4604207D01*
X1851660Y4617618D01*
X1856130Y4631639D01*
X1858873Y4646168D01*
X1859788Y4660900D01*
X1858873Y4675632D01*
X1856130Y4690160D01*
X1851660Y4704181D01*
X1845513Y4717592D01*
X1837740Y4730140D01*
X1828495Y4741672D01*
X1817878Y4751933D01*
X1806092Y4760823D01*
X1793341Y4768189D01*
X1779727Y4773930D01*
X1765554Y4777994D01*
X1750974Y4780280D01*
X1736191Y4780686D01*
X1721510Y4779365D01*
X1707083Y4776216D01*
X1693164Y4771288D01*
X1679956Y4764684D01*
X1667662Y4756556D01*
X1656435Y4746955D01*
X1646529Y4736033D01*
X1637995Y4723993D01*
X1630984Y4710988D01*
X1625650Y4697222D01*
X1622094Y4682947D01*
X1620266Y4668266D01*
X1620266Y4653534D01*
X1622094Y4638852D01*
X1625650Y4624578D01*
X1630984Y4610811D01*
X1637995Y4597806D01*
X1646529Y4585766D01*
X1656435Y4574844D01*
X1667662Y4565243D01*
X1679956Y4557115D01*
X1693164Y4550511D01*
X1707083Y4545584D01*
X1721510Y4542434D01*
G37*
G36*
X974191Y4541062D02*
G01*
X988974Y4541520D01*
X1003553Y4543806D01*
X1017727Y4547870D01*
X1031341Y4553610D01*
X1044092Y4560976D01*
X1055878Y4569866D01*
X1066495Y4580128D01*
X1075740Y4591659D01*
X1083513Y4604207D01*
X1089660Y4617618D01*
X1094130Y4631639D01*
X1096873Y4646168D01*
X1097788Y4660900D01*
X1096873Y4675632D01*
X1094130Y4690160D01*
X1089660Y4704181D01*
X1088237Y4707280D01*
X1087323Y4711242D01*
X1088034Y4715306D01*
X1090320Y4718710D01*
X1390954Y5019344D01*
X1394256Y5021580D01*
X1398168Y5022342D01*
X3305098Y5022342D01*
X3313125Y5023154D01*
X3320389Y5025339D01*
X3327044Y5028895D01*
X3333242Y5034026D01*
X3743451Y5444185D01*
X3748582Y5450433D01*
X3752138Y5457088D01*
X3754323Y5464302D01*
X3755136Y5472328D01*
X3755136Y5495950D01*
X3755898Y5499811D01*
X3758082Y5503113D01*
X4977790Y6722821D01*
X4981244Y6725107D01*
X4985308Y6725767D01*
X4989372Y6724802D01*
X4992674Y6722262D01*
X4994656Y6718655D01*
X4998161Y6707276D01*
X5003901Y6695033D01*
X5011166Y6683603D01*
X5019903Y6673291D01*
X5029911Y6664198D01*
X5041087Y6656578D01*
X5053177Y6650431D01*
X5065928Y6646011D01*
X5079187Y6643319D01*
X5092700Y6642404D01*
X5106212Y6643319D01*
X5119471Y6646011D01*
X5132222Y6650431D01*
X5144312Y6656578D01*
X5155488Y6664198D01*
X5165496Y6673291D01*
X5174234Y6683603D01*
X5181498Y6695033D01*
X5187238Y6707276D01*
X5191201Y6720230D01*
X5193487Y6733540D01*
X5193944Y6747103D01*
X5192572Y6760565D01*
X5189423Y6773722D01*
X5184597Y6786321D01*
X5178094Y6798208D01*
X5170068Y6809079D01*
X5160619Y6818833D01*
X5151729Y6825843D01*
X5148884Y6829348D01*
X5147868Y6833717D01*
X5148834Y6838137D01*
X5151577Y6841693D01*
X5154117Y6843775D01*
X5239156Y6928815D01*
X5244287Y6935012D01*
X5247843Y6941718D01*
X5250027Y6948931D01*
X5250840Y6956958D01*
X5250840Y7639710D01*
X5250027Y7647736D01*
X5247843Y7654950D01*
X5244287Y7661605D01*
X5239156Y7667853D01*
X5190744Y7716266D01*
X5188661Y7719314D01*
X5187746Y7722819D01*
X5188204Y7726476D01*
X5191201Y7736230D01*
X5193487Y7749540D01*
X5193944Y7763103D01*
X5192572Y7776565D01*
X5189423Y7789722D01*
X5184597Y7802321D01*
X5178094Y7814208D01*
X5170068Y7825079D01*
X5160619Y7834833D01*
X5150002Y7843215D01*
X5138369Y7850124D01*
X5125923Y7855356D01*
X5112867Y7858963D01*
X5099456Y7860741D01*
X5085943Y7860741D01*
X5072532Y7858963D01*
X5059476Y7855356D01*
X5047030Y7850124D01*
X5035397Y7843215D01*
X5024780Y7834833D01*
X5015331Y7825079D01*
X5007305Y7814208D01*
X5000802Y7802321D01*
X4995976Y7789722D01*
X4992827Y7776565D01*
X4991455Y7763103D01*
X4991912Y7749540D01*
X4994198Y7736230D01*
X4998161Y7723276D01*
X5003901Y7711033D01*
X5011166Y7699603D01*
X5019903Y7689291D01*
X5029911Y7680198D01*
X5041087Y7672578D01*
X5053177Y7666431D01*
X5065928Y7662011D01*
X5079187Y7659319D01*
X5092700Y7658404D01*
X5106212Y7659319D01*
X5119471Y7662011D01*
X5125567Y7664145D01*
X5129276Y7664703D01*
X5132984Y7663840D01*
X5136083Y7661706D01*
X5170627Y7627162D01*
X5172811Y7623860D01*
X5173624Y7620000D01*
X5173624Y7591552D01*
X5172608Y7587132D01*
X5169814Y7583627D01*
X5165750Y7581646D01*
X5161229Y7581646D01*
X5157165Y7583576D01*
X5150002Y7589215D01*
X5138369Y7596124D01*
X5125923Y7601356D01*
X5112867Y7604963D01*
X5099456Y7606741D01*
X5085943Y7606741D01*
X5072532Y7604963D01*
X5059476Y7601356D01*
X5047030Y7596124D01*
X5035397Y7589215D01*
X5024780Y7580833D01*
X5015331Y7571079D01*
X5007305Y7560208D01*
X5000802Y7548321D01*
X4995976Y7535722D01*
X4992827Y7522565D01*
X4991455Y7509103D01*
X4991912Y7495540D01*
X4994198Y7482230D01*
X4998161Y7469276D01*
X5003901Y7457033D01*
X5011166Y7445603D01*
X5019903Y7435291D01*
X5029911Y7426198D01*
X5041087Y7418578D01*
X5053177Y7412431D01*
X5065928Y7408011D01*
X5079187Y7405319D01*
X5092700Y7404404D01*
X5106212Y7405319D01*
X5119471Y7408011D01*
X5132222Y7412431D01*
X5144312Y7418578D01*
X5159959Y7429246D01*
X5163769Y7429855D01*
X5167579Y7428992D01*
X5170728Y7426807D01*
X5172862Y7423505D01*
X5173624Y7419695D01*
X5173624Y7337552D01*
X5172608Y7333132D01*
X5169814Y7329627D01*
X5165750Y7327646D01*
X5161229Y7327646D01*
X5157165Y7329576D01*
X5150002Y7335215D01*
X5138369Y7342124D01*
X5125923Y7347356D01*
X5112867Y7350963D01*
X5099456Y7352741D01*
X5085943Y7352741D01*
X5072532Y7350963D01*
X5059476Y7347356D01*
X5047030Y7342124D01*
X5035397Y7335215D01*
X5024780Y7326833D01*
X5015331Y7317079D01*
X5007305Y7306208D01*
X5000802Y7294321D01*
X4995976Y7281722D01*
X4992827Y7268565D01*
X4991455Y7255103D01*
X4991912Y7241540D01*
X4994198Y7228230D01*
X4998161Y7215276D01*
X5003901Y7203033D01*
X5011166Y7191603D01*
X5019903Y7181291D01*
X5029911Y7172198D01*
X5041087Y7164578D01*
X5053177Y7158431D01*
X5065928Y7154011D01*
X5079187Y7151319D01*
X5092700Y7150404D01*
X5106212Y7151319D01*
X5119471Y7154011D01*
X5132222Y7158431D01*
X5144312Y7164578D01*
X5159959Y7175246D01*
X5163769Y7175855D01*
X5167579Y7174992D01*
X5170728Y7172807D01*
X5172862Y7169505D01*
X5173624Y7165695D01*
X5173624Y7083552D01*
X5172608Y7079132D01*
X5169814Y7075627D01*
X5165750Y7073646D01*
X5161229Y7073646D01*
X5157165Y7075576D01*
X5150002Y7081215D01*
X5138369Y7088124D01*
X5125923Y7093356D01*
X5112867Y7096963D01*
X5099456Y7098741D01*
X5085943Y7098741D01*
X5072532Y7096963D01*
X5059476Y7093356D01*
X5047030Y7088124D01*
X5035397Y7081215D01*
X5024780Y7072833D01*
X5015331Y7063079D01*
X5007305Y7052208D01*
X5000802Y7040321D01*
X4995976Y7027722D01*
X4992827Y7014565D01*
X4991455Y7001103D01*
X4991912Y6987540D01*
X4994198Y6974230D01*
X4997196Y6964476D01*
X4997653Y6960819D01*
X4996738Y6957263D01*
X4994656Y6954266D01*
X3682644Y5642254D01*
X3679342Y5640019D01*
X3675430Y5639257D01*
X3647948Y5639257D01*
X3643985Y5640070D01*
X3640632Y5642356D01*
X3638448Y5645759D01*
X3637787Y5649772D01*
X3638753Y5653684D01*
X3641496Y5657291D01*
X3650234Y5667603D01*
X3657498Y5679033D01*
X3663238Y5691276D01*
X3667201Y5704230D01*
X3669487Y5717540D01*
X3669944Y5731103D01*
X3668572Y5744565D01*
X3665423Y5757722D01*
X3664458Y5760313D01*
X3663746Y5764123D01*
X3664559Y5767933D01*
X3666744Y5771134D01*
X3707384Y5811774D01*
X3712514Y5818022D01*
X3716070Y5824677D01*
X3718255Y5831941D01*
X3719017Y5839917D01*
X3719017Y6269837D01*
X3718255Y6277864D01*
X3716070Y6285077D01*
X3712514Y6291732D01*
X3707384Y6297980D01*
X3630117Y6375247D01*
X3623868Y6380378D01*
X3618026Y6383477D01*
X3614724Y6386372D01*
X3612896Y6390335D01*
X3612946Y6394754D01*
X3614826Y6398717D01*
X3618229Y6401511D01*
X3620312Y6402578D01*
X3631488Y6410198D01*
X3641496Y6419291D01*
X3650234Y6429603D01*
X3657498Y6441033D01*
X3663238Y6453276D01*
X3667201Y6466230D01*
X3669487Y6479540D01*
X3669944Y6493103D01*
X3668572Y6506565D01*
X3665423Y6519722D01*
X3660597Y6532321D01*
X3654094Y6544208D01*
X3646068Y6555079D01*
X3636619Y6564833D01*
X3626002Y6573215D01*
X3614369Y6580124D01*
X3601923Y6585356D01*
X3588867Y6588963D01*
X3575456Y6590741D01*
X3561943Y6590741D01*
X3548532Y6588963D01*
X3535476Y6585356D01*
X3523030Y6580124D01*
X3511397Y6573215D01*
X3500780Y6564833D01*
X3491331Y6555079D01*
X3483305Y6544208D01*
X3476802Y6532321D01*
X3471976Y6519722D01*
X3468827Y6506565D01*
X3467455Y6493103D01*
X3467912Y6479540D01*
X3470198Y6466230D01*
X3474161Y6453276D01*
X3479901Y6441033D01*
X3487165Y6429603D01*
X3495903Y6419291D01*
X3505911Y6410198D01*
X3512870Y6405422D01*
X3515817Y6402324D01*
X3517188Y6398310D01*
X3516833Y6394043D01*
X3514750Y6390335D01*
X3511296Y6387795D01*
X3507130Y6386931D01*
X3006394Y6386931D01*
X3002534Y6387693D01*
X2999232Y6389878D01*
X1940102Y7449007D01*
X1937969Y7452106D01*
X1937156Y7455763D01*
X1937715Y7459522D01*
X1939950Y7466025D01*
X1942693Y7479385D01*
X1943607Y7493000D01*
X1942693Y7506614D01*
X1939950Y7519974D01*
X1935480Y7532878D01*
X1929333Y7545019D01*
X1921611Y7556246D01*
X1912467Y7566406D01*
X1902053Y7575194D01*
X1890572Y7582509D01*
X1878177Y7588250D01*
X1865172Y7592314D01*
X1851710Y7594549D01*
X1838096Y7595006D01*
X1824532Y7593685D01*
X1811274Y7590485D01*
X1798523Y7585608D01*
X1786585Y7579055D01*
X1775612Y7570978D01*
X1765807Y7561478D01*
X1757324Y7550759D01*
X1750364Y7539024D01*
X1745081Y7526477D01*
X1741474Y7513320D01*
X1739646Y7499807D01*
X1739646Y7486192D01*
X1741474Y7472680D01*
X1745081Y7459522D01*
X1750364Y7446975D01*
X1757324Y7435240D01*
X1765807Y7424521D01*
X1775612Y7415022D01*
X1786585Y7406944D01*
X1798523Y7400391D01*
X1811274Y7395514D01*
X1824532Y7392314D01*
X1838096Y7390993D01*
X1851710Y7391450D01*
X1865172Y7393686D01*
X1875383Y7396835D01*
X1878990Y7397292D01*
X1882546Y7396429D01*
X1885543Y7394346D01*
X2958541Y6321348D01*
X2964789Y6316218D01*
X2971444Y6312662D01*
X2978658Y6310477D01*
X2986684Y6309715D01*
X3477564Y6309715D01*
X3481933Y6308699D01*
X3485438Y6306007D01*
X3487420Y6302044D01*
X3487572Y6297574D01*
X3485743Y6293510D01*
X3483305Y6290208D01*
X3477514Y6279591D01*
X3475228Y6276797D01*
X3472129Y6274968D01*
X3468624Y6274308D01*
X1836623Y6274308D01*
X1832203Y6275324D01*
X1828495Y6278372D01*
X1817878Y6288633D01*
X1806092Y6297523D01*
X1793341Y6304889D01*
X1779727Y6310630D01*
X1765554Y6314694D01*
X1750974Y6316980D01*
X1736191Y6317386D01*
X1721510Y6316065D01*
X1707083Y6312916D01*
X1693164Y6307988D01*
X1679956Y6301384D01*
X1667662Y6293256D01*
X1656435Y6283655D01*
X1646529Y6272733D01*
X1637995Y6260693D01*
X1630984Y6247688D01*
X1625650Y6233922D01*
X1622094Y6219647D01*
X1620266Y6204966D01*
X1620266Y6190234D01*
X1622094Y6175552D01*
X1625650Y6161278D01*
X1630984Y6147511D01*
X1637995Y6134506D01*
X1646529Y6122466D01*
X1656435Y6111544D01*
X1667662Y6101943D01*
X1679956Y6093815D01*
X1693164Y6087211D01*
X1707083Y6082284D01*
X1721510Y6079134D01*
X1736191Y6077762D01*
X1750974Y6078220D01*
X1765554Y6080506D01*
X1779727Y6084570D01*
X1793341Y6090310D01*
X1806092Y6097676D01*
X1817878Y6106566D01*
X1828495Y6116828D01*
X1837740Y6128359D01*
X1845513Y6140907D01*
X1851660Y6154318D01*
X1856130Y6168339D01*
X1858873Y6182868D01*
X1859127Y6187541D01*
X1860092Y6191250D01*
X1862328Y6194348D01*
X1865528Y6196380D01*
X1869287Y6197092D01*
X3468725Y6197092D01*
X3472484Y6196380D01*
X3475685Y6194298D01*
X3477920Y6191199D01*
X3479901Y6187033D01*
X3487165Y6175603D01*
X3495903Y6165291D01*
X3505911Y6156198D01*
X3517087Y6148578D01*
X3529177Y6142431D01*
X3541928Y6138011D01*
X3555187Y6135319D01*
X3568700Y6134404D01*
X3582212Y6135319D01*
X3595471Y6138011D01*
X3608222Y6142431D01*
X3620312Y6148578D01*
X3625900Y6152388D01*
X3629964Y6154013D01*
X3634333Y6153810D01*
X3638245Y6151778D01*
X3640886Y6148273D01*
X3641801Y6144006D01*
X3641801Y6073648D01*
X3640937Y6069533D01*
X3638448Y6066078D01*
X3634740Y6063996D01*
X3630523Y6063589D01*
X3626510Y6064910D01*
X3614369Y6072124D01*
X3601923Y6077356D01*
X3588867Y6080963D01*
X3575456Y6082741D01*
X3561943Y6082741D01*
X3548532Y6080963D01*
X3535476Y6077356D01*
X3523030Y6072124D01*
X3511397Y6065215D01*
X3500780Y6056833D01*
X3491331Y6047079D01*
X3483305Y6036208D01*
X3476802Y6024321D01*
X3471976Y6011722D01*
X3468827Y5998565D01*
X3467455Y5985103D01*
X3467912Y5971540D01*
X3470198Y5958230D01*
X3474161Y5945276D01*
X3479901Y5933033D01*
X3487165Y5921603D01*
X3495903Y5911291D01*
X3505911Y5902198D01*
X3517087Y5894578D01*
X3529177Y5888431D01*
X3541928Y5884011D01*
X3555187Y5881319D01*
X3568700Y5880404D01*
X3582212Y5881319D01*
X3595471Y5884011D01*
X3608222Y5888431D01*
X3620312Y5894578D01*
X3625900Y5898388D01*
X3629964Y5900013D01*
X3634333Y5899810D01*
X3638245Y5897778D01*
X3640886Y5894273D01*
X3641801Y5890006D01*
X3641801Y5859627D01*
X3641039Y5855766D01*
X3638854Y5852464D01*
X3612286Y5825845D01*
X3609340Y5823813D01*
X3605936Y5822950D01*
X3602380Y5823254D01*
X3588867Y5826963D01*
X3575456Y5828741D01*
X3561943Y5828741D01*
X3548532Y5826963D01*
X3535476Y5823356D01*
X3523030Y5818124D01*
X3511397Y5811215D01*
X3500780Y5802833D01*
X3491331Y5793079D01*
X3483305Y5782208D01*
X3476802Y5770321D01*
X3471976Y5757722D01*
X3468827Y5744565D01*
X3467455Y5731103D01*
X3467912Y5717540D01*
X3470198Y5704230D01*
X3474161Y5691276D01*
X3479901Y5679033D01*
X3487165Y5667603D01*
X3496259Y5656935D01*
X3498646Y5653684D01*
X3499612Y5649772D01*
X3498951Y5645759D01*
X3496767Y5642356D01*
X3493414Y5640070D01*
X3489451Y5639257D01*
X1118057Y5639257D01*
X1110030Y5638444D01*
X1102817Y5636260D01*
X1096111Y5632704D01*
X1089914Y5627624D01*
X1035659Y5573369D01*
X1032357Y5571134D01*
X1028446Y5570372D01*
X1024534Y5571185D01*
X1017727Y5574030D01*
X1003553Y5578094D01*
X988974Y5580380D01*
X974191Y5580786D01*
X959510Y5579465D01*
X945083Y5576316D01*
X931164Y5571388D01*
X917956Y5564784D01*
X905662Y5556656D01*
X894435Y5547055D01*
X884529Y5536133D01*
X875995Y5524093D01*
X868984Y5511088D01*
X863650Y5497322D01*
X860094Y5483047D01*
X858266Y5468366D01*
X858266Y5453634D01*
X860094Y5438952D01*
X863650Y5424678D01*
X868984Y5410911D01*
X875995Y5397906D01*
X884529Y5385866D01*
X894435Y5374944D01*
X905662Y5365343D01*
X917956Y5357215D01*
X931164Y5350611D01*
X945083Y5345684D01*
X959510Y5342534D01*
X974191Y5341162D01*
X988974Y5341620D01*
X1003553Y5343906D01*
X1017727Y5347970D01*
X1031341Y5353710D01*
X1044092Y5361076D01*
X1055878Y5369966D01*
X1066495Y5380228D01*
X1075740Y5391759D01*
X1083513Y5404307D01*
X1089660Y5417718D01*
X1094130Y5431739D01*
X1096873Y5446268D01*
X1097788Y5461000D01*
X1096873Y5475732D01*
X1094130Y5490260D01*
X1089660Y5504281D01*
X1088237Y5507380D01*
X1087323Y5511342D01*
X1088034Y5515406D01*
X1090320Y5518810D01*
X1130554Y5559044D01*
X1133856Y5561279D01*
X1137767Y5562041D01*
X1647088Y5562041D01*
X1650949Y5561279D01*
X1654200Y5559196D01*
X1656384Y5555996D01*
X1657248Y5552186D01*
X1656638Y5548376D01*
X1654606Y5545023D01*
X1646529Y5536133D01*
X1637995Y5524093D01*
X1630984Y5511088D01*
X1625650Y5497322D01*
X1622094Y5483047D01*
X1620266Y5468366D01*
X1620266Y5453634D01*
X1622094Y5438952D01*
X1625650Y5424678D01*
X1630984Y5410911D01*
X1637995Y5397906D01*
X1646529Y5385866D01*
X1656435Y5374944D01*
X1667662Y5365343D01*
X1679956Y5357215D01*
X1693164Y5350611D01*
X1707083Y5345684D01*
X1721510Y5342534D01*
X1736191Y5341162D01*
X1750974Y5341620D01*
X1765554Y5343906D01*
X1779727Y5347970D01*
X1793341Y5353710D01*
X1806092Y5361076D01*
X1817878Y5369966D01*
X1828495Y5380228D01*
X1837740Y5391759D01*
X1845513Y5404307D01*
X1851101Y5416499D01*
X1853336Y5419598D01*
X1856587Y5421680D01*
X1860346Y5422392D01*
X2458923Y5422392D01*
X2462377Y5421782D01*
X2465374Y5420055D01*
X2477008Y5405221D01*
X2486812Y5395722D01*
X2497785Y5387644D01*
X2509723Y5381091D01*
X2522474Y5376214D01*
X2535732Y5373014D01*
X2549296Y5371693D01*
X2562910Y5372150D01*
X2576372Y5374386D01*
X2589377Y5378450D01*
X2601772Y5384190D01*
X2613253Y5391505D01*
X2623667Y5400294D01*
X2632811Y5410454D01*
X2640533Y5421680D01*
X2646680Y5433822D01*
X2651150Y5446725D01*
X2653893Y5460085D01*
X2654808Y5473700D01*
X2653893Y5487314D01*
X2651150Y5500674D01*
X2646680Y5513578D01*
X2640533Y5525719D01*
X2632811Y5536946D01*
X2625496Y5545074D01*
X2623464Y5548376D01*
X2622854Y5552236D01*
X2623718Y5555996D01*
X2625953Y5559196D01*
X2629204Y5561279D01*
X2633014Y5562041D01*
X2726385Y5562041D01*
X2730347Y5561279D01*
X2733649Y5559044D01*
X2735834Y5555691D01*
X2736545Y5551779D01*
X2735732Y5547868D01*
X2733497Y5544566D01*
X2731008Y5542178D01*
X2722524Y5531459D01*
X2715564Y5519724D01*
X2710281Y5507177D01*
X2706674Y5494020D01*
X2704846Y5480507D01*
X2704846Y5466892D01*
X2706674Y5453380D01*
X2710281Y5440222D01*
X2715564Y5427675D01*
X2722524Y5415940D01*
X2731008Y5405221D01*
X2740812Y5395722D01*
X2751785Y5387644D01*
X2763723Y5381091D01*
X2776474Y5376214D01*
X2789732Y5373014D01*
X2803296Y5371693D01*
X2816910Y5372150D01*
X2830372Y5374386D01*
X2843377Y5378450D01*
X2855772Y5384190D01*
X2867253Y5391505D01*
X2877667Y5400294D01*
X2886811Y5410454D01*
X2894533Y5421680D01*
X2900680Y5433822D01*
X2905150Y5446725D01*
X2907893Y5460085D01*
X2908808Y5473700D01*
X2907893Y5487314D01*
X2905150Y5500674D01*
X2900680Y5513578D01*
X2894533Y5525719D01*
X2886811Y5536946D01*
X2879496Y5545074D01*
X2877464Y5548376D01*
X2876854Y5552236D01*
X2877718Y5555996D01*
X2879953Y5559196D01*
X2883204Y5561279D01*
X2887014Y5562041D01*
X3489604Y5562041D01*
X3493465Y5561279D01*
X3496716Y5559094D01*
X3498951Y5555843D01*
X3499764Y5551982D01*
X3499053Y5548122D01*
X3496868Y5544820D01*
X3491331Y5539079D01*
X3483305Y5528208D01*
X3476802Y5516321D01*
X3471976Y5503722D01*
X3468827Y5490565D01*
X3467455Y5477103D01*
X3467912Y5463540D01*
X3470198Y5450230D01*
X3474161Y5437276D01*
X3479901Y5425033D01*
X3487165Y5413603D01*
X3495903Y5403291D01*
X3505911Y5394198D01*
X3517087Y5386578D01*
X3529177Y5380431D01*
X3541928Y5376011D01*
X3543452Y5375706D01*
X3547414Y5373928D01*
X3550310Y5370677D01*
X3551580Y5366512D01*
X3550970Y5362244D01*
X3548634Y5358587D01*
X3292601Y5102555D01*
X3289300Y5100320D01*
X3285388Y5099558D01*
X1378458Y5099558D01*
X1370431Y5098745D01*
X1363218Y5096560D01*
X1356512Y5093004D01*
X1350314Y5087924D01*
X1035659Y4773269D01*
X1032357Y4771034D01*
X1028446Y4770272D01*
X1024534Y4771085D01*
X1017727Y4773930D01*
X1003553Y4777994D01*
X988974Y4780280D01*
X974191Y4780686D01*
X959510Y4779365D01*
X945083Y4776216D01*
X931164Y4771288D01*
X917956Y4764684D01*
X905662Y4756556D01*
X894435Y4746955D01*
X884529Y4736033D01*
X875995Y4723993D01*
X868984Y4710988D01*
X863650Y4697222D01*
X860094Y4682947D01*
X858266Y4668266D01*
X858266Y4653534D01*
X860094Y4638852D01*
X863650Y4624578D01*
X868984Y4610811D01*
X875995Y4597806D01*
X884529Y4585766D01*
X894435Y4574844D01*
X905662Y4565243D01*
X917956Y4557115D01*
X931164Y4550511D01*
X945083Y4545584D01*
X959510Y4542434D01*
G37*
G36*
X5017871Y5372404D02*
G01*
X5167528Y5372404D01*
X5173827Y5373116D01*
X5179314Y5374995D01*
X5184190Y5378094D01*
X5188305Y5382209D01*
X5191404Y5387086D01*
X5193284Y5392572D01*
X5193995Y5398871D01*
X5193995Y5548528D01*
X5193284Y5554827D01*
X5191404Y5560314D01*
X5188305Y5565190D01*
X5184190Y5569305D01*
X5179314Y5572404D01*
X5173827Y5574284D01*
X5167528Y5574995D01*
X5017871Y5574995D01*
X5011572Y5574284D01*
X5006086Y5572404D01*
X5001209Y5569305D01*
X4997094Y5565190D01*
X4993995Y5560314D01*
X4992116Y5554827D01*
X4991404Y5548528D01*
X4991404Y5398871D01*
X4992116Y5392572D01*
X4993995Y5387086D01*
X4997094Y5382209D01*
X5001209Y5378094D01*
X5006086Y5374995D01*
X5011572Y5373116D01*
G37*
G36*
X5092700Y5626404D02*
G01*
X5106212Y5627319D01*
X5119471Y5630011D01*
X5132222Y5634431D01*
X5144312Y5640578D01*
X5155488Y5648198D01*
X5165496Y5657291D01*
X5174234Y5667603D01*
X5181498Y5679033D01*
X5187238Y5691276D01*
X5191201Y5704230D01*
X5193487Y5717540D01*
X5193944Y5731103D01*
X5192572Y5744565D01*
X5189423Y5757722D01*
X5184597Y5770321D01*
X5178094Y5782208D01*
X5170068Y5793079D01*
X5160619Y5802833D01*
X5150002Y5811215D01*
X5138369Y5818124D01*
X5125923Y5823356D01*
X5112867Y5826963D01*
X5099456Y5828741D01*
X5085943Y5828741D01*
X5072532Y5826963D01*
X5059476Y5823356D01*
X5047030Y5818124D01*
X5035397Y5811215D01*
X5024780Y5802833D01*
X5015331Y5793079D01*
X5007305Y5782208D01*
X5000802Y5770321D01*
X4995976Y5757722D01*
X4992827Y5744565D01*
X4991455Y5731103D01*
X4991912Y5717540D01*
X4994198Y5704230D01*
X4998161Y5691276D01*
X5003901Y5679033D01*
X5011166Y5667603D01*
X5019903Y5657291D01*
X5029911Y5648198D01*
X5041087Y5640578D01*
X5053177Y5634431D01*
X5065928Y5630011D01*
X5079187Y5627319D01*
G37*
G36*
X5092700Y5880404D02*
G01*
X5106212Y5881319D01*
X5119471Y5884011D01*
X5132222Y5888431D01*
X5144312Y5894578D01*
X5155488Y5902198D01*
X5165496Y5911291D01*
X5174234Y5921603D01*
X5181498Y5933033D01*
X5187238Y5945276D01*
X5191201Y5958230D01*
X5193487Y5971540D01*
X5193944Y5985103D01*
X5192572Y5998565D01*
X5189423Y6011722D01*
X5184597Y6024321D01*
X5178094Y6036208D01*
X5170068Y6047079D01*
X5160619Y6056833D01*
X5150002Y6065215D01*
X5138369Y6072124D01*
X5125923Y6077356D01*
X5112867Y6080963D01*
X5099456Y6082741D01*
X5085943Y6082741D01*
X5072532Y6080963D01*
X5059476Y6077356D01*
X5047030Y6072124D01*
X5035397Y6065215D01*
X5024780Y6056833D01*
X5015331Y6047079D01*
X5007305Y6036208D01*
X5000802Y6024321D01*
X4995976Y6011722D01*
X4992827Y5998565D01*
X4991455Y5985103D01*
X4991912Y5971540D01*
X4994198Y5958230D01*
X4998161Y5945276D01*
X5003901Y5933033D01*
X5011166Y5921603D01*
X5019903Y5911291D01*
X5029911Y5902198D01*
X5041087Y5894578D01*
X5053177Y5888431D01*
X5065928Y5884011D01*
X5079187Y5881319D01*
G37*
G36*
X974191Y6077762D02*
G01*
X988974Y6078220D01*
X1003553Y6080506D01*
X1017727Y6084570D01*
X1031341Y6090310D01*
X1044092Y6097676D01*
X1055878Y6106566D01*
X1066495Y6116828D01*
X1075740Y6128359D01*
X1083513Y6140907D01*
X1089660Y6154318D01*
X1094130Y6168339D01*
X1096873Y6182868D01*
X1097788Y6197600D01*
X1096873Y6212332D01*
X1094130Y6226860D01*
X1089660Y6240881D01*
X1088237Y6243980D01*
X1087323Y6247942D01*
X1088034Y6252006D01*
X1090320Y6255410D01*
X1696669Y6861809D01*
X1701800Y6868007D01*
X1705356Y6874713D01*
X1707540Y6881926D01*
X1708353Y6889953D01*
X1708353Y7801000D01*
X1709115Y7804912D01*
X1711350Y7808214D01*
X1714601Y7810398D01*
X1718513Y7811160D01*
X1722424Y7810398D01*
X1725675Y7808214D01*
X1996693Y7537196D01*
X1998725Y7534300D01*
X1999640Y7530846D01*
X1999335Y7527290D01*
X1995474Y7513320D01*
X1993646Y7499807D01*
X1993646Y7486192D01*
X1995474Y7472680D01*
X1999081Y7459522D01*
X2004364Y7446975D01*
X2011324Y7435240D01*
X2019807Y7424521D01*
X2029612Y7415022D01*
X2040585Y7406944D01*
X2052523Y7400391D01*
X2065274Y7395514D01*
X2078532Y7392314D01*
X2092096Y7390993D01*
X2105710Y7391450D01*
X2119172Y7393686D01*
X2129383Y7396835D01*
X2132990Y7397292D01*
X2136546Y7396429D01*
X2139543Y7394346D01*
X2563164Y6970775D01*
X2569362Y6965645D01*
X2576068Y6962089D01*
X2583281Y6959904D01*
X2591308Y6959092D01*
X3468725Y6959092D01*
X3472484Y6958380D01*
X3475685Y6956298D01*
X3477920Y6953199D01*
X3479901Y6949033D01*
X3487165Y6937603D01*
X3495903Y6927291D01*
X3505911Y6918198D01*
X3517087Y6910578D01*
X3529177Y6904431D01*
X3541928Y6900011D01*
X3555187Y6897319D01*
X3568700Y6896404D01*
X3582212Y6897319D01*
X3595471Y6900011D01*
X3608222Y6904431D01*
X3620312Y6910578D01*
X3631488Y6918198D01*
X3641496Y6927291D01*
X3650234Y6937603D01*
X3657498Y6949033D01*
X3663238Y6961276D01*
X3667201Y6974230D01*
X3669487Y6987540D01*
X3669944Y7001103D01*
X3668572Y7014565D01*
X3665423Y7027722D01*
X3660597Y7040321D01*
X3654094Y7052208D01*
X3646068Y7063079D01*
X3636619Y7072833D01*
X3626002Y7081215D01*
X3614369Y7088124D01*
X3601923Y7093356D01*
X3588867Y7096963D01*
X3575456Y7098741D01*
X3561943Y7098741D01*
X3548532Y7096963D01*
X3535476Y7093356D01*
X3523030Y7088124D01*
X3511397Y7081215D01*
X3500780Y7072833D01*
X3491331Y7063079D01*
X3483305Y7052208D01*
X3477514Y7041591D01*
X3475228Y7038797D01*
X3472129Y7036968D01*
X3468624Y7036308D01*
X2611018Y7036308D01*
X2607106Y7037070D01*
X2603804Y7039305D01*
X2194102Y7449007D01*
X2191969Y7452106D01*
X2191156Y7455763D01*
X2191715Y7459522D01*
X2193950Y7466025D01*
X2196693Y7479385D01*
X2197608Y7493000D01*
X2196693Y7506614D01*
X2193950Y7519974D01*
X2189480Y7532878D01*
X2183333Y7545019D01*
X2175611Y7556246D01*
X2166467Y7566406D01*
X2156053Y7575194D01*
X2144572Y7582509D01*
X2132177Y7588250D01*
X2119172Y7592314D01*
X2105710Y7594549D01*
X2092096Y7595006D01*
X2078532Y7593685D01*
X2065274Y7590485D01*
X2062276Y7589367D01*
X2058466Y7588656D01*
X2054656Y7589469D01*
X2051456Y7591653D01*
X1775917Y7867192D01*
X1773732Y7870494D01*
X1772970Y7874355D01*
X1772970Y7975346D01*
X1772157Y7983372D01*
X1769973Y7990586D01*
X1766417Y7997291D01*
X1761591Y8003133D01*
X1755749Y8007908D01*
X1749094Y8011464D01*
X1741881Y8013649D01*
X1734362Y8014411D01*
X1726793Y8013649D01*
X1719580Y8011464D01*
X1712925Y8007908D01*
X1706676Y8002778D01*
X1642821Y7938922D01*
X1637690Y7932674D01*
X1634134Y7926019D01*
X1631950Y7918805D01*
X1631137Y7910779D01*
X1631137Y7599883D01*
X1630426Y7596174D01*
X1628444Y7592974D01*
X1625396Y7590739D01*
X1621739Y7589774D01*
X1617980Y7590180D01*
X1611172Y7592314D01*
X1597710Y7594549D01*
X1584096Y7595006D01*
X1570532Y7593685D01*
X1557274Y7590485D01*
X1544523Y7585608D01*
X1532585Y7579055D01*
X1521612Y7570978D01*
X1511808Y7561478D01*
X1503324Y7550759D01*
X1496364Y7539024D01*
X1491081Y7526477D01*
X1487474Y7513320D01*
X1485646Y7499807D01*
X1485646Y7486192D01*
X1487474Y7472680D01*
X1491081Y7459522D01*
X1496364Y7446975D01*
X1503324Y7435240D01*
X1511808Y7424521D01*
X1521612Y7415022D01*
X1532585Y7406944D01*
X1544523Y7400391D01*
X1557274Y7395514D01*
X1570532Y7392314D01*
X1584096Y7390993D01*
X1597710Y7391450D01*
X1611172Y7393686D01*
X1617980Y7395819D01*
X1621739Y7396225D01*
X1625396Y7395260D01*
X1628444Y7393025D01*
X1630426Y7389825D01*
X1631137Y7386116D01*
X1631137Y7179868D01*
X1630273Y7175804D01*
X1627835Y7172401D01*
X1624228Y7170267D01*
X1620113Y7169759D01*
X1612950Y7170369D01*
X1609547Y7171283D01*
X1606651Y7173315D01*
X1387805Y7392162D01*
X1385417Y7395972D01*
X1384909Y7400442D01*
X1386382Y7404709D01*
X1389532Y7407909D01*
X1394053Y7410805D01*
X1404467Y7419594D01*
X1413611Y7429753D01*
X1421333Y7440980D01*
X1427480Y7453122D01*
X1431950Y7466025D01*
X1434693Y7479385D01*
X1435608Y7493000D01*
X1434693Y7506614D01*
X1431950Y7519974D01*
X1427480Y7532878D01*
X1421333Y7545019D01*
X1413611Y7556246D01*
X1404467Y7566406D01*
X1394053Y7575194D01*
X1382572Y7582509D01*
X1370177Y7588250D01*
X1357172Y7592314D01*
X1343710Y7594549D01*
X1330096Y7595006D01*
X1316532Y7593685D01*
X1303274Y7590485D01*
X1290523Y7585608D01*
X1278585Y7579055D01*
X1267612Y7570978D01*
X1257808Y7561478D01*
X1249324Y7550759D01*
X1242364Y7539024D01*
X1237081Y7526477D01*
X1233474Y7513320D01*
X1231646Y7499807D01*
X1231646Y7486192D01*
X1233474Y7472680D01*
X1237081Y7459522D01*
X1242364Y7446975D01*
X1249324Y7435240D01*
X1257808Y7424521D01*
X1267612Y7415022D01*
X1278585Y7406944D01*
X1289608Y7400899D01*
X1292199Y7398867D01*
X1294028Y7396124D01*
X1294841Y7392974D01*
X1295704Y7384338D01*
X1297889Y7377125D01*
X1301445Y7370470D01*
X1306576Y7364222D01*
X1552092Y7118705D01*
X1554073Y7115809D01*
X1554988Y7112406D01*
X1555699Y7104380D01*
X1558239Y7094931D01*
X1562404Y7085990D01*
X1568043Y7077964D01*
X1575003Y7071004D01*
X1583029Y7065365D01*
X1591919Y7061250D01*
X1601419Y7058710D01*
X1611223Y7057847D01*
X1620113Y7058609D01*
X1624228Y7058101D01*
X1627835Y7055967D01*
X1630273Y7052564D01*
X1631137Y7048500D01*
X1631137Y6909663D01*
X1630375Y6905752D01*
X1628139Y6902450D01*
X1035659Y6309969D01*
X1032357Y6307734D01*
X1028446Y6306972D01*
X1024534Y6307785D01*
X1017727Y6310630D01*
X1003553Y6314694D01*
X988974Y6316980D01*
X974191Y6317386D01*
X959510Y6316065D01*
X945083Y6312916D01*
X931164Y6307988D01*
X917956Y6301384D01*
X905662Y6293256D01*
X894435Y6283655D01*
X884529Y6272733D01*
X875995Y6260693D01*
X868984Y6247688D01*
X863650Y6233922D01*
X860094Y6219647D01*
X858266Y6204966D01*
X858266Y6190234D01*
X860094Y6175552D01*
X863650Y6161278D01*
X868984Y6147511D01*
X875995Y6134506D01*
X884529Y6122466D01*
X894435Y6111544D01*
X905662Y6101943D01*
X917956Y6093815D01*
X931164Y6087211D01*
X945083Y6082284D01*
X959510Y6079134D01*
G37*
G36*
X5048656Y6144717D02*
G01*
X5048656Y6191656D01*
X5001717Y6191656D01*
X5003901Y6187033D01*
X5011166Y6175603D01*
X5019903Y6165291D01*
X5029911Y6156198D01*
X5041087Y6148578D01*
G37*
G36*
X5136743Y6144717D02*
G01*
X5144312Y6148578D01*
X5155488Y6156198D01*
X5165496Y6165291D01*
X5174234Y6175603D01*
X5181498Y6187033D01*
X5183682Y6191656D01*
X5136743Y6191656D01*
G37*
G36*
X5001615Y6279743D02*
G01*
X5048656Y6279743D01*
X5048656Y6326784D01*
X5047030Y6326124D01*
X5035397Y6319215D01*
X5024780Y6310833D01*
X5015331Y6301079D01*
X5007305Y6290208D01*
G37*
G36*
X5136743Y6279743D02*
G01*
X5183784Y6279743D01*
X5178094Y6290208D01*
X5170068Y6301079D01*
X5160619Y6310833D01*
X5150002Y6319215D01*
X5138369Y6326124D01*
X5136743Y6326784D01*
G37*
G36*
X5092700Y6388404D02*
G01*
X5106212Y6389319D01*
X5119471Y6392011D01*
X5132222Y6396431D01*
X5144312Y6402578D01*
X5155488Y6410198D01*
X5165496Y6419291D01*
X5174234Y6429603D01*
X5181498Y6441033D01*
X5187238Y6453276D01*
X5191201Y6466230D01*
X5193487Y6479540D01*
X5193944Y6493103D01*
X5192572Y6506565D01*
X5189423Y6519722D01*
X5184597Y6532321D01*
X5178094Y6544208D01*
X5170068Y6555079D01*
X5160619Y6564833D01*
X5150002Y6573215D01*
X5138369Y6580124D01*
X5125923Y6585356D01*
X5112867Y6588963D01*
X5099456Y6590741D01*
X5085943Y6590741D01*
X5072532Y6588963D01*
X5059476Y6585356D01*
X5047030Y6580124D01*
X5035397Y6573215D01*
X5024780Y6564833D01*
X5015331Y6555079D01*
X5007305Y6544208D01*
X5000802Y6532321D01*
X4995976Y6519722D01*
X4992827Y6506565D01*
X4991455Y6493103D01*
X4991912Y6479540D01*
X4994198Y6466230D01*
X4998161Y6453276D01*
X5003901Y6441033D01*
X5011166Y6429603D01*
X5019903Y6419291D01*
X5029911Y6410198D01*
X5041087Y6402578D01*
X5053177Y6396431D01*
X5065928Y6392011D01*
X5079187Y6389319D01*
G37*
G36*
X3568700Y6642404D02*
G01*
X3582212Y6643319D01*
X3595471Y6646011D01*
X3608222Y6650431D01*
X3620312Y6656578D01*
X3631488Y6664198D01*
X3641496Y6673291D01*
X3650234Y6683603D01*
X3657498Y6695033D01*
X3663238Y6707276D01*
X3667201Y6720230D01*
X3669487Y6733540D01*
X3669944Y6747103D01*
X3668572Y6760565D01*
X3665423Y6773722D01*
X3660597Y6786321D01*
X3654094Y6798208D01*
X3646068Y6809079D01*
X3636619Y6818833D01*
X3626002Y6827215D01*
X3614369Y6834124D01*
X3601923Y6839356D01*
X3588867Y6842963D01*
X3575456Y6844741D01*
X3561943Y6844741D01*
X3548532Y6842963D01*
X3535476Y6839356D01*
X3523030Y6834124D01*
X3511397Y6827215D01*
X3500780Y6818833D01*
X3491331Y6809079D01*
X3483305Y6798208D01*
X3476802Y6786321D01*
X3471976Y6773722D01*
X3468827Y6760565D01*
X3467455Y6747103D01*
X3467912Y6733540D01*
X3470198Y6720230D01*
X3474161Y6707276D01*
X3479901Y6695033D01*
X3487165Y6683603D01*
X3495903Y6673291D01*
X3505911Y6664198D01*
X3517087Y6656578D01*
X3529177Y6650431D01*
X3541928Y6646011D01*
X3555187Y6643319D01*
G37*
G36*
X3568700Y7150404D02*
G01*
X3582212Y7151319D01*
X3595471Y7154011D01*
X3608222Y7158431D01*
X3620312Y7164578D01*
X3631488Y7172198D01*
X3641496Y7181291D01*
X3650234Y7191603D01*
X3657498Y7203033D01*
X3663238Y7215276D01*
X3667201Y7228230D01*
X3669487Y7241540D01*
X3669944Y7255103D01*
X3668572Y7268565D01*
X3665423Y7281722D01*
X3660597Y7294321D01*
X3654094Y7306208D01*
X3646068Y7317079D01*
X3636619Y7326833D01*
X3626002Y7335215D01*
X3614369Y7342124D01*
X3601923Y7347356D01*
X3588867Y7350963D01*
X3575456Y7352741D01*
X3561943Y7352741D01*
X3556406Y7352030D01*
X3552139Y7352334D01*
X3548379Y7354417D01*
X3545840Y7357872D01*
X3544925Y7362037D01*
X3545789Y7366253D01*
X3548227Y7371588D01*
X3552799Y7386269D01*
X3554628Y7396327D01*
X3555949Y7399781D01*
X3558387Y7402525D01*
X3561638Y7404201D01*
X3565296Y7404658D01*
X3568700Y7404404D01*
X3582212Y7405319D01*
X3595471Y7408011D01*
X3608222Y7412431D01*
X3620312Y7418578D01*
X3631488Y7426198D01*
X3641496Y7435291D01*
X3650234Y7445603D01*
X3657498Y7457033D01*
X3663238Y7469276D01*
X3667201Y7482230D01*
X3669487Y7495540D01*
X3669944Y7509103D01*
X3668572Y7522565D01*
X3665423Y7535722D01*
X3660597Y7548321D01*
X3654094Y7560208D01*
X3646068Y7571079D01*
X3636619Y7580833D01*
X3626002Y7589215D01*
X3614369Y7596124D01*
X3601923Y7601356D01*
X3588867Y7604963D01*
X3575456Y7606741D01*
X3561943Y7606741D01*
X3548532Y7604963D01*
X3535476Y7601356D01*
X3523030Y7596124D01*
X3511397Y7589215D01*
X3500780Y7580833D01*
X3491331Y7571079D01*
X3483305Y7560208D01*
X3476802Y7548321D01*
X3475736Y7545476D01*
X3473704Y7542225D01*
X3470656Y7539990D01*
X3466998Y7538974D01*
X3463239Y7539431D01*
X3459530Y7540599D01*
X3444392Y7543342D01*
X3429000Y7544308D01*
X3413607Y7543342D01*
X3398469Y7540599D01*
X3383787Y7536027D01*
X3369767Y7529677D01*
X3356559Y7521702D01*
X3344468Y7512202D01*
X3333597Y7501331D01*
X3324098Y7489240D01*
X3316122Y7476032D01*
X3309772Y7462012D01*
X3305200Y7447330D01*
X3302457Y7432192D01*
X3301492Y7416800D01*
X3302457Y7401407D01*
X3305200Y7386269D01*
X3309772Y7371588D01*
X3316122Y7357567D01*
X3324098Y7344359D01*
X3333597Y7332268D01*
X3344468Y7321397D01*
X3356559Y7311898D01*
X3361080Y7309154D01*
X3364229Y7306157D01*
X3365855Y7302093D01*
X3365601Y7297724D01*
X3363569Y7293864D01*
X3360064Y7291222D01*
X3355797Y7290308D01*
X2865018Y7290308D01*
X2861106Y7291070D01*
X2857804Y7293305D01*
X2702102Y7449007D01*
X2699969Y7452106D01*
X2699156Y7455763D01*
X2699715Y7459522D01*
X2701950Y7466025D01*
X2704693Y7479385D01*
X2705608Y7493000D01*
X2704693Y7506614D01*
X2701950Y7519974D01*
X2697480Y7532878D01*
X2691333Y7545019D01*
X2683611Y7556246D01*
X2674467Y7566406D01*
X2664053Y7575194D01*
X2652572Y7582509D01*
X2640177Y7588250D01*
X2627172Y7592314D01*
X2613710Y7594549D01*
X2611120Y7594650D01*
X2607411Y7595514D01*
X2604262Y7597648D01*
X2313635Y7888224D01*
X2307437Y7893354D01*
X2300732Y7896910D01*
X2293518Y7899095D01*
X2286000Y7899857D01*
X2278481Y7899095D01*
X2271268Y7896910D01*
X2264562Y7893354D01*
X2258720Y7888579D01*
X2253945Y7882737D01*
X2250389Y7876031D01*
X2248204Y7868818D01*
X2247442Y7861300D01*
X2248204Y7853781D01*
X2250389Y7846568D01*
X2253945Y7839862D01*
X2259076Y7833664D01*
X2522931Y7569809D01*
X2525014Y7566761D01*
X2525877Y7563205D01*
X2525420Y7559548D01*
X2523693Y7556296D01*
X2519324Y7550759D01*
X2512364Y7539024D01*
X2507081Y7526477D01*
X2503474Y7513320D01*
X2501646Y7499807D01*
X2501646Y7486192D01*
X2503474Y7472680D01*
X2507081Y7459522D01*
X2512364Y7446975D01*
X2519324Y7435240D01*
X2527808Y7424521D01*
X2537612Y7415022D01*
X2548585Y7406944D01*
X2560523Y7400391D01*
X2573274Y7395514D01*
X2586532Y7392314D01*
X2600096Y7390993D01*
X2613710Y7391450D01*
X2627172Y7393686D01*
X2637383Y7396835D01*
X2640990Y7397292D01*
X2644546Y7396429D01*
X2647543Y7394346D01*
X2817164Y7224775D01*
X2823362Y7219645D01*
X2830068Y7216089D01*
X2837281Y7213904D01*
X2845308Y7213092D01*
X3468725Y7213092D01*
X3472484Y7212380D01*
X3475685Y7210298D01*
X3477920Y7207199D01*
X3479901Y7203033D01*
X3487165Y7191603D01*
X3495903Y7181291D01*
X3505911Y7172198D01*
X3517087Y7164578D01*
X3529177Y7158431D01*
X3541928Y7154011D01*
X3555187Y7151319D01*
G37*
G36*
X2854096Y7390993D02*
G01*
X2867710Y7391450D01*
X2881172Y7393686D01*
X2894177Y7397750D01*
X2906572Y7403490D01*
X2918053Y7410805D01*
X2928467Y7419594D01*
X2937611Y7429753D01*
X2945333Y7440980D01*
X2951480Y7453122D01*
X2955950Y7466025D01*
X2958693Y7479385D01*
X2959608Y7493000D01*
X2958693Y7506614D01*
X2955950Y7519974D01*
X2951480Y7532878D01*
X2945333Y7545019D01*
X2937611Y7556246D01*
X2928467Y7566406D01*
X2918053Y7575194D01*
X2906572Y7582509D01*
X2894177Y7588250D01*
X2881172Y7592314D01*
X2867710Y7594549D01*
X2854096Y7595006D01*
X2840532Y7593685D01*
X2827274Y7590485D01*
X2814523Y7585608D01*
X2802585Y7579055D01*
X2791612Y7570978D01*
X2781808Y7561478D01*
X2773324Y7550759D01*
X2766364Y7539024D01*
X2761081Y7526477D01*
X2757474Y7513320D01*
X2755646Y7499807D01*
X2755646Y7486192D01*
X2757474Y7472680D01*
X2761081Y7459522D01*
X2766364Y7446975D01*
X2773324Y7435240D01*
X2781808Y7424521D01*
X2791612Y7415022D01*
X2802585Y7406944D01*
X2814523Y7400391D01*
X2827274Y7395514D01*
X2840532Y7392314D01*
G37*
G36*
X2346096Y7390993D02*
G01*
X2359710Y7391450D01*
X2373172Y7393686D01*
X2386177Y7397750D01*
X2398572Y7403490D01*
X2410053Y7410805D01*
X2420467Y7419594D01*
X2429611Y7429753D01*
X2437333Y7440980D01*
X2443480Y7453122D01*
X2447950Y7466025D01*
X2450693Y7479385D01*
X2451608Y7493000D01*
X2450693Y7506614D01*
X2447950Y7519974D01*
X2443480Y7532878D01*
X2437333Y7545019D01*
X2429611Y7556246D01*
X2420467Y7566406D01*
X2410053Y7575194D01*
X2398572Y7582509D01*
X2386177Y7588250D01*
X2373172Y7592314D01*
X2359710Y7594549D01*
X2346096Y7595006D01*
X2332532Y7593685D01*
X2319274Y7590485D01*
X2306523Y7585608D01*
X2294585Y7579055D01*
X2283612Y7570978D01*
X2273808Y7561478D01*
X2265324Y7550759D01*
X2258364Y7539024D01*
X2253081Y7526477D01*
X2249474Y7513320D01*
X2247646Y7499807D01*
X2247646Y7486192D01*
X2249474Y7472680D01*
X2253081Y7459522D01*
X2258364Y7446975D01*
X2265324Y7435240D01*
X2273808Y7424521D01*
X2283612Y7415022D01*
X2294585Y7406944D01*
X2306523Y7400391D01*
X2319274Y7395514D01*
X2332532Y7392314D01*
G37*
G36*
X3108096Y7390993D02*
G01*
X3121710Y7391450D01*
X3135172Y7393686D01*
X3148177Y7397750D01*
X3160572Y7403490D01*
X3172053Y7410805D01*
X3182467Y7419594D01*
X3191611Y7429753D01*
X3199333Y7440980D01*
X3205480Y7453122D01*
X3209950Y7466025D01*
X3212693Y7479385D01*
X3213608Y7493000D01*
X3212693Y7506614D01*
X3209950Y7519974D01*
X3205480Y7532878D01*
X3199333Y7545019D01*
X3191611Y7556246D01*
X3182467Y7566406D01*
X3172053Y7575194D01*
X3160572Y7582509D01*
X3148177Y7588250D01*
X3135172Y7592314D01*
X3121710Y7594549D01*
X3108096Y7595006D01*
X3094532Y7593685D01*
X3081274Y7590485D01*
X3068523Y7585608D01*
X3056585Y7579055D01*
X3045612Y7570978D01*
X3035808Y7561478D01*
X3027324Y7550759D01*
X3020364Y7539024D01*
X3015081Y7526477D01*
X3011474Y7513320D01*
X3009646Y7499807D01*
X3009646Y7486192D01*
X3011474Y7472680D01*
X3015081Y7459522D01*
X3020364Y7446975D01*
X3027324Y7435240D01*
X3035808Y7424521D01*
X3045612Y7415022D01*
X3056585Y7406944D01*
X3068523Y7400391D01*
X3081274Y7395514D01*
X3094532Y7392314D01*
G37*
G36*
X3568700Y7658404D02*
G01*
X3582212Y7659319D01*
X3595471Y7662011D01*
X3608222Y7666431D01*
X3620312Y7672578D01*
X3631488Y7680198D01*
X3641496Y7689291D01*
X3650234Y7699603D01*
X3657498Y7711033D01*
X3663238Y7723276D01*
X3667201Y7736230D01*
X3669487Y7749540D01*
X3669944Y7763103D01*
X3668572Y7776565D01*
X3665423Y7789722D01*
X3660597Y7802321D01*
X3654094Y7814208D01*
X3646068Y7825079D01*
X3636619Y7834833D01*
X3626002Y7843215D01*
X3614369Y7850124D01*
X3601923Y7855356D01*
X3588867Y7858963D01*
X3575456Y7860741D01*
X3561943Y7860741D01*
X3548532Y7858963D01*
X3535476Y7855356D01*
X3523030Y7850124D01*
X3511397Y7843215D01*
X3500780Y7834833D01*
X3491331Y7825079D01*
X3483305Y7814208D01*
X3476802Y7802321D01*
X3471976Y7789722D01*
X3468827Y7776565D01*
X3467455Y7763103D01*
X3467912Y7749540D01*
X3470198Y7736230D01*
X3474161Y7723276D01*
X3479901Y7711033D01*
X3487165Y7699603D01*
X3495903Y7689291D01*
X3505911Y7680198D01*
X3517087Y7672578D01*
X3529177Y7666431D01*
X3541928Y7662011D01*
X3555187Y7659319D01*
G37*
G36*
X5092700Y7912404D02*
G01*
X5106212Y7913319D01*
X5119471Y7916011D01*
X5132222Y7920431D01*
X5144312Y7926578D01*
X5155488Y7934198D01*
X5165496Y7943291D01*
X5174234Y7953603D01*
X5181498Y7965033D01*
X5187238Y7977276D01*
X5191201Y7990230D01*
X5193487Y8003540D01*
X5193944Y8017103D01*
X5192572Y8030565D01*
X5189423Y8043722D01*
X5184597Y8056321D01*
X5178094Y8068208D01*
X5170068Y8079079D01*
X5160619Y8088833D01*
X5150002Y8097215D01*
X5138369Y8104124D01*
X5125923Y8109356D01*
X5112867Y8112963D01*
X5099456Y8114741D01*
X5085943Y8114741D01*
X5072532Y8112963D01*
X5059476Y8109356D01*
X5047030Y8104124D01*
X5035397Y8097215D01*
X5024780Y8088833D01*
X5015331Y8079079D01*
X5007305Y8068208D01*
X5000802Y8056321D01*
X4995976Y8043722D01*
X4992827Y8030565D01*
X4991455Y8017103D01*
X4991912Y8003540D01*
X4994198Y7990230D01*
X4998161Y7977276D01*
X5003901Y7965033D01*
X5011166Y7953603D01*
X5019903Y7943291D01*
X5029911Y7934198D01*
X5041087Y7926578D01*
X5053177Y7920431D01*
X5065928Y7916011D01*
X5079187Y7913319D01*
G37*
G36*
X3568700Y7912404D02*
G01*
X3582212Y7913319D01*
X3595471Y7916011D01*
X3608222Y7920431D01*
X3620312Y7926578D01*
X3631488Y7934198D01*
X3641496Y7943291D01*
X3650234Y7953603D01*
X3657498Y7965033D01*
X3663238Y7977276D01*
X3667201Y7990230D01*
X3669487Y8003540D01*
X3669944Y8017103D01*
X3668572Y8030565D01*
X3665423Y8043722D01*
X3660597Y8056321D01*
X3654094Y8068208D01*
X3646068Y8079079D01*
X3636619Y8088833D01*
X3626002Y8097215D01*
X3614369Y8104124D01*
X3601923Y8109356D01*
X3588867Y8112963D01*
X3575456Y8114741D01*
X3561943Y8114741D01*
X3548532Y8112963D01*
X3535476Y8109356D01*
X3523030Y8104124D01*
X3511397Y8097215D01*
X3500780Y8088833D01*
X3491331Y8079079D01*
X3483305Y8068208D01*
X3476802Y8056321D01*
X3471976Y8043722D01*
X3468827Y8030565D01*
X3467455Y8017103D01*
X3467912Y8003540D01*
X3470198Y7990230D01*
X3474161Y7977276D01*
X3479901Y7965033D01*
X3487165Y7953603D01*
X3495903Y7943291D01*
X3505911Y7934198D01*
X3517087Y7926578D01*
X3529177Y7920431D01*
X3541928Y7916011D01*
X3555187Y7913319D01*
G37*
G36*
X5092700Y8166404D02*
G01*
X5106212Y8167319D01*
X5119471Y8170011D01*
X5132222Y8174431D01*
X5144312Y8180578D01*
X5155488Y8188198D01*
X5165496Y8197291D01*
X5174234Y8207603D01*
X5181498Y8219033D01*
X5187238Y8231276D01*
X5191201Y8244230D01*
X5193487Y8257540D01*
X5193944Y8271103D01*
X5192572Y8284565D01*
X5189423Y8297722D01*
X5184597Y8310321D01*
X5178094Y8322208D01*
X5170068Y8333079D01*
X5160619Y8342833D01*
X5150002Y8351215D01*
X5138369Y8358124D01*
X5125923Y8363356D01*
X5112867Y8366963D01*
X5099456Y8368741D01*
X5085943Y8368741D01*
X5072532Y8366963D01*
X5059476Y8363356D01*
X5047030Y8358124D01*
X5035397Y8351215D01*
X5024780Y8342833D01*
X5015331Y8333079D01*
X5007305Y8322208D01*
X5000802Y8310321D01*
X4995976Y8297722D01*
X4992827Y8284565D01*
X4991455Y8271103D01*
X4991912Y8257540D01*
X4994198Y8244230D01*
X4998161Y8231276D01*
X5003901Y8219033D01*
X5011166Y8207603D01*
X5019903Y8197291D01*
X5029911Y8188198D01*
X5041087Y8180578D01*
X5053177Y8174431D01*
X5065928Y8170011D01*
X5079187Y8167319D01*
G37*
G36*
X3568700Y8166404D02*
G01*
X3582212Y8167319D01*
X3595471Y8170011D01*
X3608222Y8174431D01*
X3620312Y8180578D01*
X3631488Y8188198D01*
X3641496Y8197291D01*
X3650234Y8207603D01*
X3657498Y8219033D01*
X3663238Y8231276D01*
X3667201Y8244230D01*
X3669487Y8257540D01*
X3669944Y8271103D01*
X3668572Y8284565D01*
X3665423Y8297722D01*
X3660597Y8310321D01*
X3654094Y8322208D01*
X3646068Y8333079D01*
X3636619Y8342833D01*
X3626002Y8351215D01*
X3614369Y8358124D01*
X3601923Y8363356D01*
X3588867Y8366963D01*
X3575456Y8368741D01*
X3561943Y8368741D01*
X3548532Y8366963D01*
X3535476Y8363356D01*
X3523030Y8358124D01*
X3511397Y8351215D01*
X3500780Y8342833D01*
X3491331Y8333079D01*
X3483305Y8322208D01*
X3476802Y8310321D01*
X3471976Y8297722D01*
X3468827Y8284565D01*
X3467455Y8271103D01*
X3467912Y8257540D01*
X3470198Y8244230D01*
X3474161Y8231276D01*
X3479901Y8219033D01*
X3487165Y8207603D01*
X3495903Y8197291D01*
X3505911Y8188198D01*
X3517087Y8180578D01*
X3529177Y8174431D01*
X3541928Y8170011D01*
X3555187Y8167319D01*
G37*
G36*
X3568700Y8420404D02*
G01*
X3582212Y8421319D01*
X3595471Y8424011D01*
X3608222Y8428431D01*
X3620312Y8434578D01*
X3631488Y8442198D01*
X3641496Y8451291D01*
X3650234Y8461603D01*
X3657498Y8473033D01*
X3663238Y8485276D01*
X3667201Y8498230D01*
X3669487Y8511540D01*
X3669944Y8525103D01*
X3668572Y8538565D01*
X3665423Y8551722D01*
X3660597Y8564321D01*
X3654094Y8576208D01*
X3646068Y8587079D01*
X3636619Y8596833D01*
X3626002Y8605215D01*
X3614369Y8612124D01*
X3601923Y8617356D01*
X3588867Y8620963D01*
X3575456Y8622741D01*
X3561943Y8622741D01*
X3548532Y8620963D01*
X3535476Y8617356D01*
X3523030Y8612124D01*
X3511397Y8605215D01*
X3500780Y8596833D01*
X3491331Y8587079D01*
X3483305Y8576208D01*
X3476802Y8564321D01*
X3471976Y8551722D01*
X3468827Y8538565D01*
X3467455Y8525103D01*
X3467912Y8511540D01*
X3470198Y8498230D01*
X3474161Y8485276D01*
X3479901Y8473033D01*
X3487165Y8461603D01*
X3495903Y8451291D01*
X3505911Y8442198D01*
X3517087Y8434578D01*
X3529177Y8428431D01*
X3541928Y8424011D01*
X3555187Y8421319D01*
G37*
G36*
X5092700Y8420404D02*
G01*
X5106212Y8421319D01*
X5119471Y8424011D01*
X5132222Y8428431D01*
X5144312Y8434578D01*
X5155488Y8442198D01*
X5165496Y8451291D01*
X5174234Y8461603D01*
X5181498Y8473033D01*
X5187238Y8485276D01*
X5191201Y8498230D01*
X5193487Y8511540D01*
X5193944Y8525103D01*
X5192572Y8538565D01*
X5189423Y8551722D01*
X5184597Y8564321D01*
X5178094Y8576208D01*
X5170068Y8587079D01*
X5160619Y8596833D01*
X5150002Y8605215D01*
X5138369Y8612124D01*
X5125923Y8617356D01*
X5112867Y8620963D01*
X5099456Y8622741D01*
X5085943Y8622741D01*
X5072532Y8620963D01*
X5059476Y8617356D01*
X5047030Y8612124D01*
X5035397Y8605215D01*
X5024780Y8596833D01*
X5015331Y8587079D01*
X5007305Y8576208D01*
X5000802Y8564321D01*
X4995976Y8551722D01*
X4992827Y8538565D01*
X4991455Y8525103D01*
X4991912Y8511540D01*
X4994198Y8498230D01*
X4998161Y8485276D01*
X5003901Y8473033D01*
X5011166Y8461603D01*
X5019903Y8451291D01*
X5029911Y8442198D01*
X5041087Y8434578D01*
X5053177Y8428431D01*
X5065928Y8424011D01*
X5079187Y8421319D01*
G37*
G36*
X1465021Y8460282D02*
G01*
X1483055Y8461705D01*
X1500886Y8464956D01*
X1518259Y8469985D01*
X1535023Y8476843D01*
X1550974Y8485327D01*
X1566011Y8495436D01*
X1579880Y8507018D01*
X1592529Y8519972D01*
X1603756Y8534146D01*
X1613458Y8549436D01*
X1621536Y8565642D01*
X1627936Y8582558D01*
X1632559Y8600033D01*
X1635302Y8617915D01*
X1636268Y8636000D01*
X1635302Y8654084D01*
X1632559Y8671966D01*
X1627936Y8689441D01*
X1621536Y8706358D01*
X1613458Y8722563D01*
X1603756Y8737854D01*
X1592529Y8752027D01*
X1579880Y8764981D01*
X1566011Y8776563D01*
X1550974Y8786672D01*
X1535023Y8795156D01*
X1518259Y8802014D01*
X1500886Y8807043D01*
X1483055Y8810294D01*
X1465021Y8811717D01*
X1446936Y8811209D01*
X1429004Y8808923D01*
X1411376Y8804757D01*
X1394307Y8798814D01*
X1377899Y8791143D01*
X1362405Y8781796D01*
X1347927Y8770975D01*
X1334617Y8758682D01*
X1322679Y8745067D01*
X1312214Y8730335D01*
X1303274Y8714587D01*
X1296060Y8697976D01*
X1290523Y8680754D01*
X1286814Y8663025D01*
X1284986Y8645042D01*
X1284986Y8626957D01*
X1286814Y8608974D01*
X1290523Y8591245D01*
X1296060Y8574024D01*
X1303274Y8557412D01*
X1312214Y8541664D01*
X1322679Y8526932D01*
X1334617Y8513318D01*
X1347927Y8501024D01*
X1362405Y8490204D01*
X1377899Y8480856D01*
X1394307Y8473186D01*
X1411376Y8467242D01*
X1429004Y8463076D01*
X1446936Y8460790D01*
G37*
G36*
X2989021Y8460282D02*
G01*
X3007055Y8461705D01*
X3024886Y8464956D01*
X3042259Y8469985D01*
X3059023Y8476843D01*
X3074974Y8485327D01*
X3090011Y8495436D01*
X3103880Y8507018D01*
X3116529Y8519972D01*
X3127756Y8534146D01*
X3137458Y8549436D01*
X3145536Y8565642D01*
X3151936Y8582558D01*
X3156559Y8600033D01*
X3159302Y8617915D01*
X3160268Y8636000D01*
X3159302Y8654084D01*
X3156559Y8671966D01*
X3151936Y8689441D01*
X3145536Y8706358D01*
X3137458Y8722563D01*
X3127756Y8737854D01*
X3116529Y8752027D01*
X3103880Y8764981D01*
X3090011Y8776563D01*
X3074974Y8786672D01*
X3059023Y8795156D01*
X3042259Y8802014D01*
X3024886Y8807043D01*
X3007055Y8810294D01*
X2989021Y8811717D01*
X2970936Y8811209D01*
X2953004Y8808923D01*
X2935376Y8804757D01*
X2918307Y8798814D01*
X2901899Y8791143D01*
X2886405Y8781796D01*
X2871927Y8770975D01*
X2858617Y8758682D01*
X2846679Y8745067D01*
X2836214Y8730335D01*
X2827274Y8714587D01*
X2820060Y8697976D01*
X2814523Y8680754D01*
X2810814Y8663025D01*
X2808986Y8645042D01*
X2808986Y8626957D01*
X2810814Y8608974D01*
X2814523Y8591245D01*
X2820060Y8574024D01*
X2827274Y8557412D01*
X2836214Y8541664D01*
X2846679Y8526932D01*
X2858617Y8513318D01*
X2871927Y8501024D01*
X2886405Y8490204D01*
X2901899Y8480856D01*
X2918307Y8473186D01*
X2935376Y8467242D01*
X2953004Y8463076D01*
X2970936Y8460790D01*
G37*
G36*
X5092700Y8674404D02*
G01*
X5106212Y8675319D01*
X5119471Y8678011D01*
X5132222Y8682431D01*
X5144312Y8688578D01*
X5155488Y8696198D01*
X5165496Y8705291D01*
X5174234Y8715603D01*
X5181498Y8727033D01*
X5187238Y8739276D01*
X5191201Y8752230D01*
X5193487Y8765540D01*
X5193944Y8779103D01*
X5192572Y8792565D01*
X5189423Y8805722D01*
X5184597Y8818321D01*
X5178094Y8830208D01*
X5170068Y8841079D01*
X5160619Y8850833D01*
X5150002Y8859215D01*
X5138369Y8866124D01*
X5125923Y8871356D01*
X5112867Y8874963D01*
X5099456Y8876741D01*
X5085943Y8876741D01*
X5072532Y8874963D01*
X5059476Y8871356D01*
X5047030Y8866124D01*
X5035397Y8859215D01*
X5024780Y8850833D01*
X5015331Y8841079D01*
X5007305Y8830208D01*
X5000802Y8818321D01*
X4995976Y8805722D01*
X4992827Y8792565D01*
X4991455Y8779103D01*
X4991912Y8765540D01*
X4994198Y8752230D01*
X4998161Y8739276D01*
X5003901Y8727033D01*
X5011166Y8715603D01*
X5019903Y8705291D01*
X5029911Y8696198D01*
X5041087Y8688578D01*
X5053177Y8682431D01*
X5065928Y8678011D01*
X5079187Y8675319D01*
G37*
G36*
X3568700Y8674404D02*
G01*
X3582212Y8675319D01*
X3595471Y8678011D01*
X3608222Y8682431D01*
X3620312Y8688578D01*
X3631488Y8696198D01*
X3641496Y8705291D01*
X3650234Y8715603D01*
X3657498Y8727033D01*
X3663238Y8739276D01*
X3667201Y8752230D01*
X3669487Y8765540D01*
X3669944Y8779103D01*
X3668572Y8792565D01*
X3665423Y8805722D01*
X3660597Y8818321D01*
X3654094Y8830208D01*
X3646068Y8841079D01*
X3636619Y8850833D01*
X3626002Y8859215D01*
X3614369Y8866124D01*
X3601923Y8871356D01*
X3588867Y8874963D01*
X3575456Y8876741D01*
X3561943Y8876741D01*
X3548532Y8874963D01*
X3535476Y8871356D01*
X3523030Y8866124D01*
X3511397Y8859215D01*
X3500780Y8850833D01*
X3491331Y8841079D01*
X3483305Y8830208D01*
X3476802Y8818321D01*
X3471976Y8805722D01*
X3468827Y8792565D01*
X3467455Y8779103D01*
X3467912Y8765540D01*
X3470198Y8752230D01*
X3474161Y8739276D01*
X3479901Y8727033D01*
X3487165Y8715603D01*
X3495903Y8705291D01*
X3505911Y8696198D01*
X3517087Y8688578D01*
X3529177Y8682431D01*
X3541928Y8678011D01*
X3555187Y8675319D01*
G37*
G36*
X5092700Y8928404D02*
G01*
X5106212Y8929319D01*
X5119471Y8932011D01*
X5132222Y8936431D01*
X5144312Y8942578D01*
X5155488Y8950198D01*
X5165496Y8959291D01*
X5174234Y8969603D01*
X5181498Y8981033D01*
X5187238Y8993276D01*
X5191201Y9006230D01*
X5193487Y9019540D01*
X5193944Y9033103D01*
X5192572Y9046565D01*
X5189423Y9059722D01*
X5184597Y9072321D01*
X5178094Y9084208D01*
X5170068Y9095079D01*
X5160619Y9104833D01*
X5150002Y9113215D01*
X5138369Y9120124D01*
X5125923Y9125356D01*
X5112867Y9128963D01*
X5099456Y9130741D01*
X5085943Y9130741D01*
X5072532Y9128963D01*
X5059476Y9125356D01*
X5047030Y9120124D01*
X5035397Y9113215D01*
X5024780Y9104833D01*
X5015331Y9095079D01*
X5007305Y9084208D01*
X5000802Y9072321D01*
X4995976Y9059722D01*
X4992827Y9046565D01*
X4991455Y9033103D01*
X4991912Y9019540D01*
X4994198Y9006230D01*
X4998161Y8993276D01*
X5003901Y8981033D01*
X5011166Y8969603D01*
X5019903Y8959291D01*
X5029911Y8950198D01*
X5041087Y8942578D01*
X5053177Y8936431D01*
X5065928Y8932011D01*
X5079187Y8929319D01*
G37*
G36*
X3568700Y8928404D02*
G01*
X3582212Y8929319D01*
X3595471Y8932011D01*
X3608222Y8936431D01*
X3620312Y8942578D01*
X3631488Y8950198D01*
X3641496Y8959291D01*
X3650234Y8969603D01*
X3657498Y8981033D01*
X3663238Y8993276D01*
X3667201Y9006230D01*
X3669487Y9019540D01*
X3669944Y9033103D01*
X3668572Y9046565D01*
X3665423Y9059722D01*
X3660597Y9072321D01*
X3654094Y9084208D01*
X3646068Y9095079D01*
X3636619Y9104833D01*
X3626002Y9113215D01*
X3614369Y9120124D01*
X3601923Y9125356D01*
X3588867Y9128963D01*
X3575456Y9130741D01*
X3561943Y9130741D01*
X3548532Y9128963D01*
X3535476Y9125356D01*
X3523030Y9120124D01*
X3511397Y9113215D01*
X3500780Y9104833D01*
X3491331Y9095079D01*
X3483305Y9084208D01*
X3476802Y9072321D01*
X3471976Y9059722D01*
X3468827Y9046565D01*
X3467455Y9033103D01*
X3467912Y9019540D01*
X3470198Y9006230D01*
X3474161Y8993276D01*
X3479901Y8981033D01*
X3487165Y8969603D01*
X3495903Y8959291D01*
X3505911Y8950198D01*
X3517087Y8942578D01*
X3529177Y8936431D01*
X3541928Y8932011D01*
X3555187Y8929319D01*
G37*
G36*
X5461000Y9003792D02*
G01*
X5476392Y9004757D01*
X5491530Y9007500D01*
X5506212Y9012072D01*
X5520232Y9018422D01*
X5533440Y9026398D01*
X5545531Y9035897D01*
X5556402Y9046768D01*
X5565902Y9058859D01*
X5573877Y9072067D01*
X5580227Y9086088D01*
X5584799Y9100769D01*
X5587542Y9115907D01*
X5588508Y9131300D01*
X5587542Y9146692D01*
X5584799Y9161830D01*
X5580227Y9176512D01*
X5573877Y9190532D01*
X5565902Y9203740D01*
X5556402Y9215831D01*
X5545531Y9226702D01*
X5533440Y9236202D01*
X5520232Y9244177D01*
X5506212Y9250527D01*
X5491530Y9255099D01*
X5476392Y9257842D01*
X5461000Y9258808D01*
X5445607Y9257842D01*
X5430469Y9255099D01*
X5415788Y9250527D01*
X5401767Y9244177D01*
X5388559Y9236202D01*
X5376468Y9226702D01*
X5365597Y9215831D01*
X5356098Y9203740D01*
X5348122Y9190532D01*
X5341772Y9176512D01*
X5337200Y9161830D01*
X5334457Y9146692D01*
X5333492Y9131300D01*
X5334457Y9115907D01*
X5337200Y9100769D01*
X5341772Y9086088D01*
X5348122Y9072067D01*
X5356098Y9058859D01*
X5365597Y9046768D01*
X5376468Y9035897D01*
X5388559Y9026398D01*
X5401767Y9018422D01*
X5415788Y9012072D01*
X5430469Y9007500D01*
X5445607Y9004757D01*
G37*
G36*
X952500Y9003792D02*
G01*
X967892Y9004757D01*
X983030Y9007500D01*
X997712Y9012072D01*
X1011732Y9018422D01*
X1024940Y9026398D01*
X1037031Y9035897D01*
X1047902Y9046768D01*
X1057402Y9058859D01*
X1065377Y9072067D01*
X1071727Y9086088D01*
X1076299Y9100769D01*
X1079042Y9115907D01*
X1080008Y9131300D01*
X1079042Y9146692D01*
X1076299Y9161830D01*
X1071727Y9176512D01*
X1065377Y9190532D01*
X1057402Y9203740D01*
X1047902Y9215831D01*
X1037031Y9226702D01*
X1024940Y9236202D01*
X1011732Y9244177D01*
X997712Y9250527D01*
X983030Y9255099D01*
X967892Y9257842D01*
X952500Y9258808D01*
X937107Y9257842D01*
X921969Y9255099D01*
X907287Y9250527D01*
X893267Y9244177D01*
X880059Y9236202D01*
X867968Y9226702D01*
X857097Y9215831D01*
X847598Y9203740D01*
X839622Y9190532D01*
X833272Y9176512D01*
X828700Y9161830D01*
X825957Y9146692D01*
X824992Y9131300D01*
X825957Y9115907D01*
X828700Y9100769D01*
X833272Y9086088D01*
X839622Y9072067D01*
X847598Y9058859D01*
X857097Y9046768D01*
X867968Y9035897D01*
X880059Y9026398D01*
X893267Y9018422D01*
X907287Y9012072D01*
X921969Y9007500D01*
X937107Y9004757D01*
G37*

%LPD*%
G36*
X3289300Y2603500D02*
G01*
X3289300Y2349500D01*
X3543300Y2349500D01*
X3543300Y2603500D01*
G37*
G36*
X3289300Y3111500D02*
G01*
X3289300Y2857500D01*
X3543300Y2857500D01*
X3543300Y3111500D01*
G37*
G36*
X3289300Y3619500D02*
G01*
X3289300Y3365500D01*
X3543300Y3365500D01*
X3543300Y3619500D01*
G37*
G36*
X2921000Y2209800D02*
G01*
X2921000Y1955800D01*
X3175000Y1955800D01*
X3175000Y2209800D01*
G37*
G36*
X3429000Y2209800D02*
G01*
X3429000Y1955800D01*
X3683000Y1955800D01*
X3683000Y2209800D01*
G37*
G36*
X3937000Y2209800D02*
G01*
X3937000Y1955800D01*
X4191000Y1955800D01*
X4191000Y2209800D01*
G37*
D11*
X3543302Y2857502D02*
G01*
X3583002Y2857502D01*
X3894686Y3169185D01*
X3894686Y3259203D01*
X4041802Y3406320D01*
X5311320Y3406320D01*
X5334002Y3429002D01*
D10*
X2095500Y7493000D02*
G01*
X2590800Y6997700D01*
X3568700Y6997700D01*
X977900Y6197600D02*
G01*
X1669745Y6889445D01*
X1669745Y7911261D01*
X1734337Y7975854D01*
X1734337Y7854162D01*
X2095500Y7493000D01*
X2286000Y7861300D02*
G01*
X2603500Y7543800D01*
X2603500Y7493000D01*
X2603500Y7493000D02*
G01*
X2844800Y7251700D01*
X3568700Y7251700D01*
X3568702Y6235702D02*
G01*
X1778002Y6235702D01*
X1739902Y6197602D01*
X1333500Y7493000D02*
G01*
X1333500Y7391890D01*
X1611200Y7114189D01*
X3568700Y5727700D02*
G01*
X3680432Y5839439D01*
X3680432Y6270320D01*
X3602459Y6348300D01*
X2986199Y6348300D01*
X1841500Y7493000D01*
X1689102Y3441702D02*
G01*
X2386230Y2744574D01*
X4667100Y2744574D01*
X4704184Y2781658D01*
X5092702Y7759702D02*
G01*
X5212209Y7640195D01*
X5212209Y6956452D01*
X5126459Y6870702D01*
X5071061Y6870702D01*
X3716505Y5516145D01*
X3716505Y5471848D01*
X3305609Y5060952D01*
X1377952Y5060952D01*
X977902Y4660902D01*
X977902Y5461002D02*
G01*
X1117551Y5600651D01*
X3695651Y5600651D01*
X5092702Y6997702D01*
X1739902Y5461002D02*
G01*
X2540002Y5461002D01*
X2552702Y5473702D01*
X927102Y3441702D02*
G01*
X1151587Y3666187D01*
X2569999Y3666187D01*
X2844802Y3940990D01*
X2844802Y3940990D02*
G01*
X3320925Y3464867D01*
X4801288Y3464867D01*
X4038602Y3902890D02*
G01*
X4817290Y3902890D01*
X4826002Y3911602D01*
X4051302Y2857502D02*
G01*
X5270502Y2857502D01*
X5334002Y2921002D01*
X4038602Y4419602D02*
G01*
X4826002Y4419602D01*
X2844802Y4440989D02*
G01*
X4017215Y4440989D01*
X4038602Y4419602D01*
X4038602Y4419602D02*
G01*
X4038602Y4402889D01*
D16*
G01*
X1427200Y2222500D03*
G01*
X2027199Y2222500D03*
D17*
G01*
X4826000Y4419600D03*
G01*
X4826000Y3911600D03*
G01*
X5334000Y2921000D03*
G01*
X5334000Y3429000D03*
G01*
X4038600Y4402886D03*
G01*
X4038600Y3902887D03*
G01*
X2844800Y4440986D03*
G01*
X2844800Y3940987D03*
G01*
X2552700Y5473700D03*
G01*
X2806700Y5473700D03*
D18*
G01*
X5092700Y5473700D03*
D19*
G01*
X5092700Y5727700D03*
G01*
X5092700Y5981700D03*
G01*
X5092700Y6235700D03*
G01*
X5092700Y6489700D03*
G01*
X5092700Y6743700D03*
G01*
X5092700Y6997700D03*
G01*
X5092700Y7251700D03*
G01*
X5092700Y7505700D03*
G01*
X5092700Y7759700D03*
G01*
X5092700Y8013700D03*
G01*
X5092700Y8267700D03*
G01*
X3568700Y5473700D03*
G01*
X3568700Y5727700D03*
G01*
X3568700Y5981700D03*
G01*
X3568700Y6235700D03*
G01*
X3568700Y6489700D03*
G01*
X3568700Y6743700D03*
G01*
X3568700Y7251700D03*
G01*
X3568700Y7505700D03*
G01*
X3568700Y8013700D03*
G01*
X3568700Y8267700D03*
G01*
X3568700Y7759700D03*
G01*
X3568700Y6997700D03*
G01*
X5092700Y8521700D03*
G01*
X5092700Y8775700D03*
G01*
X5092700Y9029700D03*
G01*
X3568700Y8521700D03*
G01*
X3568700Y8775700D03*
G01*
X3568700Y9029700D03*
D20*
G01*
X977900Y5461000D03*
G01*
X1739900Y5461000D03*
G01*
X977900Y6197600D03*
G01*
X1739900Y6197600D03*
G01*
X977900Y4660900D03*
G01*
X1739900Y4660900D03*
G01*
X965200Y3886200D03*
G01*
X1727200Y3886200D03*
G01*
X927100Y3441700D03*
G01*
X1689100Y3441700D03*
D17*
G01*
X3670300Y2476500D03*
G01*
X3670300Y2984500D03*
G01*
X3670300Y3492500D03*
G01*
X3048000Y1828800D03*
G01*
X3556000Y1828800D03*
G01*
X4064000Y1828800D03*
G01*
X1333500Y7493000D03*
G01*
X1587500Y7493000D03*
G01*
X1841500Y7493000D03*
G01*
X2095500Y7493000D03*
G01*
X2349500Y7493000D03*
G01*
X2603500Y7493000D03*
G01*
X2857500Y7493000D03*
G01*
X3111500Y7493000D03*
D13*
G01*
X4801288Y3464867D03*
G01*
X4704184Y2781658D03*
G01*
X1611200Y7114186D03*
M02*
