G04 Layer: TopLayer*
G04 EasyEDA v6.5.5, 2022-07-12 11:33:07*
G04 f1e15a90033e4b75946299fcb03ef411,10*
G04 Gerber Generator version 0.2*
G04 Scale: 100 percent, Rotated: No, Reflected: No *
G04 Dimensions in millimeters *
G04 leading zeros omitted , absolute positions ,4 integer and 5 decimal *
%FSLAX45Y45*%
%MOMM*%

%ADD10C,0.2540*%
%ADD11C,0.7600*%
%ADD12C,0.2032*%
%ADD13C,0.6096*%
%ADD14R,1.0000X0.8000*%
%ADD16C,2.5000*%
%ADD17C,1.5240*%
%ADD18R,1.5080X1.5080*%
%ADD19C,1.5080*%
%ADD20C,1.8796*%

%LPD*%
G36*
X736092Y1461008D02*
G01*
X732180Y1461770D01*
X728929Y1464005D01*
X726694Y1467256D01*
X725932Y1471168D01*
X725932Y9363964D01*
X726694Y9367875D01*
X728929Y9371126D01*
X732180Y9373362D01*
X736092Y9374124D01*
X5663946Y9374124D01*
X5667857Y9373362D01*
X5671108Y9371126D01*
X5673344Y9367875D01*
X5674106Y9363964D01*
X5674106Y1471168D01*
X5673344Y1467256D01*
X5671108Y1464005D01*
X5667857Y1461770D01*
X5663946Y1461008D01*
G37*

%LPC*%
G36*
X1016000Y1574292D02*
G01*
X1031392Y1575257D01*
X1046530Y1578000D01*
X1061212Y1582572D01*
X1075232Y1588922D01*
X1088440Y1596898D01*
X1100531Y1606397D01*
X1111402Y1617268D01*
X1120902Y1629359D01*
X1128877Y1642567D01*
X1135227Y1656588D01*
X1139799Y1671269D01*
X1142542Y1686407D01*
X1143508Y1701800D01*
X1142542Y1717192D01*
X1139799Y1732330D01*
X1135227Y1747012D01*
X1128877Y1761032D01*
X1120902Y1774240D01*
X1111402Y1786331D01*
X1100531Y1797202D01*
X1088440Y1806702D01*
X1075232Y1814677D01*
X1061212Y1821027D01*
X1046530Y1825599D01*
X1031392Y1828342D01*
X1016000Y1829307D01*
X1000607Y1828342D01*
X985469Y1825599D01*
X970787Y1821027D01*
X956767Y1814677D01*
X943559Y1806702D01*
X931468Y1797202D01*
X920597Y1786331D01*
X911098Y1774240D01*
X903122Y1761032D01*
X896772Y1747012D01*
X892200Y1732330D01*
X889457Y1717192D01*
X888492Y1701800D01*
X889457Y1686407D01*
X892200Y1671269D01*
X896772Y1656588D01*
X903122Y1642567D01*
X911098Y1629359D01*
X920597Y1617268D01*
X931468Y1606397D01*
X943559Y1596898D01*
X956767Y1588922D01*
X970787Y1582572D01*
X985469Y1578000D01*
X1000607Y1575257D01*
G37*
G36*
X5422900Y1612392D02*
G01*
X5438292Y1613357D01*
X5453430Y1616100D01*
X5468112Y1620672D01*
X5482132Y1627022D01*
X5495340Y1634998D01*
X5507431Y1644497D01*
X5518302Y1655368D01*
X5527802Y1667459D01*
X5535777Y1680667D01*
X5542127Y1694688D01*
X5546699Y1709369D01*
X5549442Y1724507D01*
X5550408Y1739900D01*
X5549442Y1755292D01*
X5546699Y1770430D01*
X5542127Y1785112D01*
X5535777Y1799132D01*
X5527802Y1812340D01*
X5518302Y1824431D01*
X5507431Y1835302D01*
X5495340Y1844802D01*
X5482132Y1852777D01*
X5468112Y1859127D01*
X5453430Y1863699D01*
X5438292Y1866442D01*
X5422900Y1867407D01*
X5407507Y1866442D01*
X5392369Y1863699D01*
X5377688Y1859127D01*
X5363667Y1852777D01*
X5350459Y1844802D01*
X5338368Y1835302D01*
X5327497Y1824431D01*
X5317998Y1812340D01*
X5310022Y1799132D01*
X5303672Y1785112D01*
X5299100Y1770430D01*
X5296357Y1755292D01*
X5295392Y1739900D01*
X5296357Y1724507D01*
X5299100Y1709369D01*
X5303672Y1694688D01*
X5310022Y1680667D01*
X5317998Y1667459D01*
X5327497Y1655368D01*
X5338368Y1644497D01*
X5350459Y1634998D01*
X5363667Y1627022D01*
X5377688Y1620672D01*
X5392369Y1616100D01*
X5407507Y1613357D01*
G37*
G36*
X3044596Y1726793D02*
G01*
X3058210Y1727250D01*
X3071672Y1729486D01*
X3084677Y1733550D01*
X3097072Y1739290D01*
X3108553Y1746605D01*
X3118967Y1755393D01*
X3128111Y1765554D01*
X3135833Y1776780D01*
X3141980Y1788922D01*
X3146450Y1801825D01*
X3149193Y1815185D01*
X3150108Y1828800D01*
X3149193Y1842414D01*
X3146450Y1855774D01*
X3144215Y1862277D01*
X3143656Y1866036D01*
X3144469Y1869693D01*
X3146602Y1872792D01*
X3341420Y2067610D01*
X3344672Y2069795D01*
X3348583Y2070557D01*
X3352495Y2069795D01*
X3355746Y2067610D01*
X3357981Y2064308D01*
X3358743Y2060397D01*
X3358743Y1962454D01*
X3359251Y1954022D01*
X3361486Y1943709D01*
X3362147Y1941626D01*
X3365347Y1933905D01*
X3366363Y1931924D01*
X3370783Y1924862D01*
X3372104Y1923084D01*
X3377692Y1916734D01*
X3451148Y1843278D01*
X3453384Y1839975D01*
X3454146Y1836064D01*
X3454146Y1821992D01*
X3455974Y1808480D01*
X3459581Y1795322D01*
X3464864Y1782775D01*
X3471824Y1771040D01*
X3480308Y1760321D01*
X3490112Y1750822D01*
X3501085Y1742744D01*
X3513023Y1736191D01*
X3525774Y1731314D01*
X3539032Y1728114D01*
X3552596Y1726793D01*
X3566210Y1727250D01*
X3579672Y1729486D01*
X3592677Y1733550D01*
X3605072Y1739290D01*
X3616553Y1746605D01*
X3626967Y1755393D01*
X3636111Y1765554D01*
X3643833Y1776780D01*
X3649979Y1788922D01*
X3654450Y1801825D01*
X3657193Y1815185D01*
X3658108Y1828800D01*
X3657193Y1842414D01*
X3654450Y1855774D01*
X3649979Y1868678D01*
X3643833Y1880819D01*
X3636111Y1892046D01*
X3626967Y1902206D01*
X3616553Y1910994D01*
X3605072Y1918309D01*
X3592677Y1924050D01*
X3579672Y1928114D01*
X3566210Y1930349D01*
X3552596Y1930806D01*
X3549904Y1930552D01*
X3545484Y1931111D01*
X3541725Y1933498D01*
X3536492Y1938680D01*
X3534257Y1942084D01*
X3533495Y1946097D01*
X3534410Y1950059D01*
X3536797Y1953361D01*
X3540251Y1955444D01*
X3544265Y1956003D01*
X3556000Y1955292D01*
X3571392Y1956257D01*
X3586530Y1959000D01*
X3601212Y1963572D01*
X3615232Y1969922D01*
X3628440Y1977898D01*
X3640531Y1987397D01*
X3651402Y1998268D01*
X3660901Y2010359D01*
X3668877Y2023567D01*
X3675227Y2037588D01*
X3679799Y2052269D01*
X3682542Y2067407D01*
X3683508Y2082800D01*
X3682542Y2098192D01*
X3679799Y2113330D01*
X3675227Y2128012D01*
X3668877Y2142032D01*
X3660901Y2155240D01*
X3651402Y2167331D01*
X3640531Y2178202D01*
X3628440Y2187702D01*
X3615232Y2195677D01*
X3601212Y2202027D01*
X3586530Y2206599D01*
X3571392Y2209342D01*
X3556000Y2210308D01*
X3540607Y2209342D01*
X3525469Y2206599D01*
X3510787Y2202027D01*
X3500882Y2197557D01*
X3496970Y2196642D01*
X3493008Y2197354D01*
X3489604Y2199538D01*
X3487369Y2202891D01*
X3486556Y2206802D01*
X3486556Y2364943D01*
X3487013Y2367940D01*
X3488334Y2370683D01*
X3490468Y2372918D01*
X3500831Y2381097D01*
X3511702Y2391968D01*
X3521201Y2404059D01*
X3529177Y2417267D01*
X3535527Y2431288D01*
X3540099Y2445969D01*
X3542842Y2461107D01*
X3543808Y2476500D01*
X3542842Y2491892D01*
X3540099Y2507030D01*
X3535527Y2521712D01*
X3529177Y2535732D01*
X3521201Y2548940D01*
X3511702Y2561031D01*
X3500831Y2571902D01*
X3490468Y2580081D01*
X3488334Y2582265D01*
X3487013Y2585059D01*
X3486556Y2588056D01*
X3486556Y2706166D01*
X3487318Y2710078D01*
X3489553Y2713380D01*
X3588207Y2812034D01*
X3595268Y2820365D01*
X3600704Y2829458D01*
X3604514Y2839262D01*
X3606698Y2849626D01*
X3607104Y2860141D01*
X3605834Y2870606D01*
X3602786Y2880715D01*
X3600246Y2885897D01*
X3599230Y2890113D01*
X3600043Y2894330D01*
X3602482Y2897835D01*
X3606190Y2900019D01*
X3610508Y2900476D01*
X3614572Y2899105D01*
X3624275Y2893364D01*
X3636822Y2888081D01*
X3649979Y2884474D01*
X3663492Y2882646D01*
X3677107Y2882646D01*
X3690620Y2884474D01*
X3703777Y2888081D01*
X3716324Y2893364D01*
X3728059Y2900324D01*
X3738778Y2908808D01*
X3748278Y2918612D01*
X3756355Y2929585D01*
X3762908Y2941523D01*
X3767785Y2954274D01*
X3770985Y2967532D01*
X3772306Y2981096D01*
X3771849Y2994710D01*
X3769614Y3008172D01*
X3765550Y3021177D01*
X3759809Y3033572D01*
X3752494Y3045053D01*
X3743706Y3055467D01*
X3733546Y3064611D01*
X3722319Y3072333D01*
X3710178Y3078480D01*
X3697274Y3082950D01*
X3683914Y3085693D01*
X3670300Y3086608D01*
X3656685Y3085693D01*
X3643325Y3082950D01*
X3630422Y3078480D01*
X3618280Y3072333D01*
X3607054Y3064611D01*
X3596894Y3055467D01*
X3588105Y3045053D01*
X3580790Y3033572D01*
X3575050Y3021177D01*
X3570986Y3008172D01*
X3568750Y2994710D01*
X3568293Y2981096D01*
X3569614Y2967532D01*
X3572814Y2954274D01*
X3577691Y2941523D01*
X3584854Y2928620D01*
X3586073Y2924556D01*
X3585565Y2920339D01*
X3583330Y2916682D01*
X3579825Y2914294D01*
X3575608Y2913532D01*
X3571494Y2914599D01*
X3566515Y2916986D01*
X3556406Y2920034D01*
X3545941Y2921304D01*
X3543503Y2921203D01*
X3539439Y2921863D01*
X3535984Y2924098D01*
X3533698Y2927502D01*
X3532936Y2931515D01*
X3533800Y2935528D01*
X3535527Y2939288D01*
X3540099Y2953969D01*
X3542842Y2969107D01*
X3543808Y2984500D01*
X3542842Y2999892D01*
X3540099Y3015030D01*
X3535527Y3029712D01*
X3529177Y3043732D01*
X3521201Y3056940D01*
X3511702Y3069031D01*
X3500831Y3079902D01*
X3488740Y3089402D01*
X3475532Y3097377D01*
X3461512Y3103727D01*
X3446830Y3108299D01*
X3431692Y3111042D01*
X3416300Y3112008D01*
X3401466Y3111093D01*
X3397402Y3111703D01*
X3393897Y3113836D01*
X3391509Y3117189D01*
X3390696Y3121253D01*
X3390696Y3355746D01*
X3391509Y3359810D01*
X3393897Y3363163D01*
X3397402Y3365296D01*
X3401466Y3365906D01*
X3416300Y3364992D01*
X3431692Y3365957D01*
X3446830Y3368700D01*
X3461512Y3373272D01*
X3475532Y3379622D01*
X3488740Y3387598D01*
X3500831Y3397097D01*
X3511702Y3407968D01*
X3521201Y3420059D01*
X3529177Y3433267D01*
X3535527Y3447287D01*
X3540099Y3461969D01*
X3542842Y3477107D01*
X3543808Y3492500D01*
X3542842Y3507892D01*
X3540099Y3523030D01*
X3535527Y3537712D01*
X3529177Y3551732D01*
X3521201Y3564940D01*
X3511702Y3577031D01*
X3500831Y3587902D01*
X3488740Y3597401D01*
X3475532Y3605377D01*
X3461512Y3611727D01*
X3446830Y3616299D01*
X3431692Y3619042D01*
X3416300Y3620008D01*
X3401466Y3619093D01*
X3397402Y3619703D01*
X3393897Y3621836D01*
X3391509Y3625189D01*
X3390696Y3629253D01*
X3390696Y4046524D01*
X3391458Y4050436D01*
X3393694Y4053738D01*
X4969154Y5629198D01*
X4974285Y5635447D01*
X4977841Y5642102D01*
X4980025Y5649315D01*
X4980838Y5657342D01*
X4980838Y5682691D01*
X4981549Y5686501D01*
X4983683Y5689803D01*
X4986934Y5691987D01*
X4990744Y5692851D01*
X4994605Y5692190D01*
X4997907Y5690108D01*
X5000193Y5686958D01*
X5003901Y5679033D01*
X5011166Y5667603D01*
X5019903Y5657291D01*
X5029911Y5648198D01*
X5041087Y5640578D01*
X5053177Y5634431D01*
X5065928Y5630011D01*
X5079187Y5627319D01*
X5092700Y5626404D01*
X5106212Y5627319D01*
X5119471Y5630011D01*
X5132222Y5634431D01*
X5144312Y5640578D01*
X5151069Y5645200D01*
X5155133Y5646826D01*
X5159502Y5646623D01*
X5163362Y5644591D01*
X5166004Y5641086D01*
X5166969Y5636818D01*
X5166969Y5585155D01*
X5166207Y5581294D01*
X5163972Y5577992D01*
X5160721Y5575757D01*
X5156809Y5574995D01*
X5017871Y5574995D01*
X5011572Y5574284D01*
X5006086Y5572404D01*
X5001209Y5569305D01*
X4997094Y5565190D01*
X4993995Y5560314D01*
X4992116Y5554827D01*
X4991404Y5548528D01*
X4991404Y5398871D01*
X4992116Y5392572D01*
X4993995Y5387086D01*
X4997094Y5382209D01*
X5001209Y5378094D01*
X5006086Y5374995D01*
X5011572Y5373116D01*
X5017871Y5372404D01*
X5156809Y5372404D01*
X5160721Y5371642D01*
X5163972Y5369407D01*
X5166207Y5366105D01*
X5166969Y5362244D01*
X5166969Y3562858D01*
X5166207Y3558997D01*
X5163972Y3555695D01*
X4908702Y3300374D01*
X4903571Y3294176D01*
X4900015Y3287522D01*
X4897831Y3280257D01*
X4897069Y3272231D01*
X4897069Y2996793D01*
X4896104Y2992526D01*
X4893462Y2989072D01*
X4889601Y2986989D01*
X4885283Y2986735D01*
X4881219Y2988360D01*
X4878222Y2991510D01*
X4876800Y2995625D01*
X4876495Y2998266D01*
X4874564Y3003702D01*
X4871516Y3008630D01*
X4867402Y3012694D01*
X4862525Y3015792D01*
X4857140Y3017672D01*
X4849063Y3018434D01*
X4845507Y3019501D01*
X4842510Y3021736D01*
X4840579Y3024886D01*
X4839919Y3028543D01*
X4839919Y3419856D01*
X4840681Y3423767D01*
X4842865Y3427069D01*
X4844440Y3428644D01*
X4850079Y3436670D01*
X4854244Y3445611D01*
X4856784Y3455060D01*
X4857648Y3464864D01*
X4856784Y3474669D01*
X4854244Y3484118D01*
X4850079Y3493058D01*
X4844440Y3501085D01*
X4837531Y3508044D01*
X4829454Y3513683D01*
X4820564Y3517798D01*
X4811064Y3520338D01*
X4801311Y3521201D01*
X4791506Y3520338D01*
X4782007Y3517798D01*
X4773117Y3513683D01*
X4765090Y3508044D01*
X4758131Y3501085D01*
X4752492Y3493058D01*
X4748326Y3484118D01*
X4745786Y3474669D01*
X4744923Y3464864D01*
X4745786Y3455060D01*
X4748326Y3445611D01*
X4752492Y3436670D01*
X4758131Y3428644D01*
X4759706Y3427069D01*
X4761890Y3423767D01*
X4762703Y3419856D01*
X4762703Y3028543D01*
X4761992Y3024886D01*
X4760061Y3021736D01*
X4757064Y3019501D01*
X4753508Y3018434D01*
X4745482Y3017672D01*
X4740097Y3015792D01*
X4735169Y3012694D01*
X4731105Y3008630D01*
X4728006Y3003702D01*
X4726127Y2998266D01*
X4725416Y2991916D01*
X4725416Y2913075D01*
X4726127Y2906725D01*
X4728006Y2901289D01*
X4731105Y2896412D01*
X4735169Y2892298D01*
X4740097Y2889199D01*
X4745532Y2887319D01*
X4751882Y2886608D01*
X4785664Y2886608D01*
X4789678Y2885744D01*
X4793081Y2883408D01*
X4795215Y2879902D01*
X4795824Y2875838D01*
X4794758Y2871876D01*
X4792218Y2868676D01*
X4788611Y2866694D01*
X4786528Y2866085D01*
X4779873Y2862529D01*
X4774031Y2857703D01*
X4769205Y2851861D01*
X4765649Y2845206D01*
X4762398Y2833979D01*
X4760163Y2831033D01*
X4756962Y2829052D01*
X4745532Y2827680D01*
X4741164Y2826664D01*
X4738014Y2827121D01*
X4735118Y2828493D01*
X4732375Y2830474D01*
X4723434Y2834589D01*
X4713986Y2837129D01*
X4704181Y2837992D01*
X4694377Y2837129D01*
X4684928Y2834589D01*
X4675987Y2830474D01*
X4667961Y2824835D01*
X4664557Y2821432D01*
X4661255Y2819196D01*
X4657394Y2818434D01*
X4653483Y2819196D01*
X4650181Y2821432D01*
X4647996Y2824734D01*
X4647234Y2828594D01*
X4647234Y2896920D01*
X4646523Y2903270D01*
X4644593Y2908706D01*
X4641494Y2913634D01*
X4637430Y2917698D01*
X4632502Y2920796D01*
X4627118Y2922676D01*
X4619091Y2923438D01*
X4615484Y2924505D01*
X4612538Y2926740D01*
X4610557Y2929890D01*
X4609896Y2933547D01*
X4609896Y3636670D01*
X4610658Y3640582D01*
X4612894Y3643884D01*
X4782007Y3812997D01*
X4785106Y3815130D01*
X4788763Y3815943D01*
X4792522Y3815384D01*
X4799025Y3813149D01*
X4812385Y3810406D01*
X4826000Y3809492D01*
X4839614Y3810406D01*
X4852974Y3813149D01*
X4865878Y3817620D01*
X4878019Y3823766D01*
X4889246Y3831488D01*
X4899406Y3840632D01*
X4908194Y3851046D01*
X4915509Y3862527D01*
X4921250Y3874922D01*
X4925314Y3887927D01*
X4927549Y3901389D01*
X4928006Y3915003D01*
X4926685Y3928567D01*
X4923485Y3941826D01*
X4918608Y3954576D01*
X4912055Y3966514D01*
X4903978Y3977487D01*
X4894478Y3987292D01*
X4883759Y3995775D01*
X4872024Y4002735D01*
X4859477Y4008018D01*
X4846320Y4011625D01*
X4832807Y4013454D01*
X4819192Y4013454D01*
X4805680Y4011625D01*
X4792522Y4008018D01*
X4779975Y4002735D01*
X4768240Y3995775D01*
X4757521Y3987292D01*
X4748022Y3977487D01*
X4739944Y3966514D01*
X4733391Y3954576D01*
X4728514Y3941826D01*
X4725314Y3928567D01*
X4723993Y3915003D01*
X4724450Y3901389D01*
X4726686Y3887927D01*
X4729835Y3877716D01*
X4730292Y3874109D01*
X4729429Y3870553D01*
X4727346Y3867556D01*
X4544364Y3684524D01*
X4539234Y3678326D01*
X4535678Y3671671D01*
X4533493Y3664407D01*
X4532680Y3656380D01*
X4532680Y2933547D01*
X4532020Y2929890D01*
X4530039Y2926740D01*
X4527092Y2924505D01*
X4523536Y2923438D01*
X4515459Y2922676D01*
X4510074Y2920796D01*
X4505198Y2917698D01*
X4501083Y2913634D01*
X4498035Y2908706D01*
X4496104Y2903270D01*
X4495393Y2896920D01*
X4495393Y2818079D01*
X4496104Y2811729D01*
X4498035Y2806293D01*
X4501083Y2801366D01*
X4505198Y2797302D01*
X4510074Y2794203D01*
X4515561Y2792323D01*
X4523333Y2791612D01*
X4526991Y2790901D01*
X4530140Y2788970D01*
X4532376Y2786024D01*
X4535678Y2774797D01*
X4539234Y2768092D01*
X4544364Y2761894D01*
X4864100Y2442108D01*
X4866335Y2438806D01*
X4867097Y2434894D01*
X4867097Y2207869D01*
X4867910Y2199843D01*
X4870094Y2192629D01*
X4873650Y2185974D01*
X4878425Y2180132D01*
X4884267Y2175306D01*
X4890973Y2171750D01*
X4898186Y2169566D01*
X4901844Y2169210D01*
X4905451Y2168144D01*
X4908448Y2165858D01*
X4913477Y2157679D01*
X4917592Y2153615D01*
X4922469Y2150516D01*
X4927904Y2148636D01*
X4934254Y2147925D01*
X5090617Y2147925D01*
X5092700Y2148128D01*
X5096916Y2147722D01*
X5100574Y2145639D01*
X5103114Y2142185D01*
X5103977Y2138019D01*
X5103977Y2126132D01*
X5103114Y2122017D01*
X5100574Y2118563D01*
X5096916Y2116480D01*
X5092700Y2116074D01*
X5090617Y2116277D01*
X5025745Y2116277D01*
X5025745Y1998472D01*
X5090617Y1998472D01*
X5092700Y1998725D01*
X5096916Y1998268D01*
X5100574Y1996186D01*
X5103114Y1992782D01*
X5103977Y1988616D01*
X5103977Y1976780D01*
X5103114Y1972614D01*
X5100574Y1969211D01*
X5096916Y1967128D01*
X5092700Y1966671D01*
X5090617Y1966925D01*
X4934254Y1966925D01*
X4927904Y1966214D01*
X4922469Y1964283D01*
X4917592Y1961235D01*
X4913477Y1957120D01*
X4910378Y1952243D01*
X4908499Y1946757D01*
X4907788Y1940458D01*
X4907788Y1874367D01*
X4908499Y1868068D01*
X4910378Y1862582D01*
X4913477Y1857705D01*
X4917592Y1853590D01*
X4922469Y1850542D01*
X4927904Y1848612D01*
X4934254Y1847900D01*
X5090617Y1847900D01*
X5096916Y1848612D01*
X5102402Y1850542D01*
X5107279Y1853590D01*
X5111394Y1857705D01*
X5116423Y1865833D01*
X5119370Y1868170D01*
X5123027Y1869236D01*
X5126685Y1869592D01*
X5133898Y1871776D01*
X5140553Y1875332D01*
X5146802Y1880463D01*
X5169560Y1903171D01*
X5174640Y1909419D01*
X5178196Y1916074D01*
X5180431Y1923288D01*
X5181193Y1931314D01*
X5181193Y3217367D01*
X5181955Y3221278D01*
X5184190Y3224580D01*
X5289804Y3330194D01*
X5292699Y3332226D01*
X5296154Y3333140D01*
X5299710Y3332835D01*
X5313680Y3328974D01*
X5327192Y3327146D01*
X5340807Y3327146D01*
X5354320Y3328974D01*
X5367477Y3332581D01*
X5380024Y3337864D01*
X5391759Y3344824D01*
X5402478Y3353308D01*
X5411978Y3363112D01*
X5420055Y3374085D01*
X5426608Y3386023D01*
X5431485Y3398774D01*
X5434685Y3412032D01*
X5436006Y3425596D01*
X5435549Y3439210D01*
X5433314Y3452672D01*
X5429250Y3465677D01*
X5423509Y3478072D01*
X5416194Y3489553D01*
X5407406Y3499967D01*
X5397246Y3509111D01*
X5386019Y3516833D01*
X5373878Y3522979D01*
X5360974Y3527450D01*
X5347614Y3530193D01*
X5334000Y3531108D01*
X5320385Y3530193D01*
X5307025Y3527450D01*
X5294122Y3522979D01*
X5281980Y3516833D01*
X5270754Y3509111D01*
X5260594Y3499967D01*
X5251805Y3489553D01*
X5244490Y3478072D01*
X5238750Y3465677D01*
X5234686Y3452672D01*
X5232450Y3439210D01*
X5231993Y3425596D01*
X5233314Y3412032D01*
X5236514Y3398774D01*
X5237632Y3395776D01*
X5238343Y3391966D01*
X5237530Y3388156D01*
X5235346Y3384956D01*
X5115661Y3265220D01*
X5110530Y3259023D01*
X5106974Y3252368D01*
X5104790Y3245104D01*
X5103977Y3237077D01*
X5103977Y2276805D01*
X5103114Y2272639D01*
X5100574Y2269185D01*
X5096916Y2267102D01*
X5092700Y2266696D01*
X5090617Y2266899D01*
X4954473Y2266899D01*
X4950612Y2267712D01*
X4947310Y2269896D01*
X4945075Y2273198D01*
X4944313Y2277059D01*
X4944313Y2454605D01*
X4943551Y2462631D01*
X4941316Y2469896D01*
X4937760Y2476550D01*
X4932680Y2482748D01*
X4734864Y2680563D01*
X4732680Y2683814D01*
X4731867Y2687574D01*
X4732578Y2691434D01*
X4734610Y2694686D01*
X4737760Y2696972D01*
X4741519Y2697886D01*
X4751882Y2696565D01*
X4850739Y2696565D01*
X4857038Y2697276D01*
X4862525Y2699207D01*
X4867402Y2702306D01*
X4871516Y2706370D01*
X4874564Y2711297D01*
X4876495Y2716733D01*
X4877206Y2723083D01*
X4877206Y2801924D01*
X4875733Y2812491D01*
X4876596Y2816199D01*
X4878730Y2819298D01*
X4962601Y2903220D01*
X4967732Y2909417D01*
X4971288Y2916123D01*
X4973472Y2923336D01*
X4974285Y2931363D01*
X4974285Y3252520D01*
X4975047Y3256432D01*
X4977231Y3259734D01*
X5232552Y3515004D01*
X5237632Y3521252D01*
X5241188Y3527907D01*
X5243423Y3535121D01*
X5244185Y3543147D01*
X5244185Y8154314D01*
X5243423Y8162340D01*
X5241188Y8169605D01*
X5237632Y8176259D01*
X5232552Y8182457D01*
X5190744Y8224266D01*
X5188661Y8227314D01*
X5187746Y8230819D01*
X5188204Y8234476D01*
X5191201Y8244230D01*
X5193487Y8257540D01*
X5193944Y8271103D01*
X5192572Y8284565D01*
X5189423Y8297722D01*
X5184597Y8310321D01*
X5178094Y8322208D01*
X5170068Y8333079D01*
X5160619Y8342833D01*
X5150002Y8351215D01*
X5138369Y8358124D01*
X5125923Y8363356D01*
X5112867Y8366963D01*
X5099456Y8368741D01*
X5085943Y8368741D01*
X5072532Y8366963D01*
X5059476Y8363356D01*
X5047030Y8358124D01*
X5035397Y8351215D01*
X5024780Y8342833D01*
X5015331Y8333079D01*
X5007305Y8322208D01*
X5000802Y8310321D01*
X4995976Y8297722D01*
X4992827Y8284565D01*
X4991455Y8271103D01*
X4991912Y8257540D01*
X4994198Y8244230D01*
X4998161Y8231276D01*
X5003901Y8219033D01*
X5011166Y8207603D01*
X5019903Y8197291D01*
X5029911Y8188198D01*
X5041087Y8180578D01*
X5053177Y8174431D01*
X5065928Y8170011D01*
X5079187Y8167319D01*
X5092700Y8166404D01*
X5106212Y8167319D01*
X5119471Y8170011D01*
X5125567Y8172145D01*
X5129276Y8172703D01*
X5132984Y8171840D01*
X5136083Y8169706D01*
X5163972Y8141817D01*
X5166207Y8138515D01*
X5166969Y8134603D01*
X5166969Y8104784D01*
X5165953Y8100364D01*
X5163159Y8096859D01*
X5159095Y8094878D01*
X5154574Y8094878D01*
X5150002Y8097215D01*
X5138369Y8104124D01*
X5125923Y8109356D01*
X5112867Y8112963D01*
X5099456Y8114741D01*
X5085943Y8114741D01*
X5072532Y8112963D01*
X5059476Y8109356D01*
X5047030Y8104124D01*
X5035397Y8097215D01*
X5024780Y8088833D01*
X5015331Y8079079D01*
X5007305Y8068208D01*
X5000802Y8056321D01*
X4995976Y8043722D01*
X4992827Y8030565D01*
X4991455Y8017103D01*
X4991912Y8003540D01*
X4994198Y7990230D01*
X4998161Y7977276D01*
X5003901Y7965033D01*
X5011166Y7953603D01*
X5019903Y7943291D01*
X5029911Y7934198D01*
X5041087Y7926578D01*
X5053177Y7920431D01*
X5065928Y7916011D01*
X5079187Y7913319D01*
X5092700Y7912404D01*
X5106212Y7913319D01*
X5119471Y7916011D01*
X5132222Y7920431D01*
X5144312Y7926578D01*
X5151069Y7931200D01*
X5155133Y7932826D01*
X5159502Y7932623D01*
X5163362Y7930591D01*
X5166004Y7927086D01*
X5166969Y7922818D01*
X5166969Y7850784D01*
X5165953Y7846364D01*
X5163159Y7842859D01*
X5159095Y7840878D01*
X5154574Y7840878D01*
X5150002Y7843215D01*
X5138369Y7850124D01*
X5125923Y7855356D01*
X5112867Y7858963D01*
X5099456Y7860741D01*
X5085943Y7860741D01*
X5072532Y7858963D01*
X5059476Y7855356D01*
X5047030Y7850124D01*
X5035397Y7843215D01*
X5024780Y7834833D01*
X5015331Y7825079D01*
X5007305Y7814208D01*
X5000802Y7802321D01*
X4995976Y7789722D01*
X4992827Y7776565D01*
X4991455Y7763103D01*
X4991912Y7749540D01*
X4994198Y7736230D01*
X4998161Y7723276D01*
X5003901Y7711033D01*
X5011166Y7699603D01*
X5019903Y7689291D01*
X5029911Y7680198D01*
X5041087Y7672578D01*
X5053177Y7666431D01*
X5065928Y7662011D01*
X5079187Y7659319D01*
X5092700Y7658404D01*
X5106212Y7659319D01*
X5119471Y7662011D01*
X5132222Y7666431D01*
X5144312Y7672578D01*
X5151069Y7677200D01*
X5155133Y7678826D01*
X5159502Y7678623D01*
X5163362Y7676591D01*
X5166004Y7673086D01*
X5166969Y7668818D01*
X5166969Y7596784D01*
X5165953Y7592364D01*
X5163159Y7588859D01*
X5159095Y7586878D01*
X5154574Y7586878D01*
X5150002Y7589215D01*
X5138369Y7596124D01*
X5125923Y7601356D01*
X5112867Y7604963D01*
X5099456Y7606741D01*
X5085943Y7606741D01*
X5072532Y7604963D01*
X5059476Y7601356D01*
X5047030Y7596124D01*
X5035397Y7589215D01*
X5024780Y7580833D01*
X5015331Y7571079D01*
X5007305Y7560208D01*
X5000802Y7548321D01*
X4995976Y7535722D01*
X4992827Y7522565D01*
X4991455Y7509103D01*
X4991912Y7495540D01*
X4994198Y7482230D01*
X4997196Y7472476D01*
X4997653Y7468819D01*
X4996738Y7465263D01*
X4994656Y7462266D01*
X4303776Y6771335D01*
X4298645Y6765137D01*
X4295089Y6758482D01*
X4292904Y6751218D01*
X4292092Y6743192D01*
X4292092Y5646877D01*
X4291330Y5643016D01*
X4289094Y5639714D01*
X3151225Y4501794D01*
X3146094Y4495546D01*
X3142538Y4488891D01*
X3140354Y4481677D01*
X3139541Y4473651D01*
X3139541Y3020568D01*
X3138779Y3016656D01*
X3136544Y3013354D01*
X3008376Y2885135D01*
X3003245Y2878937D01*
X2999689Y2872282D01*
X2997504Y2865018D01*
X2996742Y2857500D01*
X2997504Y2849981D01*
X2999689Y2842768D01*
X3003245Y2836062D01*
X3008020Y2830220D01*
X3013862Y2825445D01*
X3020568Y2821889D01*
X3027781Y2819704D01*
X3035300Y2818942D01*
X3042818Y2819704D01*
X3050082Y2821889D01*
X3056737Y2825445D01*
X3062935Y2830576D01*
X3205124Y2972714D01*
X3210204Y2978912D01*
X3213760Y2985617D01*
X3215995Y2992831D01*
X3216757Y3000857D01*
X3216757Y4453940D01*
X3217519Y4457801D01*
X3219754Y4461103D01*
X4357674Y5599023D01*
X4362754Y5605272D01*
X4366310Y5611926D01*
X4368495Y5619140D01*
X4369308Y5627166D01*
X4369308Y6723481D01*
X4370070Y6727393D01*
X4372305Y6730695D01*
X5049316Y7407706D01*
X5052415Y7409840D01*
X5056124Y7410703D01*
X5059832Y7410145D01*
X5065928Y7408011D01*
X5079187Y7405319D01*
X5092700Y7404404D01*
X5106212Y7405319D01*
X5119471Y7408011D01*
X5132222Y7412431D01*
X5144312Y7418578D01*
X5151069Y7423200D01*
X5155133Y7424826D01*
X5159502Y7424623D01*
X5163362Y7422591D01*
X5166004Y7419086D01*
X5166969Y7414818D01*
X5166969Y7342784D01*
X5165953Y7338364D01*
X5163159Y7334859D01*
X5159095Y7332878D01*
X5154574Y7332878D01*
X5150002Y7335215D01*
X5138369Y7342124D01*
X5125923Y7347356D01*
X5112867Y7350963D01*
X5099456Y7352741D01*
X5085943Y7352741D01*
X5072532Y7350963D01*
X5059476Y7347356D01*
X5047030Y7342124D01*
X5035397Y7335215D01*
X5024780Y7326833D01*
X5015331Y7317079D01*
X5007305Y7306208D01*
X5000802Y7294321D01*
X4995976Y7281722D01*
X4992827Y7268565D01*
X4991455Y7255103D01*
X4991912Y7241540D01*
X4994198Y7228230D01*
X4997196Y7218476D01*
X4997653Y7214819D01*
X4996738Y7211263D01*
X4994656Y7208266D01*
X4915255Y7128865D01*
X4910124Y7122617D01*
X4906568Y7115962D01*
X4904384Y7108748D01*
X4903622Y7100722D01*
X4903622Y5677052D01*
X4902809Y5673191D01*
X4900625Y5669889D01*
X3325164Y4094378D01*
X3320034Y4088180D01*
X3316478Y4081526D01*
X3314293Y4074261D01*
X3313480Y4066235D01*
X3313480Y3571138D01*
X3313125Y3568344D01*
X3312007Y3565804D01*
X3303422Y3551732D01*
X3297072Y3537712D01*
X3292500Y3523030D01*
X3289757Y3507892D01*
X3288792Y3492500D01*
X3289757Y3477107D01*
X3292500Y3461969D01*
X3297072Y3447287D01*
X3303422Y3433267D01*
X3312007Y3419195D01*
X3313125Y3416655D01*
X3313480Y3413861D01*
X3313480Y3063138D01*
X3313125Y3060344D01*
X3312007Y3057804D01*
X3303422Y3043732D01*
X3297072Y3029712D01*
X3292500Y3015030D01*
X3289757Y2999892D01*
X3288792Y2984500D01*
X3289757Y2969107D01*
X3292500Y2953969D01*
X3297072Y2939288D01*
X3303422Y2925267D01*
X3312007Y2911195D01*
X3313125Y2908655D01*
X3313480Y2905861D01*
X3313480Y2555138D01*
X3313125Y2552344D01*
X3312007Y2549804D01*
X3303422Y2535732D01*
X3297072Y2521712D01*
X3292500Y2507030D01*
X3289757Y2491892D01*
X3288792Y2476500D01*
X3289757Y2461107D01*
X3292500Y2445969D01*
X3297072Y2431288D01*
X3303422Y2417267D01*
X3312007Y2403195D01*
X3313125Y2400655D01*
X3313480Y2397861D01*
X3313480Y2153107D01*
X3312718Y2149195D01*
X3310483Y2145893D01*
X3177794Y2013153D01*
X3174441Y2010968D01*
X3170478Y2010206D01*
X3166567Y2011019D01*
X3163265Y2013305D01*
X3161131Y2016658D01*
X3160420Y2020620D01*
X3161334Y2024532D01*
X3167227Y2037588D01*
X3171799Y2052269D01*
X3174542Y2067407D01*
X3175508Y2082800D01*
X3174542Y2098192D01*
X3171799Y2113330D01*
X3167227Y2128012D01*
X3160877Y2142032D01*
X3152902Y2155240D01*
X3143402Y2167331D01*
X3132531Y2178202D01*
X3120440Y2187702D01*
X3107232Y2195677D01*
X3093212Y2202027D01*
X3078530Y2206599D01*
X3063392Y2209342D01*
X3048000Y2210308D01*
X3032607Y2209342D01*
X3017469Y2206599D01*
X3002788Y2202027D01*
X2988767Y2195677D01*
X2975559Y2187702D01*
X2963468Y2178202D01*
X2952597Y2167331D01*
X2943098Y2155240D01*
X2935122Y2142032D01*
X2928772Y2128012D01*
X2924200Y2113330D01*
X2921457Y2098192D01*
X2920492Y2082800D01*
X2921457Y2067407D01*
X2924200Y2052269D01*
X2928772Y2037588D01*
X2935122Y2023567D01*
X2943098Y2010359D01*
X2952597Y1998268D01*
X2963468Y1987397D01*
X2975559Y1977898D01*
X2988767Y1969922D01*
X3002788Y1963572D01*
X3017469Y1959000D01*
X3032607Y1956257D01*
X3048000Y1955292D01*
X3063392Y1956257D01*
X3078530Y1959000D01*
X3093212Y1963572D01*
X3106267Y1969465D01*
X3110179Y1970379D01*
X3114141Y1969668D01*
X3117494Y1967534D01*
X3119780Y1964232D01*
X3120593Y1960321D01*
X3119831Y1956358D01*
X3117646Y1953006D01*
X3092043Y1927453D01*
X3089046Y1925370D01*
X3085490Y1924507D01*
X3081883Y1924964D01*
X3071672Y1928114D01*
X3058210Y1930349D01*
X3044596Y1930806D01*
X3031032Y1929485D01*
X3017774Y1926285D01*
X3005023Y1921408D01*
X2993085Y1914855D01*
X2982112Y1906778D01*
X2972308Y1897278D01*
X2963824Y1886559D01*
X2956864Y1874824D01*
X2951581Y1862277D01*
X2947974Y1849120D01*
X2946146Y1835607D01*
X2946146Y1821992D01*
X2947974Y1808480D01*
X2951581Y1795322D01*
X2956864Y1782775D01*
X2963824Y1771040D01*
X2972308Y1760321D01*
X2982112Y1750822D01*
X2993085Y1742744D01*
X3005023Y1736191D01*
X3017774Y1731314D01*
X3031032Y1728114D01*
G37*
G36*
X4019550Y1737004D02*
G01*
X4019550Y1784350D01*
X3972204Y1784350D01*
X3972864Y1782775D01*
X3979824Y1771040D01*
X3988308Y1760321D01*
X3998112Y1750822D01*
X4009085Y1742744D01*
G37*
G36*
X4108450Y1737156D02*
G01*
X4113072Y1739290D01*
X4124553Y1746605D01*
X4134967Y1755393D01*
X4144111Y1765554D01*
X4151833Y1776780D01*
X4155643Y1784350D01*
X4108450Y1784350D01*
G37*
G36*
X4108450Y1873250D02*
G01*
X4155643Y1873250D01*
X4151833Y1880819D01*
X4144111Y1892046D01*
X4134967Y1902206D01*
X4124553Y1910994D01*
X4113072Y1918309D01*
X4108450Y1920443D01*
G37*
G36*
X3972204Y1873250D02*
G01*
X4019550Y1873250D01*
X4019550Y1920595D01*
X4009085Y1914855D01*
X3998112Y1906778D01*
X3988308Y1897278D01*
X3979824Y1886559D01*
X3972864Y1874824D01*
G37*
G36*
X4064000Y1955292D02*
G01*
X4079392Y1956257D01*
X4094530Y1959000D01*
X4109212Y1963572D01*
X4123232Y1969922D01*
X4136440Y1977898D01*
X4148531Y1987397D01*
X4159402Y1998268D01*
X4168901Y2010359D01*
X4176877Y2023567D01*
X4183227Y2037588D01*
X4187799Y2052269D01*
X4190542Y2067407D01*
X4191508Y2082800D01*
X4190542Y2098192D01*
X4187799Y2113330D01*
X4183227Y2128012D01*
X4176877Y2142032D01*
X4168901Y2155240D01*
X4159402Y2167331D01*
X4148531Y2178202D01*
X4136440Y2187702D01*
X4123232Y2195677D01*
X4109212Y2202027D01*
X4094530Y2206599D01*
X4079392Y2209342D01*
X4064000Y2210308D01*
X4048607Y2209342D01*
X4033469Y2206599D01*
X4018787Y2202027D01*
X4004767Y2195677D01*
X3991559Y2187702D01*
X3979468Y2178202D01*
X3968597Y2167331D01*
X3959098Y2155240D01*
X3951122Y2142032D01*
X3944772Y2128012D01*
X3940200Y2113330D01*
X3937457Y2098192D01*
X3936492Y2082800D01*
X3937457Y2067407D01*
X3940200Y2052269D01*
X3944772Y2037588D01*
X3951122Y2023567D01*
X3959098Y2010359D01*
X3968597Y1998268D01*
X3979468Y1987397D01*
X3991559Y1977898D01*
X4004767Y1969922D01*
X4018787Y1963572D01*
X4033469Y1959000D01*
X4048607Y1956257D01*
G37*
G36*
X2027174Y2071624D02*
G01*
X2044090Y2072538D01*
X2060752Y2075383D01*
X2077059Y2080056D01*
X2092655Y2086559D01*
X2107488Y2094738D01*
X2121255Y2104542D01*
X2133904Y2115820D01*
X2145182Y2128418D01*
X2154986Y2142236D01*
X2163165Y2157018D01*
X2169617Y2172665D01*
X2174290Y2188921D01*
X2177135Y2205583D01*
X2178100Y2222500D01*
X2177135Y2239416D01*
X2174290Y2256078D01*
X2169617Y2272334D01*
X2163165Y2287981D01*
X2154986Y2302764D01*
X2145182Y2316581D01*
X2133904Y2329180D01*
X2121255Y2340457D01*
X2107488Y2350262D01*
X2092655Y2358440D01*
X2077059Y2364943D01*
X2060752Y2369616D01*
X2044090Y2372461D01*
X2027174Y2373376D01*
X2010308Y2372461D01*
X1993646Y2369616D01*
X1977339Y2364943D01*
X1961743Y2358440D01*
X1946910Y2350262D01*
X1933143Y2340457D01*
X1920493Y2329180D01*
X1909216Y2316581D01*
X1899412Y2302764D01*
X1891233Y2287981D01*
X1884781Y2272334D01*
X1880107Y2256078D01*
X1877263Y2239416D01*
X1876298Y2222500D01*
X1877263Y2205583D01*
X1880107Y2188921D01*
X1884781Y2172665D01*
X1891233Y2157018D01*
X1899412Y2142236D01*
X1909216Y2128418D01*
X1920493Y2115820D01*
X1933143Y2104542D01*
X1946910Y2094738D01*
X1961743Y2086559D01*
X1977339Y2080056D01*
X1993646Y2075383D01*
X2010308Y2072538D01*
G37*
G36*
X1427226Y2071624D02*
G01*
X1444091Y2072538D01*
X1460754Y2075383D01*
X1477060Y2080056D01*
X1492656Y2086559D01*
X1507490Y2094738D01*
X1521256Y2104542D01*
X1533906Y2115820D01*
X1545183Y2128418D01*
X1554988Y2142236D01*
X1563166Y2157018D01*
X1569618Y2172665D01*
X1574292Y2188921D01*
X1577136Y2205583D01*
X1578102Y2222500D01*
X1577136Y2239416D01*
X1574292Y2256078D01*
X1569618Y2272334D01*
X1563166Y2287981D01*
X1554988Y2302764D01*
X1545183Y2316581D01*
X1533906Y2329180D01*
X1521256Y2340457D01*
X1507490Y2350262D01*
X1492656Y2358440D01*
X1477060Y2364943D01*
X1473149Y2366060D01*
X1469339Y2368092D01*
X1466748Y2371547D01*
X1465834Y2375814D01*
X1465834Y4328007D01*
X1466596Y4331868D01*
X1468780Y4335170D01*
X1681937Y4548378D01*
X1685086Y4550511D01*
X1688795Y4551324D01*
X1692503Y4550765D01*
X1707083Y4545584D01*
X1721510Y4542434D01*
X1736191Y4541062D01*
X1750974Y4541520D01*
X1765554Y4543806D01*
X1779727Y4547870D01*
X1793341Y4553610D01*
X1806092Y4560976D01*
X1815033Y4567682D01*
X1819097Y4569561D01*
X1823567Y4569460D01*
X1827530Y4567478D01*
X1830324Y4563973D01*
X1831289Y4559604D01*
X1831289Y4049115D01*
X1830527Y4045204D01*
X1828292Y4041901D01*
X1784959Y3998569D01*
X1781657Y3996334D01*
X1777746Y3995572D01*
X1773834Y3996385D01*
X1767027Y3999229D01*
X1752854Y4003294D01*
X1738274Y4005579D01*
X1723491Y4005986D01*
X1708810Y4004665D01*
X1694383Y4001515D01*
X1680464Y3996588D01*
X1667256Y3989984D01*
X1654962Y3981856D01*
X1643735Y3972255D01*
X1633829Y3961333D01*
X1625295Y3949293D01*
X1618284Y3936288D01*
X1612950Y3922522D01*
X1609394Y3908247D01*
X1607566Y3893565D01*
X1607566Y3878834D01*
X1609394Y3864152D01*
X1612950Y3849878D01*
X1618284Y3836111D01*
X1625295Y3823106D01*
X1633829Y3811066D01*
X1643735Y3800144D01*
X1654962Y3790543D01*
X1667256Y3782415D01*
X1680464Y3775811D01*
X1694383Y3770884D01*
X1708810Y3767734D01*
X1723491Y3766362D01*
X1738274Y3766820D01*
X1752854Y3769106D01*
X1767027Y3773170D01*
X1780641Y3778910D01*
X1793392Y3786276D01*
X1805178Y3795166D01*
X1815795Y3805428D01*
X1825040Y3816959D01*
X1832813Y3829507D01*
X1838960Y3842918D01*
X1843430Y3856939D01*
X1846173Y3871468D01*
X1847088Y3886200D01*
X1846173Y3900932D01*
X1843430Y3915460D01*
X1838960Y3929481D01*
X1837537Y3932580D01*
X1836623Y3936542D01*
X1837334Y3940606D01*
X1839620Y3944010D01*
X1896872Y4001262D01*
X1901952Y4007459D01*
X1905507Y4014165D01*
X1907743Y4021378D01*
X1908505Y4029405D01*
X1908505Y6067094D01*
X1907743Y6075121D01*
X1905507Y6082385D01*
X1901952Y6089040D01*
X1896872Y6095238D01*
X1852320Y6139789D01*
X1850034Y6143193D01*
X1849323Y6147257D01*
X1850237Y6151219D01*
X1851660Y6154318D01*
X1856130Y6168339D01*
X1858873Y6182868D01*
X1859788Y6197600D01*
X1858873Y6212332D01*
X1856130Y6226860D01*
X1851660Y6240881D01*
X1845513Y6254292D01*
X1837740Y6266840D01*
X1828495Y6278372D01*
X1817878Y6288633D01*
X1806092Y6297523D01*
X1793341Y6304889D01*
X1784705Y6308547D01*
X1781454Y6310782D01*
X1779270Y6314033D01*
X1778507Y6317894D01*
X1778507Y6772148D01*
X1779270Y6776059D01*
X1781505Y6779310D01*
X1784807Y6781546D01*
X1788668Y6782308D01*
X3248863Y6782308D01*
X3255162Y6783019D01*
X3260648Y6784949D01*
X3265525Y6787997D01*
X3269640Y6792112D01*
X3272688Y6796989D01*
X3274618Y6802475D01*
X3275329Y6808774D01*
X3275329Y7031177D01*
X3274618Y7037476D01*
X3272688Y7042962D01*
X3269640Y7047839D01*
X3265525Y7051954D01*
X3260648Y7055002D01*
X3255162Y7056932D01*
X3248863Y7057644D01*
X1726539Y7057644D01*
X1722678Y7058406D01*
X1719376Y7060641D01*
X1670354Y7109663D01*
X1668322Y7112558D01*
X1667408Y7115962D01*
X1666697Y7123988D01*
X1664157Y7133437D01*
X1659991Y7142378D01*
X1654352Y7150404D01*
X1647443Y7157364D01*
X1644853Y7159142D01*
X1641856Y7162393D01*
X1640535Y7166609D01*
X1641093Y7170978D01*
X1643481Y7174687D01*
X1859686Y7390841D01*
X1862175Y7392720D01*
X1878177Y7397750D01*
X1890572Y7403490D01*
X1902053Y7410805D01*
X1912467Y7419594D01*
X1921611Y7429753D01*
X1929333Y7440980D01*
X1933295Y7448803D01*
X1935530Y7451750D01*
X1938731Y7453731D01*
X1942338Y7454392D01*
X1994509Y7454392D01*
X1998370Y7453630D01*
X2001672Y7451445D01*
X2011324Y7435240D01*
X2019807Y7424521D01*
X2029612Y7415022D01*
X2040585Y7406944D01*
X2052523Y7400391D01*
X2065274Y7395514D01*
X2078532Y7392314D01*
X2092096Y7390993D01*
X2105710Y7391450D01*
X2119172Y7393686D01*
X2132177Y7397750D01*
X2144572Y7403490D01*
X2156053Y7410805D01*
X2166467Y7419594D01*
X2175611Y7429753D01*
X2183333Y7440980D01*
X2187295Y7448803D01*
X2189530Y7451750D01*
X2192731Y7453731D01*
X2196338Y7454392D01*
X2248509Y7454392D01*
X2252370Y7453630D01*
X2255672Y7451445D01*
X2265324Y7435240D01*
X2273808Y7424521D01*
X2283612Y7415022D01*
X2294585Y7406944D01*
X2306523Y7400391D01*
X2319274Y7395514D01*
X2332532Y7392314D01*
X2346096Y7390993D01*
X2359710Y7391450D01*
X2373172Y7393686D01*
X2386177Y7397750D01*
X2398572Y7403490D01*
X2410053Y7410805D01*
X2420467Y7419594D01*
X2429611Y7429753D01*
X2437333Y7440980D01*
X2443480Y7453122D01*
X2447950Y7466025D01*
X2450693Y7479385D01*
X2451608Y7493000D01*
X2450693Y7506614D01*
X2447950Y7519974D01*
X2443480Y7532878D01*
X2437333Y7545019D01*
X2429611Y7556246D01*
X2420467Y7566406D01*
X2410053Y7575194D01*
X2398572Y7582509D01*
X2386177Y7588250D01*
X2373172Y7592314D01*
X2359710Y7594549D01*
X2346096Y7595006D01*
X2332532Y7593685D01*
X2319274Y7590485D01*
X2306523Y7585608D01*
X2294585Y7579055D01*
X2283612Y7570978D01*
X2273808Y7561478D01*
X2265324Y7550759D01*
X2255672Y7534554D01*
X2252370Y7532370D01*
X2248509Y7531608D01*
X2196338Y7531608D01*
X2192731Y7532268D01*
X2189530Y7534249D01*
X2187295Y7537196D01*
X2183333Y7545019D01*
X2175611Y7556246D01*
X2166467Y7566406D01*
X2156053Y7575194D01*
X2144572Y7582509D01*
X2132177Y7588250D01*
X2119172Y7592314D01*
X2105710Y7594549D01*
X2092096Y7595006D01*
X2078532Y7593685D01*
X2065274Y7590485D01*
X2052523Y7585608D01*
X2040585Y7579055D01*
X2029612Y7570978D01*
X2019807Y7561478D01*
X2011324Y7550759D01*
X2001672Y7534554D01*
X1998370Y7532370D01*
X1994509Y7531608D01*
X1942338Y7531608D01*
X1938731Y7532268D01*
X1935530Y7534249D01*
X1933295Y7537196D01*
X1929333Y7545019D01*
X1921611Y7556246D01*
X1912467Y7566406D01*
X1902053Y7575194D01*
X1890572Y7582509D01*
X1878177Y7588250D01*
X1865172Y7592314D01*
X1851710Y7594549D01*
X1838096Y7595006D01*
X1824532Y7593685D01*
X1811274Y7590485D01*
X1798523Y7585608D01*
X1786585Y7579055D01*
X1775612Y7570978D01*
X1765807Y7561478D01*
X1757324Y7550759D01*
X1750364Y7539024D01*
X1745081Y7526477D01*
X1741474Y7513320D01*
X1739646Y7499807D01*
X1739646Y7486192D01*
X1741474Y7472680D01*
X1745081Y7459522D01*
X1750364Y7446975D01*
X1757324Y7435240D01*
X1765807Y7424521D01*
X1767687Y7422692D01*
X1769973Y7419390D01*
X1770786Y7415479D01*
X1770024Y7411516D01*
X1767789Y7408214D01*
X1420215Y7060641D01*
X1416913Y7058406D01*
X1413052Y7057644D01*
X1057198Y7057644D01*
X1050899Y7056932D01*
X1045413Y7055002D01*
X1040536Y7051954D01*
X1036421Y7047839D01*
X1033373Y7042962D01*
X1031443Y7037476D01*
X1030732Y7031177D01*
X1030732Y6808774D01*
X1031443Y6802475D01*
X1033373Y6796989D01*
X1036421Y6792112D01*
X1040536Y6787997D01*
X1045413Y6784949D01*
X1050899Y6783019D01*
X1057198Y6782308D01*
X1172565Y6782308D01*
X1176426Y6781546D01*
X1179728Y6779310D01*
X1181912Y6776059D01*
X1182725Y6772148D01*
X1182725Y4162501D01*
X1181912Y4158640D01*
X1179728Y4155338D01*
X1022959Y3998569D01*
X1019657Y3996334D01*
X1015746Y3995572D01*
X1011834Y3996385D01*
X1005027Y3999229D01*
X990853Y4003294D01*
X976274Y4005579D01*
X961491Y4005986D01*
X946810Y4004665D01*
X932383Y4001515D01*
X918464Y3996588D01*
X905256Y3989984D01*
X892962Y3981856D01*
X881735Y3972255D01*
X871829Y3961333D01*
X863295Y3949293D01*
X856284Y3936288D01*
X850950Y3922522D01*
X847394Y3908247D01*
X845566Y3893565D01*
X845566Y3878834D01*
X847394Y3864152D01*
X850950Y3849878D01*
X856284Y3836111D01*
X863295Y3823106D01*
X871829Y3811066D01*
X881735Y3800144D01*
X892962Y3790543D01*
X905256Y3782415D01*
X918464Y3775811D01*
X932383Y3770884D01*
X946810Y3767734D01*
X961491Y3766362D01*
X976274Y3766820D01*
X990853Y3769106D01*
X1005027Y3773170D01*
X1018641Y3778910D01*
X1031392Y3786276D01*
X1043178Y3795166D01*
X1053795Y3805428D01*
X1063040Y3816959D01*
X1070813Y3829507D01*
X1076960Y3842918D01*
X1081430Y3856939D01*
X1084173Y3871468D01*
X1085088Y3886200D01*
X1084173Y3900932D01*
X1081430Y3915460D01*
X1076960Y3929481D01*
X1075537Y3932580D01*
X1074623Y3936542D01*
X1075334Y3940606D01*
X1077620Y3944010D01*
X1248257Y4114647D01*
X1253388Y4120896D01*
X1256944Y4127550D01*
X1259128Y4134764D01*
X1259941Y4142790D01*
X1259941Y6772148D01*
X1260703Y6776059D01*
X1262888Y6779310D01*
X1266190Y6781546D01*
X1270101Y6782308D01*
X1691132Y6782308D01*
X1695043Y6781546D01*
X1698294Y6779310D01*
X1700530Y6776059D01*
X1701292Y6772148D01*
X1701292Y6318046D01*
X1700428Y6313982D01*
X1698040Y6310579D01*
X1679956Y6301384D01*
X1667662Y6293256D01*
X1656435Y6283655D01*
X1646529Y6272733D01*
X1637995Y6260693D01*
X1630984Y6247688D01*
X1625650Y6233922D01*
X1622094Y6219647D01*
X1620266Y6204966D01*
X1620266Y6190234D01*
X1622094Y6175552D01*
X1625650Y6161278D01*
X1630984Y6147511D01*
X1637995Y6134506D01*
X1646529Y6122466D01*
X1656435Y6111544D01*
X1667662Y6101943D01*
X1679956Y6093815D01*
X1693164Y6087211D01*
X1707083Y6082284D01*
X1721510Y6079134D01*
X1736191Y6077762D01*
X1750974Y6078220D01*
X1765554Y6080506D01*
X1779727Y6084570D01*
X1786534Y6087414D01*
X1790446Y6088227D01*
X1794357Y6087465D01*
X1797659Y6085230D01*
X1828292Y6054598D01*
X1830527Y6051296D01*
X1831289Y6047384D01*
X1831289Y5562295D01*
X1830324Y5557926D01*
X1827530Y5554421D01*
X1823567Y5552440D01*
X1819097Y5552338D01*
X1815033Y5554218D01*
X1806092Y5560923D01*
X1793341Y5568289D01*
X1779727Y5574030D01*
X1765554Y5578094D01*
X1750974Y5580380D01*
X1736191Y5580786D01*
X1721510Y5579465D01*
X1707083Y5576316D01*
X1693164Y5571388D01*
X1679956Y5564784D01*
X1667662Y5556656D01*
X1656435Y5547055D01*
X1646529Y5536133D01*
X1637995Y5524093D01*
X1630984Y5511088D01*
X1625650Y5497322D01*
X1622094Y5483047D01*
X1620266Y5468366D01*
X1620266Y5453634D01*
X1622094Y5438952D01*
X1625650Y5424678D01*
X1630984Y5410911D01*
X1637995Y5397906D01*
X1646529Y5385866D01*
X1656435Y5374944D01*
X1667662Y5365343D01*
X1679956Y5357215D01*
X1693164Y5350611D01*
X1707083Y5345684D01*
X1721510Y5342534D01*
X1736191Y5341162D01*
X1750974Y5341620D01*
X1765554Y5343906D01*
X1779727Y5347970D01*
X1793341Y5353710D01*
X1806092Y5361076D01*
X1815033Y5367782D01*
X1819097Y5369661D01*
X1823567Y5369560D01*
X1827530Y5367578D01*
X1830324Y5364073D01*
X1831289Y5359704D01*
X1831289Y4762195D01*
X1830324Y4757826D01*
X1827530Y4754321D01*
X1823567Y4752340D01*
X1819097Y4752238D01*
X1815033Y4754118D01*
X1806092Y4760823D01*
X1793341Y4768189D01*
X1779727Y4773930D01*
X1765554Y4777994D01*
X1750974Y4780280D01*
X1736191Y4780686D01*
X1721510Y4779365D01*
X1707083Y4776216D01*
X1693164Y4771288D01*
X1679956Y4764684D01*
X1667662Y4756556D01*
X1656435Y4746955D01*
X1646529Y4736033D01*
X1637995Y4723993D01*
X1630984Y4710988D01*
X1625650Y4697222D01*
X1622094Y4682947D01*
X1620266Y4668266D01*
X1620266Y4653534D01*
X1622094Y4638852D01*
X1625650Y4624578D01*
X1629765Y4613960D01*
X1630476Y4610100D01*
X1629664Y4606340D01*
X1627479Y4603089D01*
X1400251Y4375861D01*
X1395120Y4369612D01*
X1391564Y4362958D01*
X1389380Y4355744D01*
X1388618Y4347718D01*
X1388618Y2375814D01*
X1387652Y2371547D01*
X1385062Y2368092D01*
X1381252Y2366060D01*
X1377340Y2364943D01*
X1361744Y2358440D01*
X1346911Y2350262D01*
X1333144Y2340457D01*
X1320495Y2329180D01*
X1309217Y2316581D01*
X1299413Y2302764D01*
X1291234Y2287981D01*
X1284782Y2272334D01*
X1280109Y2256078D01*
X1277264Y2239416D01*
X1276299Y2222500D01*
X1277264Y2205583D01*
X1280109Y2188921D01*
X1284782Y2172665D01*
X1291234Y2157018D01*
X1299413Y2142236D01*
X1309217Y2128418D01*
X1320495Y2115820D01*
X1333144Y2104542D01*
X1346911Y2094738D01*
X1361744Y2086559D01*
X1377340Y2080056D01*
X1393647Y2075383D01*
X1410309Y2072538D01*
G37*
G36*
X3663492Y2374646D02*
G01*
X3677107Y2374646D01*
X3690620Y2376474D01*
X3703777Y2380081D01*
X3716324Y2385364D01*
X3728059Y2392324D01*
X3738778Y2400808D01*
X3748278Y2410612D01*
X3756355Y2421585D01*
X3762908Y2433523D01*
X3767785Y2446274D01*
X3770985Y2459532D01*
X3772306Y2473096D01*
X3771849Y2486710D01*
X3769614Y2500172D01*
X3765550Y2513177D01*
X3759809Y2525572D01*
X3752494Y2537053D01*
X3743706Y2547467D01*
X3733546Y2556611D01*
X3722319Y2564333D01*
X3710178Y2570480D01*
X3697274Y2574950D01*
X3683914Y2577693D01*
X3670300Y2578608D01*
X3656685Y2577693D01*
X3643325Y2574950D01*
X3630422Y2570480D01*
X3618280Y2564333D01*
X3607054Y2556611D01*
X3596894Y2547467D01*
X3588105Y2537053D01*
X3580790Y2525572D01*
X3575050Y2513177D01*
X3570986Y2500172D01*
X3568750Y2486710D01*
X3568293Y2473096D01*
X3569614Y2459532D01*
X3572814Y2446274D01*
X3577691Y2433523D01*
X3584244Y2421585D01*
X3592322Y2410612D01*
X3601821Y2400808D01*
X3612540Y2392324D01*
X3624275Y2385364D01*
X3636822Y2380081D01*
X3649979Y2376474D01*
G37*
G36*
X5289550Y2829204D02*
G01*
X5289550Y2876550D01*
X5242204Y2876550D01*
X5247944Y2866085D01*
X5256022Y2855112D01*
X5265521Y2845308D01*
X5276240Y2836824D01*
X5287975Y2829864D01*
G37*
G36*
X5378450Y2829204D02*
G01*
X5380024Y2829864D01*
X5391759Y2836824D01*
X5402478Y2845308D01*
X5411978Y2855112D01*
X5420055Y2866085D01*
X5425795Y2876550D01*
X5378450Y2876550D01*
G37*
G36*
X5242356Y2965450D02*
G01*
X5289550Y2965450D01*
X5289550Y3012643D01*
X5281980Y3008833D01*
X5270754Y3001111D01*
X5260594Y2991967D01*
X5251805Y2981553D01*
X5244490Y2970072D01*
G37*
G36*
X5378450Y2965450D02*
G01*
X5425643Y2965450D01*
X5423509Y2970072D01*
X5416194Y2981553D01*
X5407406Y2991967D01*
X5397246Y3001111D01*
X5386019Y3008833D01*
X5378450Y3012643D01*
G37*
G36*
X923391Y3321862D02*
G01*
X938174Y3322320D01*
X952753Y3324606D01*
X966927Y3328670D01*
X980541Y3334410D01*
X993292Y3341776D01*
X1005078Y3350666D01*
X1015695Y3360928D01*
X1024940Y3372459D01*
X1032713Y3385007D01*
X1038860Y3398418D01*
X1043330Y3412439D01*
X1046073Y3426968D01*
X1046987Y3441700D01*
X1046073Y3456432D01*
X1043330Y3470960D01*
X1038860Y3484981D01*
X1032713Y3498392D01*
X1024940Y3510940D01*
X1015695Y3522472D01*
X1005078Y3532733D01*
X993292Y3541623D01*
X980541Y3548989D01*
X966927Y3554729D01*
X952753Y3558794D01*
X938174Y3561079D01*
X923391Y3561486D01*
X908710Y3560165D01*
X894283Y3557015D01*
X880364Y3552088D01*
X867156Y3545484D01*
X854862Y3537356D01*
X843635Y3527755D01*
X833729Y3516833D01*
X825195Y3504793D01*
X818184Y3491788D01*
X812850Y3478022D01*
X809294Y3463747D01*
X807466Y3449065D01*
X807466Y3434334D01*
X809294Y3419652D01*
X812850Y3405378D01*
X818184Y3391611D01*
X825195Y3378606D01*
X833729Y3366566D01*
X843635Y3355644D01*
X854862Y3346043D01*
X867156Y3337915D01*
X880364Y3331311D01*
X894283Y3326384D01*
X908710Y3323234D01*
G37*
G36*
X1685391Y3321862D02*
G01*
X1700174Y3322320D01*
X1714754Y3324606D01*
X1728927Y3328670D01*
X1742541Y3334410D01*
X1755292Y3341776D01*
X1767078Y3350666D01*
X1777695Y3360928D01*
X1786940Y3372459D01*
X1794713Y3385007D01*
X1800860Y3398418D01*
X1805330Y3412439D01*
X1808073Y3426968D01*
X1808988Y3441700D01*
X1808073Y3456432D01*
X1805330Y3470960D01*
X1800860Y3484981D01*
X1794713Y3498392D01*
X1786940Y3510940D01*
X1777695Y3522472D01*
X1767078Y3532733D01*
X1755292Y3541623D01*
X1742541Y3548989D01*
X1728927Y3554729D01*
X1714754Y3558794D01*
X1700174Y3561079D01*
X1685391Y3561486D01*
X1670710Y3560165D01*
X1656283Y3557015D01*
X1642364Y3552088D01*
X1629156Y3545484D01*
X1616862Y3537356D01*
X1605635Y3527755D01*
X1595729Y3516833D01*
X1587195Y3504793D01*
X1580184Y3491788D01*
X1574850Y3478022D01*
X1571294Y3463747D01*
X1569466Y3449065D01*
X1569466Y3434334D01*
X1571294Y3419652D01*
X1574850Y3405378D01*
X1580184Y3391611D01*
X1587195Y3378606D01*
X1595729Y3366566D01*
X1605635Y3355644D01*
X1616862Y3346043D01*
X1629156Y3337915D01*
X1642364Y3331311D01*
X1656283Y3326384D01*
X1670710Y3323234D01*
G37*
G36*
X3714750Y3400704D02*
G01*
X3716324Y3401364D01*
X3728059Y3408324D01*
X3738778Y3416808D01*
X3748278Y3426612D01*
X3756355Y3437585D01*
X3762095Y3448050D01*
X3714750Y3448050D01*
G37*
G36*
X3625850Y3400704D02*
G01*
X3625850Y3448050D01*
X3578504Y3448050D01*
X3584244Y3437585D01*
X3592322Y3426612D01*
X3601821Y3416808D01*
X3612540Y3408324D01*
X3624275Y3401364D01*
G37*
G36*
X3578656Y3536950D02*
G01*
X3625850Y3536950D01*
X3625850Y3584143D01*
X3618280Y3580333D01*
X3607054Y3572611D01*
X3596894Y3563467D01*
X3588105Y3553053D01*
X3580790Y3541572D01*
G37*
G36*
X3714750Y3536950D02*
G01*
X3761943Y3536950D01*
X3759809Y3541572D01*
X3752494Y3553053D01*
X3743706Y3563467D01*
X3733546Y3572611D01*
X3722319Y3580333D01*
X3714750Y3584143D01*
G37*
G36*
X4035196Y3800856D02*
G01*
X4048810Y3801313D01*
X4062272Y3803599D01*
X4075277Y3807612D01*
X4087672Y3813352D01*
X4099153Y3820718D01*
X4109567Y3829507D01*
X4118711Y3839616D01*
X4126433Y3850843D01*
X4132579Y3863035D01*
X4137050Y3875938D01*
X4139793Y3889298D01*
X4140708Y3902862D01*
X4139793Y3916476D01*
X4137050Y3929837D01*
X4132579Y3942740D01*
X4126433Y3954932D01*
X4118711Y3966159D01*
X4109567Y3976268D01*
X4099153Y3985056D01*
X4087672Y3992422D01*
X4075277Y3998163D01*
X4062272Y4002176D01*
X4048810Y4004462D01*
X4035196Y4004919D01*
X4021632Y4003548D01*
X4008374Y4000398D01*
X3995623Y3995470D01*
X3983685Y3988917D01*
X3972712Y3980840D01*
X3962908Y3971340D01*
X3954424Y3960672D01*
X3947464Y3948937D01*
X3942181Y3936390D01*
X3938574Y3923233D01*
X3936746Y3909720D01*
X3936746Y3896055D01*
X3938574Y3882542D01*
X3942181Y3869385D01*
X3947464Y3856837D01*
X3954424Y3845102D01*
X3962908Y3834434D01*
X3972712Y3824935D01*
X3983685Y3816858D01*
X3995623Y3810304D01*
X4008374Y3805377D01*
X4021632Y3802227D01*
G37*
G36*
X2841396Y3838956D02*
G01*
X2855010Y3839413D01*
X2868472Y3841699D01*
X2881477Y3845712D01*
X2893872Y3851452D01*
X2905353Y3858818D01*
X2915767Y3867607D01*
X2924911Y3877716D01*
X2932633Y3888943D01*
X2938780Y3901135D01*
X2943250Y3914038D01*
X2945993Y3927398D01*
X2946908Y3940962D01*
X2945993Y3954576D01*
X2943250Y3967937D01*
X2938780Y3980840D01*
X2932633Y3993032D01*
X2924911Y4004259D01*
X2915767Y4014368D01*
X2905353Y4023156D01*
X2893872Y4030522D01*
X2881477Y4036263D01*
X2868472Y4040276D01*
X2855010Y4042562D01*
X2841396Y4043019D01*
X2827832Y4041648D01*
X2814574Y4038498D01*
X2801823Y4033570D01*
X2789885Y4027017D01*
X2778912Y4018940D01*
X2769108Y4009440D01*
X2760624Y3998772D01*
X2753664Y3987037D01*
X2748381Y3974490D01*
X2744774Y3961333D01*
X2742946Y3947820D01*
X2742946Y3934155D01*
X2744774Y3920642D01*
X2748381Y3907485D01*
X2753664Y3894937D01*
X2760624Y3883202D01*
X2769108Y3872534D01*
X2778912Y3863035D01*
X2789885Y3854958D01*
X2801823Y3848404D01*
X2814574Y3843477D01*
X2827832Y3840327D01*
G37*
G36*
X3994150Y4311091D02*
G01*
X3994150Y4358436D01*
X3946804Y4358436D01*
X3947464Y4356862D01*
X3954424Y4345127D01*
X3962908Y4334408D01*
X3972712Y4324908D01*
X3983685Y4316831D01*
G37*
G36*
X4083050Y4311243D02*
G01*
X4087672Y4313377D01*
X4099153Y4320692D01*
X4109567Y4329480D01*
X4118711Y4339640D01*
X4126433Y4350867D01*
X4130243Y4358436D01*
X4083050Y4358436D01*
G37*
G36*
X4781550Y4327956D02*
G01*
X4781550Y4375150D01*
X4734356Y4375150D01*
X4736490Y4370527D01*
X4743805Y4359046D01*
X4752594Y4348632D01*
X4762754Y4339488D01*
X4773980Y4331766D01*
G37*
G36*
X4870450Y4327956D02*
G01*
X4878019Y4331766D01*
X4889246Y4339488D01*
X4899406Y4348632D01*
X4908194Y4359046D01*
X4915509Y4370527D01*
X4917643Y4375150D01*
X4870450Y4375150D01*
G37*
G36*
X2800350Y4349191D02*
G01*
X2800350Y4396536D01*
X2753004Y4396536D01*
X2753664Y4394962D01*
X2760624Y4383227D01*
X2769108Y4372508D01*
X2778912Y4363008D01*
X2789885Y4354931D01*
G37*
G36*
X2889250Y4349343D02*
G01*
X2893872Y4351477D01*
X2905353Y4358792D01*
X2915767Y4367580D01*
X2924911Y4377740D01*
X2932633Y4388967D01*
X2936443Y4396536D01*
X2889250Y4396536D01*
G37*
G36*
X4083050Y4447336D02*
G01*
X4130243Y4447336D01*
X4126433Y4454906D01*
X4118711Y4466132D01*
X4109567Y4476292D01*
X4099153Y4485081D01*
X4087672Y4492396D01*
X4083050Y4494530D01*
G37*
G36*
X3946804Y4447336D02*
G01*
X3994150Y4447336D01*
X3994150Y4494682D01*
X3983685Y4488942D01*
X3972712Y4480864D01*
X3962908Y4471365D01*
X3954424Y4460646D01*
X3947464Y4448911D01*
G37*
G36*
X4870450Y4464050D02*
G01*
X4917795Y4464050D01*
X4912055Y4474514D01*
X4903978Y4485487D01*
X4894478Y4495292D01*
X4883759Y4503775D01*
X4872024Y4510735D01*
X4870450Y4511395D01*
G37*
G36*
X4734204Y4464050D02*
G01*
X4781550Y4464050D01*
X4781550Y4511395D01*
X4779975Y4510735D01*
X4768240Y4503775D01*
X4757521Y4495292D01*
X4748022Y4485487D01*
X4739944Y4474514D01*
G37*
G36*
X2889250Y4485436D02*
G01*
X2936443Y4485436D01*
X2932633Y4493006D01*
X2924911Y4504232D01*
X2915767Y4514392D01*
X2905353Y4523181D01*
X2893872Y4530496D01*
X2889250Y4532630D01*
G37*
G36*
X2753004Y4485436D02*
G01*
X2800350Y4485436D01*
X2800350Y4532782D01*
X2789885Y4527042D01*
X2778912Y4518964D01*
X2769108Y4509465D01*
X2760624Y4498746D01*
X2753664Y4487011D01*
G37*
G36*
X974191Y4541062D02*
G01*
X988974Y4541520D01*
X1003553Y4543806D01*
X1017727Y4547870D01*
X1031341Y4553610D01*
X1044092Y4560976D01*
X1055878Y4569866D01*
X1066495Y4580128D01*
X1075740Y4591659D01*
X1083513Y4604207D01*
X1089660Y4617618D01*
X1094130Y4631639D01*
X1096873Y4646168D01*
X1097788Y4660900D01*
X1096873Y4675632D01*
X1094130Y4690160D01*
X1089660Y4704181D01*
X1083513Y4717592D01*
X1075740Y4730140D01*
X1066495Y4741672D01*
X1055878Y4751933D01*
X1044092Y4760823D01*
X1031341Y4768189D01*
X1017727Y4773930D01*
X1003553Y4777994D01*
X988974Y4780280D01*
X974191Y4780686D01*
X959510Y4779365D01*
X945083Y4776216D01*
X931164Y4771288D01*
X917956Y4764684D01*
X905662Y4756556D01*
X894435Y4746955D01*
X884529Y4736033D01*
X875995Y4723993D01*
X868984Y4710988D01*
X863650Y4697222D01*
X860094Y4682947D01*
X858266Y4668266D01*
X858266Y4653534D01*
X860094Y4638852D01*
X863650Y4624578D01*
X868984Y4610811D01*
X875995Y4597806D01*
X884529Y4585766D01*
X894435Y4574844D01*
X905662Y4565243D01*
X917956Y4557115D01*
X931164Y4550511D01*
X945083Y4545584D01*
X959510Y4542434D01*
G37*
G36*
X974191Y5341162D02*
G01*
X988974Y5341620D01*
X1003553Y5343906D01*
X1017727Y5347970D01*
X1031341Y5353710D01*
X1044092Y5361076D01*
X1055878Y5369966D01*
X1066495Y5380228D01*
X1075740Y5391759D01*
X1083513Y5404307D01*
X1089660Y5417718D01*
X1094130Y5431739D01*
X1096873Y5446268D01*
X1097788Y5461000D01*
X1096873Y5475732D01*
X1094130Y5490260D01*
X1089660Y5504281D01*
X1083513Y5517692D01*
X1075740Y5530240D01*
X1066495Y5541772D01*
X1055878Y5552033D01*
X1044092Y5560923D01*
X1031341Y5568289D01*
X1017727Y5574030D01*
X1003553Y5578094D01*
X988974Y5580380D01*
X974191Y5580786D01*
X959510Y5579465D01*
X945083Y5576316D01*
X931164Y5571388D01*
X917956Y5564784D01*
X905662Y5556656D01*
X894435Y5547055D01*
X884529Y5536133D01*
X875995Y5524093D01*
X868984Y5511088D01*
X863650Y5497322D01*
X860094Y5483047D01*
X858266Y5468366D01*
X858266Y5453634D01*
X860094Y5438952D01*
X863650Y5424678D01*
X868984Y5410911D01*
X875995Y5397906D01*
X884529Y5385866D01*
X894435Y5374944D01*
X905662Y5365343D01*
X917956Y5357215D01*
X931164Y5350611D01*
X945083Y5345684D01*
X959510Y5342534D01*
G37*
G36*
X2549296Y5371693D02*
G01*
X2562910Y5372150D01*
X2576372Y5374386D01*
X2589377Y5378450D01*
X2601772Y5384190D01*
X2613253Y5391505D01*
X2623667Y5400294D01*
X2632811Y5410454D01*
X2640533Y5421680D01*
X2646680Y5433822D01*
X2651150Y5446725D01*
X2653893Y5460085D01*
X2654808Y5473700D01*
X2653893Y5487314D01*
X2651150Y5500674D01*
X2646680Y5513578D01*
X2640533Y5525719D01*
X2632811Y5536946D01*
X2623667Y5547106D01*
X2613253Y5555894D01*
X2601772Y5563209D01*
X2589377Y5568950D01*
X2576372Y5573014D01*
X2562910Y5575249D01*
X2549296Y5575706D01*
X2535732Y5574385D01*
X2522474Y5571185D01*
X2509723Y5566308D01*
X2497785Y5559755D01*
X2486812Y5551678D01*
X2477008Y5542178D01*
X2468524Y5531459D01*
X2461564Y5519724D01*
X2456281Y5507177D01*
X2452674Y5494020D01*
X2450846Y5480507D01*
X2450846Y5466892D01*
X2452674Y5453380D01*
X2456281Y5440222D01*
X2461564Y5427675D01*
X2468524Y5415940D01*
X2477008Y5405221D01*
X2486812Y5395722D01*
X2497785Y5387644D01*
X2509723Y5381091D01*
X2522474Y5376214D01*
X2535732Y5373014D01*
G37*
G36*
X2803296Y5371693D02*
G01*
X2816910Y5372150D01*
X2830372Y5374386D01*
X2843377Y5378450D01*
X2855772Y5384190D01*
X2867253Y5391505D01*
X2877667Y5400294D01*
X2886811Y5410454D01*
X2894533Y5421680D01*
X2900680Y5433822D01*
X2905150Y5446725D01*
X2907893Y5460085D01*
X2908808Y5473700D01*
X2907893Y5487314D01*
X2905150Y5500674D01*
X2900680Y5513578D01*
X2894533Y5525719D01*
X2886811Y5536946D01*
X2877667Y5547106D01*
X2867253Y5555894D01*
X2855772Y5563209D01*
X2843377Y5568950D01*
X2830372Y5573014D01*
X2816910Y5575249D01*
X2803296Y5575706D01*
X2789732Y5574385D01*
X2776474Y5571185D01*
X2763723Y5566308D01*
X2751785Y5559755D01*
X2740812Y5551678D01*
X2731008Y5542178D01*
X2722524Y5531459D01*
X2715564Y5519724D01*
X2710281Y5507177D01*
X2706674Y5494020D01*
X2704846Y5480507D01*
X2704846Y5466892D01*
X2706674Y5453380D01*
X2710281Y5440222D01*
X2715564Y5427675D01*
X2722524Y5415940D01*
X2731008Y5405221D01*
X2740812Y5395722D01*
X2751785Y5387644D01*
X2763723Y5381091D01*
X2776474Y5376214D01*
X2789732Y5373014D01*
G37*
G36*
X3568700Y5372404D02*
G01*
X3582212Y5373319D01*
X3595471Y5376011D01*
X3608222Y5380431D01*
X3620312Y5386578D01*
X3631488Y5394198D01*
X3641496Y5403291D01*
X3650234Y5413603D01*
X3657498Y5425033D01*
X3663238Y5437276D01*
X3667201Y5450230D01*
X3669487Y5463540D01*
X3669944Y5477103D01*
X3668572Y5490565D01*
X3665423Y5503722D01*
X3660597Y5516321D01*
X3654094Y5528208D01*
X3646068Y5539079D01*
X3636619Y5548833D01*
X3626002Y5557215D01*
X3614369Y5564124D01*
X3601923Y5569356D01*
X3588867Y5572963D01*
X3575456Y5574741D01*
X3561943Y5574741D01*
X3548532Y5572963D01*
X3535476Y5569356D01*
X3523030Y5564124D01*
X3511397Y5557215D01*
X3500780Y5548833D01*
X3491331Y5539079D01*
X3483305Y5528208D01*
X3476802Y5516321D01*
X3471976Y5503722D01*
X3468827Y5490565D01*
X3467455Y5477103D01*
X3467912Y5463540D01*
X3470198Y5450230D01*
X3474161Y5437276D01*
X3479901Y5425033D01*
X3487165Y5413603D01*
X3495903Y5403291D01*
X3505911Y5394198D01*
X3517087Y5386578D01*
X3529177Y5380431D01*
X3541928Y5376011D01*
X3555187Y5373319D01*
G37*
G36*
X3568700Y5626404D02*
G01*
X3582212Y5627319D01*
X3595471Y5630011D01*
X3608222Y5634431D01*
X3620312Y5640578D01*
X3631488Y5648198D01*
X3641496Y5657291D01*
X3650234Y5667603D01*
X3657498Y5679033D01*
X3663238Y5691276D01*
X3667201Y5704230D01*
X3669487Y5717540D01*
X3669944Y5731103D01*
X3668572Y5744565D01*
X3665423Y5757722D01*
X3660597Y5770321D01*
X3654094Y5782208D01*
X3646068Y5793079D01*
X3636619Y5802833D01*
X3626002Y5811215D01*
X3614369Y5818124D01*
X3601923Y5823356D01*
X3588867Y5826963D01*
X3575456Y5828741D01*
X3561943Y5828741D01*
X3548532Y5826963D01*
X3535476Y5823356D01*
X3523030Y5818124D01*
X3511397Y5811215D01*
X3500780Y5802833D01*
X3491331Y5793079D01*
X3483305Y5782208D01*
X3476802Y5770321D01*
X3471976Y5757722D01*
X3468827Y5744565D01*
X3467455Y5731103D01*
X3467912Y5717540D01*
X3470198Y5704230D01*
X3474161Y5691276D01*
X3479901Y5679033D01*
X3487165Y5667603D01*
X3495903Y5657291D01*
X3505911Y5648198D01*
X3517087Y5640578D01*
X3529177Y5634431D01*
X3541928Y5630011D01*
X3555187Y5627319D01*
G37*
G36*
X3568700Y5880404D02*
G01*
X3582212Y5881319D01*
X3595471Y5884011D01*
X3608222Y5888431D01*
X3620312Y5894578D01*
X3631488Y5902198D01*
X3641496Y5911291D01*
X3650234Y5921603D01*
X3657498Y5933033D01*
X3663238Y5945276D01*
X3667201Y5958230D01*
X3669487Y5971540D01*
X3669944Y5985103D01*
X3668572Y5998565D01*
X3665423Y6011722D01*
X3660597Y6024321D01*
X3654094Y6036208D01*
X3646068Y6047079D01*
X3636619Y6056833D01*
X3626002Y6065215D01*
X3614369Y6072124D01*
X3601923Y6077356D01*
X3588867Y6080963D01*
X3575456Y6082741D01*
X3561943Y6082741D01*
X3548532Y6080963D01*
X3535476Y6077356D01*
X3523030Y6072124D01*
X3511397Y6065215D01*
X3500780Y6056833D01*
X3491331Y6047079D01*
X3483305Y6036208D01*
X3476802Y6024321D01*
X3471976Y6011722D01*
X3468827Y5998565D01*
X3467455Y5985103D01*
X3467912Y5971540D01*
X3470198Y5958230D01*
X3474161Y5945276D01*
X3479901Y5933033D01*
X3487165Y5921603D01*
X3495903Y5911291D01*
X3505911Y5902198D01*
X3517087Y5894578D01*
X3529177Y5888431D01*
X3541928Y5884011D01*
X3555187Y5881319D01*
G37*
G36*
X974191Y6077762D02*
G01*
X988974Y6078220D01*
X1003553Y6080506D01*
X1017727Y6084570D01*
X1031341Y6090310D01*
X1044092Y6097676D01*
X1055878Y6106566D01*
X1066495Y6116828D01*
X1075740Y6128359D01*
X1083513Y6140907D01*
X1089660Y6154318D01*
X1094130Y6168339D01*
X1096873Y6182868D01*
X1097788Y6197600D01*
X1096873Y6212332D01*
X1094130Y6226860D01*
X1089660Y6240881D01*
X1083513Y6254292D01*
X1075740Y6266840D01*
X1066495Y6278372D01*
X1055878Y6288633D01*
X1044092Y6297523D01*
X1031341Y6304889D01*
X1017727Y6310630D01*
X1003553Y6314694D01*
X988974Y6316980D01*
X974191Y6317386D01*
X959510Y6316065D01*
X945083Y6312916D01*
X931164Y6307988D01*
X917956Y6301384D01*
X905662Y6293256D01*
X894435Y6283655D01*
X884529Y6272733D01*
X875995Y6260693D01*
X868984Y6247688D01*
X863650Y6233922D01*
X860094Y6219647D01*
X858266Y6204966D01*
X858266Y6190234D01*
X860094Y6175552D01*
X863650Y6161278D01*
X868984Y6147511D01*
X875995Y6134506D01*
X884529Y6122466D01*
X894435Y6111544D01*
X905662Y6101943D01*
X917956Y6093815D01*
X931164Y6087211D01*
X945083Y6082284D01*
X959510Y6079134D01*
G37*
G36*
X3568700Y6134404D02*
G01*
X3582212Y6135319D01*
X3595471Y6138011D01*
X3608222Y6142431D01*
X3620312Y6148578D01*
X3631488Y6156198D01*
X3641496Y6165291D01*
X3650234Y6175603D01*
X3657498Y6187033D01*
X3663238Y6199276D01*
X3667201Y6212230D01*
X3669487Y6225540D01*
X3669944Y6239103D01*
X3668572Y6252565D01*
X3665423Y6265722D01*
X3660597Y6278321D01*
X3654094Y6290208D01*
X3646068Y6301079D01*
X3636619Y6310833D01*
X3626002Y6319215D01*
X3614369Y6326124D01*
X3601923Y6331356D01*
X3588867Y6334963D01*
X3575456Y6336741D01*
X3561943Y6336741D01*
X3548532Y6334963D01*
X3535476Y6331356D01*
X3523030Y6326124D01*
X3511397Y6319215D01*
X3500780Y6310833D01*
X3491331Y6301079D01*
X3483305Y6290208D01*
X3476802Y6278321D01*
X3471976Y6265722D01*
X3468827Y6252565D01*
X3467455Y6239103D01*
X3467912Y6225540D01*
X3470198Y6212230D01*
X3474161Y6199276D01*
X3479901Y6187033D01*
X3487165Y6175603D01*
X3495903Y6165291D01*
X3505911Y6156198D01*
X3517087Y6148578D01*
X3529177Y6142431D01*
X3541928Y6138011D01*
X3555187Y6135319D01*
G37*
G36*
X3568700Y6388404D02*
G01*
X3582212Y6389319D01*
X3595471Y6392011D01*
X3608222Y6396431D01*
X3620312Y6402578D01*
X3631488Y6410198D01*
X3641496Y6419291D01*
X3650234Y6429603D01*
X3657498Y6441033D01*
X3663238Y6453276D01*
X3667201Y6466230D01*
X3669487Y6479540D01*
X3669944Y6493103D01*
X3668572Y6506565D01*
X3665423Y6519722D01*
X3660597Y6532321D01*
X3654094Y6544208D01*
X3646068Y6555079D01*
X3636619Y6564833D01*
X3626002Y6573215D01*
X3614369Y6580124D01*
X3601923Y6585356D01*
X3588867Y6588963D01*
X3575456Y6590741D01*
X3561943Y6590741D01*
X3548532Y6588963D01*
X3535476Y6585356D01*
X3523030Y6580124D01*
X3511397Y6573215D01*
X3500780Y6564833D01*
X3491331Y6555079D01*
X3483305Y6544208D01*
X3476802Y6532321D01*
X3471976Y6519722D01*
X3468827Y6506565D01*
X3467455Y6493103D01*
X3467912Y6479540D01*
X3470198Y6466230D01*
X3474161Y6453276D01*
X3479901Y6441033D01*
X3487165Y6429603D01*
X3495903Y6419291D01*
X3505911Y6410198D01*
X3517087Y6402578D01*
X3529177Y6396431D01*
X3541928Y6392011D01*
X3555187Y6389319D01*
G37*
G36*
X3568700Y6642404D02*
G01*
X3582212Y6643319D01*
X3595471Y6646011D01*
X3608222Y6650431D01*
X3620312Y6656578D01*
X3631488Y6664198D01*
X3641496Y6673291D01*
X3650234Y6683603D01*
X3657498Y6695033D01*
X3663238Y6707276D01*
X3667201Y6720230D01*
X3669487Y6733540D01*
X3669944Y6747103D01*
X3668572Y6760565D01*
X3665423Y6773722D01*
X3660597Y6786321D01*
X3654094Y6798208D01*
X3646068Y6809079D01*
X3636619Y6818833D01*
X3626002Y6827215D01*
X3614369Y6834124D01*
X3601923Y6839356D01*
X3588867Y6842963D01*
X3575456Y6844741D01*
X3561943Y6844741D01*
X3548532Y6842963D01*
X3535476Y6839356D01*
X3523030Y6834124D01*
X3511397Y6827215D01*
X3500780Y6818833D01*
X3491331Y6809079D01*
X3483305Y6798208D01*
X3476802Y6786321D01*
X3471976Y6773722D01*
X3468827Y6760565D01*
X3467455Y6747103D01*
X3467912Y6733540D01*
X3470198Y6720230D01*
X3474161Y6707276D01*
X3479901Y6695033D01*
X3487165Y6683603D01*
X3495903Y6673291D01*
X3505911Y6664198D01*
X3517087Y6656578D01*
X3529177Y6650431D01*
X3541928Y6646011D01*
X3555187Y6643319D01*
G37*
G36*
X3568700Y6896404D02*
G01*
X3582212Y6897319D01*
X3595471Y6900011D01*
X3608222Y6904431D01*
X3620312Y6910578D01*
X3631488Y6918198D01*
X3641496Y6927291D01*
X3650234Y6937603D01*
X3657498Y6949033D01*
X3663238Y6961276D01*
X3667201Y6974230D01*
X3669487Y6987540D01*
X3669944Y7001103D01*
X3668572Y7014565D01*
X3665423Y7027722D01*
X3660597Y7040321D01*
X3654094Y7052208D01*
X3646068Y7063079D01*
X3636619Y7072833D01*
X3626002Y7081215D01*
X3614369Y7088124D01*
X3601923Y7093356D01*
X3588867Y7096963D01*
X3575456Y7098741D01*
X3561943Y7098741D01*
X3548532Y7096963D01*
X3535476Y7093356D01*
X3523030Y7088124D01*
X3511397Y7081215D01*
X3500780Y7072833D01*
X3491331Y7063079D01*
X3483305Y7052208D01*
X3476802Y7040321D01*
X3471976Y7027722D01*
X3468827Y7014565D01*
X3467455Y7001103D01*
X3467912Y6987540D01*
X3470198Y6974230D01*
X3474161Y6961276D01*
X3479901Y6949033D01*
X3487165Y6937603D01*
X3495903Y6927291D01*
X3505911Y6918198D01*
X3517087Y6910578D01*
X3529177Y6904431D01*
X3541928Y6900011D01*
X3555187Y6897319D01*
G37*
G36*
X3568700Y7150404D02*
G01*
X3582212Y7151319D01*
X3595471Y7154011D01*
X3608222Y7158431D01*
X3620312Y7164578D01*
X3631488Y7172198D01*
X3641496Y7181291D01*
X3650234Y7191603D01*
X3657498Y7203033D01*
X3663238Y7215276D01*
X3667201Y7228230D01*
X3669487Y7241540D01*
X3669944Y7255103D01*
X3668572Y7268565D01*
X3665423Y7281722D01*
X3660597Y7294321D01*
X3654094Y7306208D01*
X3646068Y7317079D01*
X3636619Y7326833D01*
X3626002Y7335215D01*
X3614369Y7342124D01*
X3601923Y7347356D01*
X3588867Y7350963D01*
X3575456Y7352741D01*
X3561943Y7352741D01*
X3556406Y7352030D01*
X3552139Y7352334D01*
X3548379Y7354417D01*
X3545840Y7357872D01*
X3544925Y7362037D01*
X3545789Y7366253D01*
X3548227Y7371588D01*
X3552799Y7386269D01*
X3554628Y7396327D01*
X3555949Y7399781D01*
X3558387Y7402525D01*
X3561638Y7404201D01*
X3565296Y7404658D01*
X3568700Y7404404D01*
X3582212Y7405319D01*
X3595471Y7408011D01*
X3608222Y7412431D01*
X3620312Y7418578D01*
X3631488Y7426198D01*
X3641496Y7435291D01*
X3650234Y7445603D01*
X3657498Y7457033D01*
X3663238Y7469276D01*
X3667201Y7482230D01*
X3669487Y7495540D01*
X3669944Y7509103D01*
X3668572Y7522565D01*
X3665423Y7535722D01*
X3660597Y7548321D01*
X3654094Y7560208D01*
X3646068Y7571079D01*
X3636619Y7580833D01*
X3626002Y7589215D01*
X3614369Y7596124D01*
X3601923Y7601356D01*
X3588867Y7604963D01*
X3575456Y7606741D01*
X3561943Y7606741D01*
X3548532Y7604963D01*
X3535476Y7601356D01*
X3523030Y7596124D01*
X3511397Y7589215D01*
X3500780Y7580833D01*
X3491331Y7571079D01*
X3483305Y7560208D01*
X3476802Y7548321D01*
X3475736Y7545476D01*
X3473704Y7542225D01*
X3470656Y7539990D01*
X3466998Y7538974D01*
X3463239Y7539431D01*
X3459530Y7540599D01*
X3444392Y7543342D01*
X3429000Y7544308D01*
X3413607Y7543342D01*
X3398469Y7540599D01*
X3383787Y7536027D01*
X3369767Y7529677D01*
X3356559Y7521702D01*
X3344468Y7512202D01*
X3333597Y7501331D01*
X3324098Y7489240D01*
X3316122Y7476032D01*
X3309772Y7462012D01*
X3305200Y7447330D01*
X3302457Y7432192D01*
X3301492Y7416800D01*
X3302457Y7401407D01*
X3305200Y7386269D01*
X3309772Y7371588D01*
X3316122Y7357567D01*
X3324098Y7344359D01*
X3333597Y7332268D01*
X3344468Y7321397D01*
X3356559Y7311898D01*
X3369767Y7303922D01*
X3383787Y7297572D01*
X3398469Y7293000D01*
X3413607Y7290257D01*
X3429000Y7289292D01*
X3444392Y7290257D01*
X3460038Y7293102D01*
X3464051Y7293051D01*
X3467709Y7291425D01*
X3470452Y7288530D01*
X3471875Y7284770D01*
X3471722Y7280757D01*
X3468827Y7268565D01*
X3467455Y7255103D01*
X3467912Y7241540D01*
X3470198Y7228230D01*
X3474161Y7215276D01*
X3479901Y7203033D01*
X3487165Y7191603D01*
X3495903Y7181291D01*
X3505911Y7172198D01*
X3517087Y7164578D01*
X3529177Y7158431D01*
X3541928Y7154011D01*
X3555187Y7151319D01*
G37*
G36*
X1584096Y7390993D02*
G01*
X1597710Y7391450D01*
X1611172Y7393686D01*
X1624177Y7397750D01*
X1636572Y7403490D01*
X1648053Y7410805D01*
X1658467Y7419594D01*
X1667611Y7429753D01*
X1675333Y7440980D01*
X1681480Y7453122D01*
X1685950Y7466025D01*
X1688693Y7479385D01*
X1689607Y7493000D01*
X1688693Y7506614D01*
X1685950Y7519974D01*
X1681480Y7532878D01*
X1675333Y7545019D01*
X1667611Y7556246D01*
X1658467Y7566406D01*
X1648053Y7575194D01*
X1636572Y7582509D01*
X1624177Y7588250D01*
X1611172Y7592314D01*
X1597710Y7594549D01*
X1584096Y7595006D01*
X1570532Y7593685D01*
X1557274Y7590485D01*
X1544523Y7585608D01*
X1532585Y7579055D01*
X1521612Y7570978D01*
X1511808Y7561478D01*
X1503324Y7550759D01*
X1496364Y7539024D01*
X1491081Y7526477D01*
X1487474Y7513320D01*
X1485646Y7499807D01*
X1485646Y7486192D01*
X1487474Y7472680D01*
X1491081Y7459522D01*
X1496364Y7446975D01*
X1503324Y7435240D01*
X1511808Y7424521D01*
X1521612Y7415022D01*
X1532585Y7406944D01*
X1544523Y7400391D01*
X1557274Y7395514D01*
X1570532Y7392314D01*
G37*
G36*
X1330096Y7390993D02*
G01*
X1343710Y7391450D01*
X1357172Y7393686D01*
X1370177Y7397750D01*
X1382572Y7403490D01*
X1394053Y7410805D01*
X1404467Y7419594D01*
X1413611Y7429753D01*
X1421333Y7440980D01*
X1427480Y7453122D01*
X1431950Y7466025D01*
X1434693Y7479385D01*
X1435608Y7493000D01*
X1434693Y7506614D01*
X1431950Y7519974D01*
X1427480Y7532878D01*
X1421333Y7545019D01*
X1413611Y7556246D01*
X1404467Y7566406D01*
X1394053Y7575194D01*
X1382572Y7582509D01*
X1370177Y7588250D01*
X1357172Y7592314D01*
X1343710Y7594549D01*
X1330096Y7595006D01*
X1316532Y7593685D01*
X1303274Y7590485D01*
X1290523Y7585608D01*
X1278585Y7579055D01*
X1267612Y7570978D01*
X1257808Y7561478D01*
X1249324Y7550759D01*
X1242364Y7539024D01*
X1237081Y7526477D01*
X1233474Y7513320D01*
X1231646Y7499807D01*
X1231646Y7486192D01*
X1233474Y7472680D01*
X1237081Y7459522D01*
X1242364Y7446975D01*
X1249324Y7435240D01*
X1257808Y7424521D01*
X1267612Y7415022D01*
X1278585Y7406944D01*
X1290523Y7400391D01*
X1303274Y7395514D01*
X1316532Y7392314D01*
G37*
G36*
X2600096Y7390993D02*
G01*
X2613710Y7391450D01*
X2627172Y7393686D01*
X2640177Y7397750D01*
X2652572Y7403490D01*
X2664053Y7410805D01*
X2674467Y7419594D01*
X2683611Y7429753D01*
X2691333Y7440980D01*
X2697480Y7453122D01*
X2701950Y7466025D01*
X2704693Y7479385D01*
X2705608Y7493000D01*
X2704693Y7506614D01*
X2701950Y7519974D01*
X2697480Y7532878D01*
X2691333Y7545019D01*
X2683611Y7556246D01*
X2674467Y7566406D01*
X2664053Y7575194D01*
X2652572Y7582509D01*
X2640177Y7588250D01*
X2627172Y7592314D01*
X2613710Y7594549D01*
X2600096Y7595006D01*
X2586532Y7593685D01*
X2573274Y7590485D01*
X2560523Y7585608D01*
X2548585Y7579055D01*
X2537612Y7570978D01*
X2527808Y7561478D01*
X2519324Y7550759D01*
X2512364Y7539024D01*
X2507081Y7526477D01*
X2503474Y7513320D01*
X2501646Y7499807D01*
X2501646Y7486192D01*
X2503474Y7472680D01*
X2507081Y7459522D01*
X2512364Y7446975D01*
X2519324Y7435240D01*
X2527808Y7424521D01*
X2537612Y7415022D01*
X2548585Y7406944D01*
X2560523Y7400391D01*
X2573274Y7395514D01*
X2586532Y7392314D01*
G37*
G36*
X2854096Y7390993D02*
G01*
X2867710Y7391450D01*
X2881172Y7393686D01*
X2894177Y7397750D01*
X2906572Y7403490D01*
X2918053Y7410805D01*
X2928467Y7419594D01*
X2937611Y7429753D01*
X2945333Y7440980D01*
X2951480Y7453122D01*
X2955950Y7466025D01*
X2958693Y7479385D01*
X2959608Y7493000D01*
X2958693Y7506614D01*
X2955950Y7519974D01*
X2951480Y7532878D01*
X2945333Y7545019D01*
X2937611Y7556246D01*
X2928467Y7566406D01*
X2918053Y7575194D01*
X2906572Y7582509D01*
X2894177Y7588250D01*
X2881172Y7592314D01*
X2867710Y7594549D01*
X2854096Y7595006D01*
X2840532Y7593685D01*
X2827274Y7590485D01*
X2814523Y7585608D01*
X2802585Y7579055D01*
X2791612Y7570978D01*
X2781808Y7561478D01*
X2773324Y7550759D01*
X2766364Y7539024D01*
X2761081Y7526477D01*
X2757474Y7513320D01*
X2755646Y7499807D01*
X2755646Y7486192D01*
X2757474Y7472680D01*
X2761081Y7459522D01*
X2766364Y7446975D01*
X2773324Y7435240D01*
X2781808Y7424521D01*
X2791612Y7415022D01*
X2802585Y7406944D01*
X2814523Y7400391D01*
X2827274Y7395514D01*
X2840532Y7392314D01*
G37*
G36*
X3108096Y7390993D02*
G01*
X3121710Y7391450D01*
X3135172Y7393686D01*
X3148177Y7397750D01*
X3160572Y7403490D01*
X3172053Y7410805D01*
X3182467Y7419594D01*
X3191611Y7429753D01*
X3199333Y7440980D01*
X3205480Y7453122D01*
X3209950Y7466025D01*
X3212693Y7479385D01*
X3213608Y7493000D01*
X3212693Y7506614D01*
X3209950Y7519974D01*
X3205480Y7532878D01*
X3199333Y7545019D01*
X3191611Y7556246D01*
X3182467Y7566406D01*
X3172053Y7575194D01*
X3160572Y7582509D01*
X3148177Y7588250D01*
X3135172Y7592314D01*
X3121710Y7594549D01*
X3108096Y7595006D01*
X3094532Y7593685D01*
X3081274Y7590485D01*
X3068523Y7585608D01*
X3056585Y7579055D01*
X3045612Y7570978D01*
X3035808Y7561478D01*
X3027324Y7550759D01*
X3020364Y7539024D01*
X3015081Y7526477D01*
X3011474Y7513320D01*
X3009646Y7499807D01*
X3009646Y7486192D01*
X3011474Y7472680D01*
X3015081Y7459522D01*
X3020364Y7446975D01*
X3027324Y7435240D01*
X3035808Y7424521D01*
X3045612Y7415022D01*
X3056585Y7406944D01*
X3068523Y7400391D01*
X3081274Y7395514D01*
X3094532Y7392314D01*
G37*
G36*
X3568700Y7658404D02*
G01*
X3582212Y7659319D01*
X3595471Y7662011D01*
X3608222Y7666431D01*
X3620312Y7672578D01*
X3631488Y7680198D01*
X3641496Y7689291D01*
X3650234Y7699603D01*
X3657498Y7711033D01*
X3663238Y7723276D01*
X3667201Y7736230D01*
X3669487Y7749540D01*
X3669944Y7763103D01*
X3668572Y7776565D01*
X3665423Y7789722D01*
X3660597Y7802321D01*
X3654094Y7814208D01*
X3646068Y7825079D01*
X3636619Y7834833D01*
X3626002Y7843215D01*
X3614369Y7850124D01*
X3601923Y7855356D01*
X3588867Y7858963D01*
X3575456Y7860741D01*
X3561943Y7860741D01*
X3548532Y7858963D01*
X3535476Y7855356D01*
X3523030Y7850124D01*
X3511397Y7843215D01*
X3500780Y7834833D01*
X3491331Y7825079D01*
X3483305Y7814208D01*
X3476802Y7802321D01*
X3471976Y7789722D01*
X3468827Y7776565D01*
X3467455Y7763103D01*
X3467912Y7749540D01*
X3470198Y7736230D01*
X3474161Y7723276D01*
X3479901Y7711033D01*
X3487165Y7699603D01*
X3495903Y7689291D01*
X3505911Y7680198D01*
X3517087Y7672578D01*
X3529177Y7666431D01*
X3541928Y7662011D01*
X3555187Y7659319D01*
G37*
G36*
X3568700Y7912404D02*
G01*
X3582212Y7913319D01*
X3595471Y7916011D01*
X3608222Y7920431D01*
X3620312Y7926578D01*
X3631488Y7934198D01*
X3641496Y7943291D01*
X3650234Y7953603D01*
X3657498Y7965033D01*
X3663238Y7977276D01*
X3667201Y7990230D01*
X3669487Y8003540D01*
X3669944Y8017103D01*
X3668572Y8030565D01*
X3665423Y8043722D01*
X3660597Y8056321D01*
X3654094Y8068208D01*
X3646068Y8079079D01*
X3636619Y8088833D01*
X3626002Y8097215D01*
X3614369Y8104124D01*
X3601923Y8109356D01*
X3588867Y8112963D01*
X3575456Y8114741D01*
X3561943Y8114741D01*
X3548532Y8112963D01*
X3535476Y8109356D01*
X3523030Y8104124D01*
X3511397Y8097215D01*
X3500780Y8088833D01*
X3491331Y8079079D01*
X3483305Y8068208D01*
X3476802Y8056321D01*
X3471976Y8043722D01*
X3468827Y8030565D01*
X3467455Y8017103D01*
X3467912Y8003540D01*
X3470198Y7990230D01*
X3474161Y7977276D01*
X3479901Y7965033D01*
X3487165Y7953603D01*
X3495903Y7943291D01*
X3505911Y7934198D01*
X3517087Y7926578D01*
X3529177Y7920431D01*
X3541928Y7916011D01*
X3555187Y7913319D01*
G37*
G36*
X3568700Y8166404D02*
G01*
X3582212Y8167319D01*
X3595471Y8170011D01*
X3608222Y8174431D01*
X3620312Y8180578D01*
X3631488Y8188198D01*
X3641496Y8197291D01*
X3650234Y8207603D01*
X3657498Y8219033D01*
X3663238Y8231276D01*
X3667201Y8244230D01*
X3669487Y8257540D01*
X3669944Y8271103D01*
X3668572Y8284565D01*
X3665423Y8297722D01*
X3660597Y8310321D01*
X3654094Y8322208D01*
X3646068Y8333079D01*
X3636619Y8342833D01*
X3626002Y8351215D01*
X3614369Y8358124D01*
X3601923Y8363356D01*
X3588867Y8366963D01*
X3575456Y8368741D01*
X3561943Y8368741D01*
X3548532Y8366963D01*
X3535476Y8363356D01*
X3523030Y8358124D01*
X3511397Y8351215D01*
X3500780Y8342833D01*
X3491331Y8333079D01*
X3483305Y8322208D01*
X3476802Y8310321D01*
X3471976Y8297722D01*
X3468827Y8284565D01*
X3467455Y8271103D01*
X3467912Y8257540D01*
X3470198Y8244230D01*
X3474161Y8231276D01*
X3479901Y8219033D01*
X3487165Y8207603D01*
X3495903Y8197291D01*
X3505911Y8188198D01*
X3517087Y8180578D01*
X3529177Y8174431D01*
X3541928Y8170011D01*
X3555187Y8167319D01*
G37*
G36*
X3568700Y8420404D02*
G01*
X3582212Y8421319D01*
X3595471Y8424011D01*
X3608222Y8428431D01*
X3620312Y8434578D01*
X3631488Y8442198D01*
X3641496Y8451291D01*
X3650234Y8461603D01*
X3657498Y8473033D01*
X3663238Y8485276D01*
X3667201Y8498230D01*
X3669487Y8511540D01*
X3669944Y8525103D01*
X3668572Y8538565D01*
X3665423Y8551722D01*
X3660597Y8564321D01*
X3654094Y8576208D01*
X3646068Y8587079D01*
X3636619Y8596833D01*
X3626002Y8605215D01*
X3614369Y8612124D01*
X3601923Y8617356D01*
X3588867Y8620963D01*
X3575456Y8622741D01*
X3561943Y8622741D01*
X3548532Y8620963D01*
X3535476Y8617356D01*
X3523030Y8612124D01*
X3511397Y8605215D01*
X3500780Y8596833D01*
X3491331Y8587079D01*
X3483305Y8576208D01*
X3476802Y8564321D01*
X3471976Y8551722D01*
X3468827Y8538565D01*
X3467455Y8525103D01*
X3467912Y8511540D01*
X3470198Y8498230D01*
X3474161Y8485276D01*
X3479901Y8473033D01*
X3487165Y8461603D01*
X3495903Y8451291D01*
X3505911Y8442198D01*
X3517087Y8434578D01*
X3529177Y8428431D01*
X3541928Y8424011D01*
X3555187Y8421319D01*
G37*
G36*
X5092700Y8420404D02*
G01*
X5106212Y8421319D01*
X5119471Y8424011D01*
X5132222Y8428431D01*
X5144312Y8434578D01*
X5155488Y8442198D01*
X5165496Y8451291D01*
X5174234Y8461603D01*
X5181498Y8473033D01*
X5187238Y8485276D01*
X5191201Y8498230D01*
X5193487Y8511540D01*
X5193944Y8525103D01*
X5192572Y8538565D01*
X5189423Y8551722D01*
X5184597Y8564321D01*
X5178094Y8576208D01*
X5170068Y8587079D01*
X5160619Y8596833D01*
X5150002Y8605215D01*
X5138369Y8612124D01*
X5125923Y8617356D01*
X5112867Y8620963D01*
X5099456Y8622741D01*
X5085943Y8622741D01*
X5072532Y8620963D01*
X5059476Y8617356D01*
X5047030Y8612124D01*
X5035397Y8605215D01*
X5024780Y8596833D01*
X5015331Y8587079D01*
X5007305Y8576208D01*
X5000802Y8564321D01*
X4995976Y8551722D01*
X4992827Y8538565D01*
X4991455Y8525103D01*
X4991912Y8511540D01*
X4994198Y8498230D01*
X4998161Y8485276D01*
X5003901Y8473033D01*
X5011166Y8461603D01*
X5019903Y8451291D01*
X5029911Y8442198D01*
X5041087Y8434578D01*
X5053177Y8428431D01*
X5065928Y8424011D01*
X5079187Y8421319D01*
G37*
G36*
X1465021Y8460282D02*
G01*
X1483055Y8461705D01*
X1500886Y8464956D01*
X1518259Y8469985D01*
X1535023Y8476843D01*
X1550974Y8485327D01*
X1566011Y8495436D01*
X1579880Y8507018D01*
X1592529Y8519972D01*
X1603756Y8534146D01*
X1613458Y8549436D01*
X1621536Y8565642D01*
X1627936Y8582558D01*
X1632559Y8600033D01*
X1635302Y8617915D01*
X1636268Y8636000D01*
X1635302Y8654084D01*
X1632559Y8671966D01*
X1627936Y8689441D01*
X1621536Y8706358D01*
X1613458Y8722563D01*
X1603756Y8737854D01*
X1592529Y8752027D01*
X1579880Y8764981D01*
X1566011Y8776563D01*
X1550974Y8786672D01*
X1535023Y8795156D01*
X1518259Y8802014D01*
X1500886Y8807043D01*
X1483055Y8810294D01*
X1465021Y8811717D01*
X1446936Y8811209D01*
X1429004Y8808923D01*
X1411376Y8804757D01*
X1394307Y8798814D01*
X1377899Y8791143D01*
X1362405Y8781796D01*
X1347927Y8770975D01*
X1334617Y8758682D01*
X1322679Y8745067D01*
X1312214Y8730335D01*
X1303274Y8714587D01*
X1296060Y8697976D01*
X1290523Y8680754D01*
X1286814Y8663025D01*
X1284986Y8645042D01*
X1284986Y8626957D01*
X1286814Y8608974D01*
X1290523Y8591245D01*
X1296060Y8574024D01*
X1303274Y8557412D01*
X1312214Y8541664D01*
X1322679Y8526932D01*
X1334617Y8513318D01*
X1347927Y8501024D01*
X1362405Y8490204D01*
X1377899Y8480856D01*
X1394307Y8473186D01*
X1411376Y8467242D01*
X1429004Y8463076D01*
X1446936Y8460790D01*
G37*
G36*
X2989021Y8460282D02*
G01*
X3007055Y8461705D01*
X3024886Y8464956D01*
X3042259Y8469985D01*
X3059023Y8476843D01*
X3074974Y8485327D01*
X3090011Y8495436D01*
X3103880Y8507018D01*
X3116529Y8519972D01*
X3127756Y8534146D01*
X3137458Y8549436D01*
X3145536Y8565642D01*
X3151936Y8582558D01*
X3156559Y8600033D01*
X3159302Y8617915D01*
X3160268Y8636000D01*
X3159302Y8654084D01*
X3156559Y8671966D01*
X3151936Y8689441D01*
X3145536Y8706358D01*
X3137458Y8722563D01*
X3127756Y8737854D01*
X3116529Y8752027D01*
X3103880Y8764981D01*
X3090011Y8776563D01*
X3074974Y8786672D01*
X3059023Y8795156D01*
X3042259Y8802014D01*
X3024886Y8807043D01*
X3007055Y8810294D01*
X2989021Y8811717D01*
X2970936Y8811209D01*
X2953004Y8808923D01*
X2935376Y8804757D01*
X2918307Y8798814D01*
X2901899Y8791143D01*
X2886405Y8781796D01*
X2871927Y8770975D01*
X2858617Y8758682D01*
X2846679Y8745067D01*
X2836214Y8730335D01*
X2827274Y8714587D01*
X2820060Y8697976D01*
X2814523Y8680754D01*
X2810814Y8663025D01*
X2808986Y8645042D01*
X2808986Y8626957D01*
X2810814Y8608974D01*
X2814523Y8591245D01*
X2820060Y8574024D01*
X2827274Y8557412D01*
X2836214Y8541664D01*
X2846679Y8526932D01*
X2858617Y8513318D01*
X2871927Y8501024D01*
X2886405Y8490204D01*
X2901899Y8480856D01*
X2918307Y8473186D01*
X2935376Y8467242D01*
X2953004Y8463076D01*
X2970936Y8460790D01*
G37*
G36*
X5092700Y8674404D02*
G01*
X5106212Y8675319D01*
X5119471Y8678011D01*
X5132222Y8682431D01*
X5144312Y8688578D01*
X5155488Y8696198D01*
X5165496Y8705291D01*
X5174234Y8715603D01*
X5181498Y8727033D01*
X5187238Y8739276D01*
X5191201Y8752230D01*
X5193487Y8765540D01*
X5193944Y8779103D01*
X5192572Y8792565D01*
X5189423Y8805722D01*
X5184597Y8818321D01*
X5178094Y8830208D01*
X5170068Y8841079D01*
X5160619Y8850833D01*
X5150002Y8859215D01*
X5138369Y8866124D01*
X5125923Y8871356D01*
X5112867Y8874963D01*
X5099456Y8876741D01*
X5085943Y8876741D01*
X5072532Y8874963D01*
X5059476Y8871356D01*
X5047030Y8866124D01*
X5035397Y8859215D01*
X5024780Y8850833D01*
X5015331Y8841079D01*
X5007305Y8830208D01*
X5000802Y8818321D01*
X4995976Y8805722D01*
X4992827Y8792565D01*
X4991455Y8779103D01*
X4991912Y8765540D01*
X4994198Y8752230D01*
X4998161Y8739276D01*
X5003901Y8727033D01*
X5011166Y8715603D01*
X5019903Y8705291D01*
X5029911Y8696198D01*
X5041087Y8688578D01*
X5053177Y8682431D01*
X5065928Y8678011D01*
X5079187Y8675319D01*
G37*
G36*
X3568700Y8674404D02*
G01*
X3582212Y8675319D01*
X3595471Y8678011D01*
X3608222Y8682431D01*
X3620312Y8688578D01*
X3631488Y8696198D01*
X3641496Y8705291D01*
X3650234Y8715603D01*
X3657498Y8727033D01*
X3663238Y8739276D01*
X3667201Y8752230D01*
X3669487Y8765540D01*
X3669944Y8779103D01*
X3668572Y8792565D01*
X3665423Y8805722D01*
X3660597Y8818321D01*
X3654094Y8830208D01*
X3646068Y8841079D01*
X3636619Y8850833D01*
X3626002Y8859215D01*
X3614369Y8866124D01*
X3601923Y8871356D01*
X3588867Y8874963D01*
X3575456Y8876741D01*
X3561943Y8876741D01*
X3548532Y8874963D01*
X3535476Y8871356D01*
X3523030Y8866124D01*
X3511397Y8859215D01*
X3500780Y8850833D01*
X3491331Y8841079D01*
X3483305Y8830208D01*
X3476802Y8818321D01*
X3471976Y8805722D01*
X3468827Y8792565D01*
X3467455Y8779103D01*
X3467912Y8765540D01*
X3470198Y8752230D01*
X3474161Y8739276D01*
X3479901Y8727033D01*
X3487165Y8715603D01*
X3495903Y8705291D01*
X3505911Y8696198D01*
X3517087Y8688578D01*
X3529177Y8682431D01*
X3541928Y8678011D01*
X3555187Y8675319D01*
G37*
G36*
X5092700Y8928404D02*
G01*
X5106212Y8929319D01*
X5119471Y8932011D01*
X5132222Y8936431D01*
X5144312Y8942578D01*
X5155488Y8950198D01*
X5165496Y8959291D01*
X5174234Y8969603D01*
X5181498Y8981033D01*
X5187238Y8993276D01*
X5191201Y9006230D01*
X5193487Y9019540D01*
X5193944Y9033103D01*
X5192572Y9046565D01*
X5189423Y9059722D01*
X5184597Y9072321D01*
X5178094Y9084208D01*
X5170068Y9095079D01*
X5160619Y9104833D01*
X5150002Y9113215D01*
X5138369Y9120124D01*
X5125923Y9125356D01*
X5112867Y9128963D01*
X5099456Y9130741D01*
X5085943Y9130741D01*
X5072532Y9128963D01*
X5059476Y9125356D01*
X5047030Y9120124D01*
X5035397Y9113215D01*
X5024780Y9104833D01*
X5015331Y9095079D01*
X5007305Y9084208D01*
X5000802Y9072321D01*
X4995976Y9059722D01*
X4992827Y9046565D01*
X4991455Y9033103D01*
X4991912Y9019540D01*
X4994198Y9006230D01*
X4998161Y8993276D01*
X5003901Y8981033D01*
X5011166Y8969603D01*
X5019903Y8959291D01*
X5029911Y8950198D01*
X5041087Y8942578D01*
X5053177Y8936431D01*
X5065928Y8932011D01*
X5079187Y8929319D01*
G37*
G36*
X3568700Y8928404D02*
G01*
X3582212Y8929319D01*
X3595471Y8932011D01*
X3608222Y8936431D01*
X3620312Y8942578D01*
X3631488Y8950198D01*
X3641496Y8959291D01*
X3650234Y8969603D01*
X3657498Y8981033D01*
X3663238Y8993276D01*
X3667201Y9006230D01*
X3669487Y9019540D01*
X3669944Y9033103D01*
X3668572Y9046565D01*
X3665423Y9059722D01*
X3660597Y9072321D01*
X3654094Y9084208D01*
X3646068Y9095079D01*
X3636619Y9104833D01*
X3626002Y9113215D01*
X3614369Y9120124D01*
X3601923Y9125356D01*
X3588867Y9128963D01*
X3575456Y9130741D01*
X3561943Y9130741D01*
X3548532Y9128963D01*
X3535476Y9125356D01*
X3523030Y9120124D01*
X3511397Y9113215D01*
X3500780Y9104833D01*
X3491331Y9095079D01*
X3483305Y9084208D01*
X3476802Y9072321D01*
X3471976Y9059722D01*
X3468827Y9046565D01*
X3467455Y9033103D01*
X3467912Y9019540D01*
X3470198Y9006230D01*
X3474161Y8993276D01*
X3479901Y8981033D01*
X3487165Y8969603D01*
X3495903Y8959291D01*
X3505911Y8950198D01*
X3517087Y8942578D01*
X3529177Y8936431D01*
X3541928Y8932011D01*
X3555187Y8929319D01*
G37*
G36*
X5461000Y9003792D02*
G01*
X5476392Y9004757D01*
X5491530Y9007500D01*
X5506212Y9012072D01*
X5520232Y9018422D01*
X5533440Y9026398D01*
X5545531Y9035897D01*
X5556402Y9046768D01*
X5565902Y9058859D01*
X5573877Y9072067D01*
X5580227Y9086088D01*
X5584799Y9100769D01*
X5587542Y9115907D01*
X5588508Y9131300D01*
X5587542Y9146692D01*
X5584799Y9161830D01*
X5580227Y9176512D01*
X5573877Y9190532D01*
X5565902Y9203740D01*
X5556402Y9215831D01*
X5545531Y9226702D01*
X5533440Y9236202D01*
X5520232Y9244177D01*
X5506212Y9250527D01*
X5491530Y9255099D01*
X5476392Y9257842D01*
X5461000Y9258808D01*
X5445607Y9257842D01*
X5430469Y9255099D01*
X5415788Y9250527D01*
X5401767Y9244177D01*
X5388559Y9236202D01*
X5376468Y9226702D01*
X5365597Y9215831D01*
X5356098Y9203740D01*
X5348122Y9190532D01*
X5341772Y9176512D01*
X5337200Y9161830D01*
X5334457Y9146692D01*
X5333492Y9131300D01*
X5334457Y9115907D01*
X5337200Y9100769D01*
X5341772Y9086088D01*
X5348122Y9072067D01*
X5356098Y9058859D01*
X5365597Y9046768D01*
X5376468Y9035897D01*
X5388559Y9026398D01*
X5401767Y9018422D01*
X5415788Y9012072D01*
X5430469Y9007500D01*
X5445607Y9004757D01*
G37*
G36*
X952500Y9003792D02*
G01*
X967892Y9004757D01*
X983030Y9007500D01*
X997712Y9012072D01*
X1011732Y9018422D01*
X1024940Y9026398D01*
X1037031Y9035897D01*
X1047902Y9046768D01*
X1057402Y9058859D01*
X1065377Y9072067D01*
X1071727Y9086088D01*
X1076299Y9100769D01*
X1079042Y9115907D01*
X1080008Y9131300D01*
X1079042Y9146692D01*
X1076299Y9161830D01*
X1071727Y9176512D01*
X1065377Y9190532D01*
X1057402Y9203740D01*
X1047902Y9215831D01*
X1037031Y9226702D01*
X1024940Y9236202D01*
X1011732Y9244177D01*
X997712Y9250527D01*
X983030Y9255099D01*
X967892Y9257842D01*
X952500Y9258808D01*
X937107Y9257842D01*
X921969Y9255099D01*
X907287Y9250527D01*
X893267Y9244177D01*
X880059Y9236202D01*
X867968Y9226702D01*
X857097Y9215831D01*
X847598Y9203740D01*
X839622Y9190532D01*
X833272Y9176512D01*
X828700Y9161830D01*
X825957Y9146692D01*
X824992Y9131300D01*
X825957Y9115907D01*
X828700Y9100769D01*
X833272Y9086088D01*
X839622Y9072067D01*
X847598Y9058859D01*
X857097Y9046768D01*
X867968Y9035897D01*
X880059Y9026398D01*
X893267Y9018422D01*
X907287Y9012072D01*
X921969Y9007500D01*
X937107Y9004757D01*
G37*

%LPD*%
G36*
X4991100Y6016853D02*
G01*
X4987188Y6017615D01*
X4983835Y6019800D01*
X4981600Y6023102D01*
X4980838Y6027013D01*
X4980838Y6190691D01*
X4981549Y6194501D01*
X4982718Y6196279D01*
X4981600Y6197904D01*
X4980838Y6201816D01*
X4980838Y6269583D01*
X4981600Y6273495D01*
X4982819Y6275324D01*
X4981600Y6277102D01*
X4980838Y6281013D01*
X4980838Y6444691D01*
X4981549Y6448501D01*
X4983683Y6451803D01*
X4986934Y6453987D01*
X4990744Y6454851D01*
X4994605Y6454190D01*
X4997907Y6452108D01*
X5000193Y6448958D01*
X5003901Y6441033D01*
X5011166Y6429603D01*
X5019903Y6419291D01*
X5029911Y6410198D01*
X5041087Y6402578D01*
X5053177Y6396431D01*
X5065928Y6392011D01*
X5079187Y6389319D01*
X5092700Y6388404D01*
X5106212Y6389319D01*
X5119471Y6392011D01*
X5132222Y6396431D01*
X5144312Y6402578D01*
X5151069Y6407200D01*
X5155133Y6408826D01*
X5159502Y6408623D01*
X5163362Y6406591D01*
X5166004Y6403086D01*
X5166969Y6398818D01*
X5166969Y6326784D01*
X5165953Y6322364D01*
X5163159Y6318859D01*
X5159095Y6316878D01*
X5154574Y6316878D01*
X5150002Y6319215D01*
X5138369Y6326124D01*
X5136743Y6326784D01*
X5136743Y6279743D01*
X5156809Y6279743D01*
X5160721Y6278981D01*
X5163972Y6276797D01*
X5166207Y6273495D01*
X5166969Y6269583D01*
X5166969Y6201816D01*
X5166207Y6197904D01*
X5163972Y6194602D01*
X5160721Y6192418D01*
X5156809Y6191656D01*
X5136743Y6191656D01*
X5136743Y6144717D01*
X5144312Y6148578D01*
X5151069Y6153200D01*
X5155133Y6154826D01*
X5159502Y6154623D01*
X5163362Y6152591D01*
X5166004Y6149086D01*
X5166969Y6144818D01*
X5166969Y6072784D01*
X5165953Y6068364D01*
X5163159Y6064859D01*
X5159095Y6062878D01*
X5154574Y6062878D01*
X5150002Y6065215D01*
X5138369Y6072124D01*
X5125923Y6077356D01*
X5112867Y6080963D01*
X5099456Y6082741D01*
X5085943Y6082741D01*
X5072532Y6080963D01*
X5059476Y6077356D01*
X5047030Y6072124D01*
X5035397Y6065215D01*
X5024780Y6056833D01*
X5015331Y6047079D01*
X5007305Y6036208D01*
X4998313Y6020003D01*
X4995011Y6017717D01*
G37*

%LPC*%
G36*
X5048656Y6144717D02*
G01*
X5048656Y6191656D01*
X5001717Y6191656D01*
X5003901Y6187033D01*
X5011166Y6175603D01*
X5019903Y6165291D01*
X5029911Y6156198D01*
X5041087Y6148578D01*
G37*
G36*
X5001615Y6279743D02*
G01*
X5048656Y6279743D01*
X5048656Y6326784D01*
X5047030Y6326124D01*
X5035397Y6319215D01*
X5024780Y6310833D01*
X5015331Y6301079D01*
X5007305Y6290208D01*
G37*

%LPD*%
G36*
X4991100Y5762853D02*
G01*
X4987188Y5763615D01*
X4983835Y5765800D01*
X4981600Y5769102D01*
X4980838Y5773013D01*
X4980838Y5936691D01*
X4981549Y5940501D01*
X4983683Y5943803D01*
X4986934Y5945987D01*
X4990744Y5946851D01*
X4994605Y5946190D01*
X4997907Y5944108D01*
X5000193Y5940958D01*
X5003901Y5933033D01*
X5011166Y5921603D01*
X5019903Y5911291D01*
X5029911Y5902198D01*
X5041087Y5894578D01*
X5053177Y5888431D01*
X5065928Y5884011D01*
X5079187Y5881319D01*
X5092700Y5880404D01*
X5106212Y5881319D01*
X5119471Y5884011D01*
X5132222Y5888431D01*
X5144312Y5894578D01*
X5151069Y5899200D01*
X5155133Y5900826D01*
X5159502Y5900623D01*
X5163362Y5898591D01*
X5166004Y5895086D01*
X5166969Y5890818D01*
X5166969Y5818784D01*
X5165953Y5814364D01*
X5163159Y5810859D01*
X5159095Y5808878D01*
X5154574Y5808878D01*
X5150002Y5811215D01*
X5138369Y5818124D01*
X5125923Y5823356D01*
X5112867Y5826963D01*
X5099456Y5828741D01*
X5085943Y5828741D01*
X5072532Y5826963D01*
X5059476Y5823356D01*
X5047030Y5818124D01*
X5035397Y5811215D01*
X5024780Y5802833D01*
X5015331Y5793079D01*
X5007305Y5782208D01*
X4998313Y5766003D01*
X4995011Y5763717D01*
G37*

%LPD*%
D12*
X1205229Y6965950D02*
G01*
X1196086Y6984492D01*
X1177544Y7003034D01*
X1159255Y7012178D01*
X1122171Y7012178D01*
X1103629Y7003034D01*
X1085342Y6984492D01*
X1075944Y6965950D01*
X1066800Y6938263D01*
X1066800Y6892289D01*
X1075944Y6864350D01*
X1085342Y6846062D01*
X1103629Y6827520D01*
X1122171Y6818376D01*
X1159255Y6818376D01*
X1177544Y6827520D01*
X1196086Y6846062D01*
X1205229Y6864350D01*
X1205229Y6892289D01*
X1159255Y6892289D02*
G01*
X1205229Y6892289D01*
X1377187Y6947662D02*
G01*
X1377187Y6818376D01*
X1377187Y6919976D02*
G01*
X1358645Y6938263D01*
X1340104Y6947662D01*
X1312418Y6947662D01*
X1294129Y6938263D01*
X1275587Y6919976D01*
X1266189Y6892289D01*
X1266189Y6873747D01*
X1275587Y6846062D01*
X1294129Y6827520D01*
X1312418Y6818376D01*
X1340104Y6818376D01*
X1358645Y6827520D01*
X1377187Y6846062D01*
X1438147Y7012178D02*
G01*
X1438147Y6818376D01*
X1499107Y7012178D02*
G01*
X1499107Y6818376D01*
X1499107Y6919976D02*
G01*
X1517650Y6938263D01*
X1535937Y6947662D01*
X1563623Y6947662D01*
X1582165Y6938263D01*
X1600707Y6919976D01*
X1609852Y6892289D01*
X1609852Y6873747D01*
X1600707Y6846062D01*
X1582165Y6827520D01*
X1563623Y6818376D01*
X1535937Y6818376D01*
X1517650Y6827520D01*
X1499107Y6846062D01*
X1670812Y6947662D02*
G01*
X1670812Y6818376D01*
X1670812Y6892289D02*
G01*
X1680210Y6919976D01*
X1698497Y6938263D01*
X1717039Y6947662D01*
X1744726Y6947662D01*
X1916429Y6947662D02*
G01*
X1916429Y6818376D01*
X1916429Y6919976D02*
G01*
X1898142Y6938263D01*
X1879600Y6947662D01*
X1851913Y6947662D01*
X1833371Y6938263D01*
X1814829Y6919976D01*
X1805686Y6892289D01*
X1805686Y6873747D01*
X1814829Y6846062D01*
X1833371Y6827520D01*
X1851913Y6818376D01*
X1879600Y6818376D01*
X1898142Y6827520D01*
X1916429Y6846062D01*
X1977390Y7012178D02*
G01*
X1986788Y7003034D01*
X1995931Y7012178D01*
X1986788Y7021576D01*
X1977390Y7012178D01*
X1986788Y6947662D02*
G01*
X1986788Y6818376D01*
X2084577Y7012178D02*
G01*
X2084577Y6855205D01*
X2093975Y6827520D01*
X2112263Y6818376D01*
X2130806Y6818376D01*
X2056891Y6947662D02*
G01*
X2121661Y6947662D01*
X2191765Y7012178D02*
G01*
X2191765Y6818376D01*
X2191765Y6910578D02*
G01*
X2219452Y6938263D01*
X2237993Y6947662D01*
X2265679Y6947662D01*
X2284222Y6938263D01*
X2293365Y6910578D01*
X2293365Y6818376D01*
X2496565Y7012178D02*
G01*
X2496565Y6818376D01*
X2496565Y7012178D02*
G01*
X2570479Y6818376D01*
X2644393Y7012178D02*
G01*
X2570479Y6818376D01*
X2644393Y7012178D02*
G01*
X2644393Y6818376D01*
X2705354Y6892289D02*
G01*
X2816097Y6892289D01*
X2816097Y6910578D01*
X2806954Y6929120D01*
X2797809Y6938263D01*
X2779268Y6947662D01*
X2751581Y6947662D01*
X2733040Y6938263D01*
X2714497Y6919976D01*
X2705354Y6892289D01*
X2705354Y6873747D01*
X2714497Y6846062D01*
X2733040Y6827520D01*
X2751581Y6818376D01*
X2779268Y6818376D01*
X2797809Y6827520D01*
X2816097Y6846062D01*
X2988056Y7012178D02*
G01*
X2988056Y6818376D01*
X2988056Y6919976D02*
G01*
X2969513Y6938263D01*
X2950972Y6947662D01*
X2923286Y6947662D01*
X2904743Y6938263D01*
X2886456Y6919976D01*
X2877058Y6892289D01*
X2877058Y6873747D01*
X2886456Y6846062D01*
X2904743Y6827520D01*
X2923286Y6818376D01*
X2950972Y6818376D01*
X2969513Y6827520D01*
X2988056Y6846062D01*
X3049015Y7012178D02*
G01*
X3058159Y7003034D01*
X3067304Y7012178D01*
X3058159Y7021576D01*
X3049015Y7012178D01*
X3058159Y6947662D02*
G01*
X3058159Y6818376D01*
X3239261Y6947662D02*
G01*
X3239261Y6818376D01*
X3239261Y6919976D02*
G01*
X3220720Y6938263D01*
X3202177Y6947662D01*
X3174491Y6947662D01*
X3155950Y6938263D01*
X3137661Y6919976D01*
X3128263Y6892289D01*
X3128263Y6873747D01*
X3137661Y6846062D01*
X3155950Y6827520D01*
X3174491Y6818376D01*
X3202177Y6818376D01*
X3220720Y6827520D01*
X3239261Y6846062D01*
D11*
X3556002Y1828802D02*
G01*
X3422652Y1962152D01*
X3422652Y2736852D01*
X3543302Y2857502D01*
D10*
X2349500Y7493000D02*
G01*
X1907207Y7493000D01*
X1221308Y6807100D01*
X1221308Y4142308D01*
X965200Y3886200D01*
X1739902Y6197602D02*
G01*
X1869899Y6067605D01*
X1869899Y4028899D01*
X1727202Y3886202D01*
X1611200Y7114186D02*
G01*
X1739902Y6985485D01*
X1739902Y6197602D01*
X4704184Y2781658D02*
G01*
X4723335Y2762506D01*
X4762324Y2762506D02*
G01*
X4723335Y2762506D01*
X4762324Y2762506D02*
G01*
X4801288Y2762506D01*
X4801288Y2830451D02*
G01*
X4835248Y2830451D01*
X4935654Y2930857D01*
X4935654Y3272741D01*
X5205580Y3542667D01*
X5205580Y8154824D01*
X5092702Y8267702D01*
X4801288Y2762506D02*
G01*
X4801288Y2830451D01*
X3035302Y2857502D02*
G01*
X3178152Y3000352D01*
X3178152Y4474136D01*
X4330702Y5626686D01*
X4330702Y6743702D01*
X5092702Y7505702D01*
X3048002Y1828802D02*
G01*
X3352091Y2132891D01*
X3352091Y4066745D01*
X4942207Y5656861D01*
X4942207Y7101207D01*
X5092702Y7251702D01*
X4801288Y2952498D02*
G01*
X4801288Y3464867D01*
X5119143Y1907390D02*
G01*
X5142588Y1930834D01*
X5142588Y3237588D01*
X5334002Y3429002D01*
X5012413Y1907390D02*
G01*
X5119143Y1907390D01*
X4905707Y2207389D02*
G01*
X4905707Y2455115D01*
X4571291Y2789532D01*
X5012413Y2207389D02*
G01*
X4905707Y2207389D01*
X4571291Y2838681D02*
G01*
X4571291Y2789532D01*
X4571291Y2838681D02*
G01*
X4571291Y2857502D01*
X4571291Y2857502D02*
G01*
X4571291Y3656891D01*
X4826002Y3911602D01*
X5092702Y6235702D02*
G01*
X4989222Y6132222D01*
X4989222Y4582822D01*
X4826002Y4419602D01*
X4193694Y2057377D02*
G01*
X4741166Y2057377D01*
X4064002Y1828802D02*
G01*
X4193694Y1958494D01*
X4193694Y2057377D01*
X4193694Y2057377D02*
G01*
X4193694Y2715110D01*
X4051302Y2857502D01*
X4038602Y4402889D02*
G01*
X4193694Y4247796D01*
X4193694Y2999894D01*
X4051302Y2857502D01*
X1739900Y4660900D02*
G01*
X1427200Y4348200D01*
X1427200Y2222500D01*
D14*
G01*
X4801295Y2952501D03*
G01*
X4571298Y2857505D03*
G01*
X4801295Y2762509D03*
G36*
X5091181Y1873813D02*
G01*
X5091181Y1941012D01*
X4933680Y1941012D01*
X4933680Y1873813D01*
G37*
G36*
X5091181Y2173813D02*
G01*
X5091181Y2241011D01*
X4933680Y2241011D01*
X4933680Y2173813D01*
G37*
G36*
X4648479Y2152383D02*
G01*
X4833899Y2152383D01*
X4838352Y2152276D01*
X4842794Y2151964D01*
X4847219Y2151443D01*
X4851613Y2150717D01*
X4855969Y2149782D01*
X4860274Y2148646D01*
X4864524Y2147310D01*
X4868705Y2145776D01*
X4872809Y2144047D01*
X4876830Y2142129D01*
X4880754Y2140023D01*
X4884577Y2137735D01*
X4888288Y2135271D01*
X4891879Y2132637D01*
X4895341Y2129838D01*
X4898671Y2126876D01*
X4901857Y2123765D01*
X4904894Y2120506D01*
X4907775Y2117110D01*
X4910493Y2113582D01*
X4913043Y2109929D01*
X4915418Y2106162D01*
X4917615Y2102286D01*
X4919629Y2098314D01*
X4921453Y2090384D01*
X5091186Y2090384D01*
X5091186Y2024385D01*
X4921453Y2024385D01*
X4919629Y2016450D01*
X4917615Y2012477D01*
X4915418Y2008601D01*
X4913043Y2004834D01*
X4910493Y2001182D01*
X4907775Y1997654D01*
X4904894Y1994258D01*
X4901857Y1990999D01*
X4898671Y1987887D01*
X4895341Y1984926D01*
X4891879Y1982127D01*
X4888288Y1979493D01*
X4884577Y1977029D01*
X4880754Y1974740D01*
X4876830Y1972635D01*
X4872809Y1970717D01*
X4868705Y1968987D01*
X4864524Y1967453D01*
X4860274Y1966117D01*
X4855969Y1964982D01*
X4851613Y1964047D01*
X4847219Y1963320D01*
X4842794Y1962800D01*
X4838352Y1962487D01*
X4833899Y1962381D01*
X4648479Y1962381D01*
X4644026Y1962487D01*
X4639584Y1962800D01*
X4635159Y1963320D01*
X4630765Y1964047D01*
X4626409Y1964982D01*
X4622104Y1966117D01*
X4617854Y1967453D01*
X4613673Y1968987D01*
X4609569Y1970717D01*
X4605548Y1972635D01*
X4601624Y1974740D01*
X4597801Y1977029D01*
X4594090Y1979493D01*
X4590498Y1982127D01*
X4587036Y1984926D01*
X4583706Y1987887D01*
X4580521Y1990999D01*
X4577483Y1994258D01*
X4574603Y1997654D01*
X4571885Y2001182D01*
X4569335Y2004834D01*
X4566960Y2008601D01*
X4564763Y2012477D01*
X4562749Y2016450D01*
X4560925Y2020514D01*
X4559292Y2024656D01*
X4557857Y2028873D01*
X4556620Y2033153D01*
X4555586Y2037486D01*
X4554755Y2041860D01*
X4554131Y2046272D01*
X4553714Y2050707D01*
X4553506Y2055154D01*
X4553506Y2059609D01*
X4553714Y2064057D01*
X4554131Y2068492D01*
X4554755Y2072904D01*
X4555586Y2077278D01*
X4556620Y2081611D01*
X4557857Y2085891D01*
X4559292Y2090107D01*
X4560925Y2094250D01*
X4562749Y2098314D01*
X4564763Y2102286D01*
X4566960Y2106162D01*
X4569335Y2109929D01*
X4571885Y2113582D01*
X4574603Y2117110D01*
X4577483Y2120506D01*
X4580521Y2123765D01*
X4583706Y2126876D01*
X4587036Y2129838D01*
X4590498Y2132637D01*
X4594090Y2135271D01*
X4597801Y2137735D01*
X4601624Y2140023D01*
X4605548Y2142129D01*
X4609569Y2144047D01*
X4613673Y2145776D01*
X4617854Y2147310D01*
X4622104Y2148646D01*
X4626409Y2149782D01*
X4630765Y2150717D01*
X4635159Y2151443D01*
X4639584Y2151964D01*
X4644026Y2152276D01*
X4648479Y2152383D01*
G37*
D16*
G01*
X1427200Y2222500D03*
G01*
X2027199Y2222500D03*
D17*
G01*
X4826000Y4419600D03*
G01*
X4826000Y3911600D03*
G01*
X5334000Y2921000D03*
G01*
X5334000Y3429000D03*
G01*
X4038600Y4402886D03*
G01*
X4038600Y3902887D03*
G01*
X2844800Y4440986D03*
G01*
X2844800Y3940987D03*
G01*
X2552700Y5473700D03*
G01*
X2806700Y5473700D03*
D18*
G01*
X5092700Y5473700D03*
D19*
G01*
X5092700Y5727700D03*
G01*
X5092700Y5981700D03*
G01*
X5092700Y6235700D03*
G01*
X5092700Y6489700D03*
G01*
X5092700Y6743700D03*
G01*
X5092700Y6997700D03*
G01*
X5092700Y7251700D03*
G01*
X5092700Y7505700D03*
G01*
X5092700Y7759700D03*
G01*
X5092700Y8013700D03*
G01*
X5092700Y8267700D03*
G01*
X3568700Y5473700D03*
G01*
X3568700Y5727700D03*
G01*
X3568700Y5981700D03*
G01*
X3568700Y6235700D03*
G01*
X3568700Y6489700D03*
G01*
X3568700Y6743700D03*
G01*
X3568700Y7251700D03*
G01*
X3568700Y7505700D03*
G01*
X3568700Y8013700D03*
G01*
X3568700Y8267700D03*
G01*
X3568700Y7759700D03*
G01*
X3568700Y6997700D03*
G01*
X5092700Y8521700D03*
G01*
X5092700Y8775700D03*
G01*
X5092700Y9029700D03*
G01*
X3568700Y8521700D03*
G01*
X3568700Y8775700D03*
G01*
X3568700Y9029700D03*
D20*
G01*
X977900Y5461000D03*
G01*
X1739900Y5461000D03*
G01*
X977900Y6197600D03*
G01*
X1739900Y6197600D03*
G01*
X977900Y4660900D03*
G01*
X1739900Y4660900D03*
G01*
X965200Y3886200D03*
G01*
X1727200Y3886200D03*
G01*
X927100Y3441700D03*
G01*
X1689100Y3441700D03*
D17*
G01*
X3670300Y2476500D03*
G01*
X3670300Y2984500D03*
G01*
X3670300Y3492500D03*
G01*
X3048000Y1828800D03*
G01*
X3556000Y1828800D03*
G01*
X4064000Y1828800D03*
G01*
X1333500Y7493000D03*
G01*
X1587500Y7493000D03*
G01*
X1841500Y7493000D03*
G01*
X2095500Y7493000D03*
G01*
X2349500Y7493000D03*
G01*
X2603500Y7493000D03*
G01*
X2857500Y7493000D03*
G01*
X3111500Y7493000D03*
D13*
G01*
X4801288Y3464867D03*
G01*
X4704184Y2781658D03*
G01*
X1611200Y7114186D03*
M02*
