G04 Layer: TopSilkscreenLayer*
G04 EasyEDA v6.5.5, 2022-07-12 11:33:07*
G04 f1e15a90033e4b75946299fcb03ef411,10*
G04 Gerber Generator version 0.2*
G04 Scale: 100 percent, Rotated: No, Reflected: No *
G04 Dimensions in millimeters *
G04 leading zeros omitted , absolute positions ,4 integer and 5 decimal *
%FSLAX45Y45*%
%MOMM*%

%ADD10C,0.2540*%
%ADD12C,0.2032*%
%ADD21C,0.1270*%
%ADD22C,0.1524*%
%ADD23C,0.1422*%

%LPD*%
D22*
X1706600Y2972815D02*
G01*
X1706600Y2863850D01*
X1706600Y2972815D02*
G01*
X1753336Y2972815D01*
X1768830Y2967736D01*
X1774164Y2962402D01*
X1779244Y2951987D01*
X1779244Y2941573D01*
X1774164Y2931160D01*
X1768830Y2926079D01*
X1753336Y2921000D01*
X1706600Y2921000D02*
G01*
X1753336Y2921000D01*
X1768830Y2915665D01*
X1774164Y2910586D01*
X1779244Y2900171D01*
X1779244Y2884423D01*
X1774164Y2874010D01*
X1768830Y2868929D01*
X1753336Y2863850D01*
X1706600Y2863850D01*
X1813534Y2972815D02*
G01*
X1813534Y2894837D01*
X1818868Y2879344D01*
X1829282Y2868929D01*
X1844776Y2863850D01*
X1855190Y2863850D01*
X1870684Y2868929D01*
X1881098Y2879344D01*
X1886432Y2894837D01*
X1886432Y2972815D01*
X1993366Y2972815D02*
G01*
X1920722Y2863850D01*
X1920722Y2972815D02*
G01*
X1993366Y2972815D01*
X1920722Y2863850D02*
G01*
X1993366Y2863850D01*
X2100300Y2972815D02*
G01*
X2027656Y2863850D01*
X2027656Y2972815D02*
G01*
X2100300Y2972815D01*
X2027656Y2863850D02*
G01*
X2100300Y2863850D01*
X2134590Y2972815D02*
G01*
X2134590Y2863850D01*
X2134590Y2972815D02*
G01*
X2202154Y2972815D01*
X2134590Y2921000D02*
G01*
X2176246Y2921000D01*
X2134590Y2863850D02*
G01*
X2202154Y2863850D01*
X2236444Y2972815D02*
G01*
X2236444Y2863850D01*
X2236444Y2972815D02*
G01*
X2283180Y2972815D01*
X2298928Y2967736D01*
X2304008Y2962402D01*
X2309342Y2951987D01*
X2309342Y2941573D01*
X2304008Y2931160D01*
X2298928Y2926079D01*
X2283180Y2921000D01*
X2236444Y2921000D01*
X2273020Y2921000D02*
G01*
X2309342Y2863850D01*
X2343632Y2951987D02*
G01*
X2354046Y2957321D01*
X2369540Y2972815D01*
X2369540Y2863850D01*
X5055108Y4087621D02*
G01*
X5065522Y4092955D01*
X5075936Y4103370D01*
X5081015Y4113529D01*
X5081015Y4134357D01*
X5075936Y4144771D01*
X5065522Y4155186D01*
X5055108Y4160520D01*
X5039359Y4165600D01*
X5013452Y4165600D01*
X4997958Y4160520D01*
X4987543Y4155186D01*
X4977129Y4144771D01*
X4972050Y4134357D01*
X4972050Y4113529D01*
X4977129Y4103370D01*
X4987543Y4092955D01*
X4997958Y4087621D01*
X5060188Y4053331D02*
G01*
X5065522Y4042918D01*
X5081015Y4027423D01*
X4972050Y4027423D01*
D12*
X4866893Y4569205D02*
G01*
X4785106Y4569205D01*
X4826000Y4610100D02*
G01*
X4826000Y4528312D01*
X4826000Y3797300D02*
G01*
X4826000Y3715512D01*
D22*
X5104891Y3252978D02*
G01*
X5094477Y3247644D01*
X5084063Y3237229D01*
X5078984Y3227070D01*
X5078984Y3206242D01*
X5084063Y3195828D01*
X5094477Y3185413D01*
X5104891Y3180079D01*
X5120640Y3175000D01*
X5146547Y3175000D01*
X5162041Y3180079D01*
X5172456Y3185413D01*
X5182870Y3195828D01*
X5187950Y3206242D01*
X5187950Y3227070D01*
X5182870Y3237229D01*
X5172456Y3247644D01*
X5162041Y3252978D01*
X5104891Y3292347D02*
G01*
X5099811Y3292347D01*
X5089397Y3297681D01*
X5084063Y3302762D01*
X5078984Y3313176D01*
X5078984Y3334004D01*
X5084063Y3344418D01*
X5089397Y3349497D01*
X5099811Y3354831D01*
X5110225Y3354831D01*
X5120640Y3349497D01*
X5136134Y3339084D01*
X5187950Y3287268D01*
X5187950Y3359912D01*
D12*
X5293106Y2771394D02*
G01*
X5374893Y2771394D01*
X5334000Y2730500D02*
G01*
X5334000Y2812287D01*
X5334000Y3543300D02*
G01*
X5334000Y3625087D01*
D22*
X4038600Y4801615D02*
G01*
X4038600Y4692650D01*
X4111243Y4801615D02*
G01*
X4111243Y4692650D01*
X4038600Y4749800D02*
G01*
X4111243Y4749800D01*
X4145534Y4780787D02*
G01*
X4155947Y4786121D01*
X4171695Y4801615D01*
X4171695Y4692650D01*
X2844800Y4839715D02*
G01*
X2844800Y4730750D01*
X2917443Y4839715D02*
G01*
X2917443Y4730750D01*
X2844800Y4787900D02*
G01*
X2917443Y4787900D01*
X2957068Y4813807D02*
G01*
X2957068Y4818887D01*
X2962147Y4829302D01*
X2967481Y4834636D01*
X2977895Y4839715D01*
X2998470Y4839715D01*
X3008884Y4834636D01*
X3014218Y4829302D01*
X3019297Y4818887D01*
X3019297Y4808473D01*
X3014218Y4798060D01*
X3003804Y4782565D01*
X2951734Y4730750D01*
X3024631Y4730750D01*
X2628900Y5919215D02*
G01*
X2628900Y5810250D01*
X2628900Y5810250D02*
G01*
X2691129Y5810250D01*
X2725420Y5919215D02*
G01*
X2725420Y5810250D01*
X2725420Y5919215D02*
G01*
X2792984Y5919215D01*
X2725420Y5867400D02*
G01*
X2767075Y5867400D01*
X2725420Y5810250D02*
G01*
X2792984Y5810250D01*
X2827274Y5919215D02*
G01*
X2827274Y5810250D01*
X2827274Y5919215D02*
G01*
X2863850Y5919215D01*
X2879343Y5914136D01*
X2889758Y5903721D01*
X2894838Y5893307D01*
X2900172Y5877560D01*
X2900172Y5851652D01*
X2894838Y5836157D01*
X2889758Y5825744D01*
X2879343Y5815329D01*
X2863850Y5810250D01*
X2827274Y5810250D01*
X2934461Y5898387D02*
G01*
X2944875Y5903721D01*
X2960370Y5919215D01*
X2960370Y5810250D01*
X3300984Y7302500D02*
G01*
X3409950Y7302500D01*
X3300984Y7302500D02*
G01*
X3409950Y7344155D01*
X3300984Y7385558D02*
G01*
X3409950Y7344155D01*
X3300984Y7385558D02*
G01*
X3409950Y7385558D01*
X3321811Y7419847D02*
G01*
X3316477Y7430262D01*
X3300984Y7446010D01*
X3409950Y7446010D01*
D23*
X4252975Y8877300D02*
G01*
X4374134Y8877300D01*
X4398263Y8885428D01*
X4414520Y8901429D01*
X4422647Y8925813D01*
X4422647Y8942070D01*
X4414520Y8966200D01*
X4398263Y8982455D01*
X4374134Y8990329D01*
X4252975Y8990329D01*
X4277106Y9156954D02*
G01*
X4260850Y9140697D01*
X4252975Y9116568D01*
X4252975Y9084310D01*
X4260850Y9059926D01*
X4277106Y9043670D01*
X4293361Y9043670D01*
X4309363Y9051797D01*
X4317491Y9059926D01*
X4325620Y9076181D01*
X4341875Y9124695D01*
X4349750Y9140697D01*
X4357877Y9148826D01*
X4374134Y9156954D01*
X4398263Y9156954D01*
X4414520Y9140697D01*
X4422647Y9116568D01*
X4422647Y9084310D01*
X4414520Y9059926D01*
X4398263Y9043670D01*
X4252975Y9210294D02*
G01*
X4422647Y9210294D01*
X4252975Y9210294D02*
G01*
X4252975Y9282937D01*
X4260850Y9307321D01*
X4268977Y9315450D01*
X4285234Y9323324D01*
X4301490Y9323324D01*
X4317491Y9315450D01*
X4325620Y9307321D01*
X4333747Y9282937D01*
X4333747Y9210294D02*
G01*
X4333747Y9282937D01*
X4341875Y9307321D01*
X4349750Y9315450D01*
X4366006Y9323324D01*
X4390390Y9323324D01*
X4406391Y9315450D01*
X4414520Y9307321D01*
X4422647Y9282937D01*
X4422647Y9210294D01*
D12*
X4227322Y5750813D02*
G01*
X4421124Y5676900D01*
X4227322Y5750813D02*
G01*
X4421124Y5824728D01*
X4356608Y5704586D02*
G01*
X4356608Y5797042D01*
X4291838Y5885687D02*
G01*
X4421124Y5885687D01*
X4347209Y5885687D02*
G01*
X4319524Y5894831D01*
X4301236Y5913373D01*
X4291838Y5931915D01*
X4291838Y5959602D01*
X4227322Y6131305D02*
G01*
X4421124Y6131305D01*
X4319524Y6131305D02*
G01*
X4301236Y6112763D01*
X4291838Y6094476D01*
X4291838Y6066789D01*
X4301236Y6048247D01*
X4319524Y6029705D01*
X4347209Y6020562D01*
X4365752Y6020562D01*
X4393438Y6029705D01*
X4411979Y6048247D01*
X4421124Y6066789D01*
X4421124Y6094476D01*
X4411979Y6112763D01*
X4393438Y6131305D01*
X4291838Y6192265D02*
G01*
X4384293Y6192265D01*
X4411979Y6201410D01*
X4421124Y6219952D01*
X4421124Y6247637D01*
X4411979Y6266179D01*
X4384293Y6293865D01*
X4291838Y6293865D02*
G01*
X4421124Y6293865D01*
X4227322Y6354826D02*
G01*
X4236465Y6363970D01*
X4227322Y6373368D01*
X4217924Y6363970D01*
X4227322Y6354826D01*
X4291838Y6363970D02*
G01*
X4421124Y6363970D01*
X4291838Y6434328D02*
G01*
X4421124Y6434328D01*
X4328922Y6434328D02*
G01*
X4301236Y6462013D01*
X4291838Y6480555D01*
X4291838Y6508242D01*
X4301236Y6526529D01*
X4328922Y6535928D01*
X4421124Y6535928D01*
X4291838Y6643115D02*
G01*
X4301236Y6624573D01*
X4319524Y6606031D01*
X4347209Y6596887D01*
X4365752Y6596887D01*
X4393438Y6606031D01*
X4411979Y6624573D01*
X4421124Y6643115D01*
X4421124Y6670802D01*
X4411979Y6689089D01*
X4393438Y6707631D01*
X4365752Y6717029D01*
X4347209Y6717029D01*
X4319524Y6707631D01*
X4301236Y6689089D01*
X4291838Y6670802D01*
X4291838Y6643115D01*
X4227322Y6920229D02*
G01*
X4421124Y6920229D01*
X4227322Y6920229D02*
G01*
X4421124Y7049515D01*
X4227322Y7049515D02*
G01*
X4421124Y7049515D01*
X4291838Y7221220D02*
G01*
X4421124Y7221220D01*
X4319524Y7221220D02*
G01*
X4301236Y7202678D01*
X4291838Y7184389D01*
X4291838Y7156450D01*
X4301236Y7138162D01*
X4319524Y7119620D01*
X4347209Y7110476D01*
X4365752Y7110476D01*
X4393438Y7119620D01*
X4411979Y7138162D01*
X4421124Y7156450D01*
X4421124Y7184389D01*
X4411979Y7202678D01*
X4393438Y7221220D01*
X4291838Y7282179D02*
G01*
X4421124Y7282179D01*
X4328922Y7282179D02*
G01*
X4301236Y7309865D01*
X4291838Y7328408D01*
X4291838Y7356094D01*
X4301236Y7374636D01*
X4328922Y7383779D01*
X4421124Y7383779D01*
X4291838Y7490968D02*
G01*
X4301236Y7472426D01*
X4319524Y7453884D01*
X4347209Y7444739D01*
X4365752Y7444739D01*
X4393438Y7453884D01*
X4411979Y7472426D01*
X4421124Y7490968D01*
X4421124Y7518654D01*
X4411979Y7537195D01*
X4393438Y7555484D01*
X4365752Y7564881D01*
X4347209Y7564881D01*
X4319524Y7555484D01*
X4301236Y7537195D01*
X4291838Y7518654D01*
X4291838Y7490968D01*
X4227322Y7786370D02*
G01*
X4227322Y7887970D01*
X4301236Y7832597D01*
X4301236Y7860284D01*
X4310379Y7878826D01*
X4319524Y7887970D01*
X4347209Y7897368D01*
X4365752Y7897368D01*
X4393438Y7887970D01*
X4411979Y7869681D01*
X4421124Y7841995D01*
X4421124Y7814310D01*
X4411979Y7786370D01*
X4402836Y7777226D01*
X4384293Y7768081D01*
X4375150Y7967471D02*
G01*
X4384293Y7958328D01*
X4393438Y7967471D01*
X4384293Y7976870D01*
X4375150Y7967471D01*
X4227322Y8093202D02*
G01*
X4236465Y8065515D01*
X4264152Y8046973D01*
X4310379Y8037829D01*
X4338065Y8037829D01*
X4384293Y8046973D01*
X4411979Y8065515D01*
X4421124Y8093202D01*
X4421124Y8111489D01*
X4411979Y8139429D01*
X4384293Y8157718D01*
X4338065Y8167115D01*
X4310379Y8167115D01*
X4264152Y8157718D01*
X4236465Y8139429D01*
X4227322Y8111489D01*
X4227322Y8093202D01*
D22*
X4710541Y3157987D02*
G01*
X4700127Y3152907D01*
X4689713Y3142493D01*
X4684379Y3132079D01*
X4679299Y3116331D01*
X4679299Y3090423D01*
X4684379Y3074929D01*
X4689713Y3064515D01*
X4700127Y3054101D01*
X4710541Y3049021D01*
X4731369Y3049021D01*
X4741529Y3054101D01*
X4751943Y3064515D01*
X4757277Y3074929D01*
X4762357Y3090423D01*
X4762357Y3116331D01*
X4757277Y3132079D01*
X4751943Y3142493D01*
X4741529Y3152907D01*
X4731369Y3157987D01*
X4710541Y3157987D01*
X4726035Y3069595D02*
G01*
X4757277Y3038607D01*
X4796647Y3137159D02*
G01*
X4807061Y3142493D01*
X4822809Y3157987D01*
X4822809Y3049021D01*
X1358900Y5703315D02*
G01*
X1358900Y5594350D01*
X1358900Y5703315D02*
G01*
X1405636Y5703315D01*
X1421129Y5698236D01*
X1426463Y5692902D01*
X1431544Y5682487D01*
X1431544Y5672073D01*
X1426463Y5661660D01*
X1421129Y5656579D01*
X1405636Y5651500D01*
X1358900Y5651500D01*
X1395221Y5651500D02*
G01*
X1431544Y5594350D01*
X1465834Y5682487D02*
G01*
X1476247Y5687821D01*
X1491995Y5703315D01*
X1491995Y5594350D01*
X1358900Y6439915D02*
G01*
X1358900Y6330950D01*
X1358900Y6439915D02*
G01*
X1405636Y6439915D01*
X1421129Y6434836D01*
X1426463Y6429502D01*
X1431544Y6419087D01*
X1431544Y6408673D01*
X1426463Y6398260D01*
X1421129Y6393179D01*
X1405636Y6388100D01*
X1358900Y6388100D01*
X1395221Y6388100D02*
G01*
X1431544Y6330950D01*
X1471168Y6414007D02*
G01*
X1471168Y6419087D01*
X1476247Y6429502D01*
X1481581Y6434836D01*
X1491995Y6439915D01*
X1512570Y6439915D01*
X1522984Y6434836D01*
X1528318Y6429502D01*
X1533397Y6419087D01*
X1533397Y6408673D01*
X1528318Y6398260D01*
X1517904Y6382765D01*
X1465834Y6330950D01*
X1538731Y6330950D01*
X1358900Y4903215D02*
G01*
X1358900Y4794250D01*
X1358900Y4903215D02*
G01*
X1405636Y4903215D01*
X1421129Y4898136D01*
X1426463Y4892802D01*
X1431544Y4882387D01*
X1431544Y4871973D01*
X1426463Y4861560D01*
X1421129Y4856479D01*
X1405636Y4851400D01*
X1358900Y4851400D01*
X1395221Y4851400D02*
G01*
X1431544Y4794250D01*
X1476247Y4903215D02*
G01*
X1533397Y4903215D01*
X1502410Y4861560D01*
X1517904Y4861560D01*
X1528318Y4856479D01*
X1533397Y4851400D01*
X1538731Y4835652D01*
X1538731Y4825237D01*
X1533397Y4809744D01*
X1522984Y4799329D01*
X1507489Y4794250D01*
X1491995Y4794250D01*
X1476247Y4799329D01*
X1471168Y4804410D01*
X1465834Y4814823D01*
X1346200Y4128515D02*
G01*
X1346200Y4019550D01*
X1346200Y4128515D02*
G01*
X1392936Y4128515D01*
X1408429Y4123436D01*
X1413763Y4118102D01*
X1418844Y4107687D01*
X1418844Y4097273D01*
X1413763Y4086860D01*
X1408429Y4081779D01*
X1392936Y4076700D01*
X1346200Y4076700D01*
X1382521Y4076700D02*
G01*
X1418844Y4019550D01*
X1505204Y4128515D02*
G01*
X1453134Y4055871D01*
X1531112Y4055871D01*
X1505204Y4128515D02*
G01*
X1505204Y4019550D01*
X1308100Y3684015D02*
G01*
X1308100Y3575050D01*
X1308100Y3684015D02*
G01*
X1354836Y3684015D01*
X1370329Y3678936D01*
X1375663Y3673602D01*
X1380744Y3663187D01*
X1380744Y3652773D01*
X1375663Y3642360D01*
X1370329Y3637279D01*
X1354836Y3632200D01*
X1308100Y3632200D01*
X1344421Y3632200D02*
G01*
X1380744Y3575050D01*
X1477518Y3684015D02*
G01*
X1425447Y3684015D01*
X1420368Y3637279D01*
X1425447Y3642360D01*
X1441195Y3647694D01*
X1456689Y3647694D01*
X1472184Y3642360D01*
X1482597Y3632200D01*
X1487931Y3616452D01*
X1487931Y3606037D01*
X1482597Y3590544D01*
X1472184Y3580129D01*
X1456689Y3575050D01*
X1441195Y3575050D01*
X1425447Y3580129D01*
X1420368Y3585210D01*
X1415034Y3595623D01*
X2910077Y3057144D02*
G01*
X2899663Y3046729D01*
X2894584Y3031236D01*
X2894584Y3010407D01*
X2899663Y2994913D01*
X2910077Y2984500D01*
X2920491Y2984500D01*
X2930906Y2989579D01*
X2936240Y2994913D01*
X2941320Y3005328D01*
X2951734Y3036570D01*
X2956813Y3046729D01*
X2962147Y3052063D01*
X2972561Y3057144D01*
X2988056Y3057144D01*
X2998470Y3046729D01*
X3003550Y3031236D01*
X3003550Y3010407D01*
X2998470Y2994913D01*
X2988056Y2984500D01*
X2894584Y3091434D02*
G01*
X3003550Y3091434D01*
X2894584Y3091434D02*
G01*
X2894584Y3158997D01*
X2946400Y3091434D02*
G01*
X2946400Y3133089D01*
X3003550Y3091434D02*
G01*
X3003550Y3158997D01*
X2894584Y3193287D02*
G01*
X3003550Y3193287D01*
X2894584Y3193287D02*
G01*
X2894584Y3240023D01*
X2899663Y3255771D01*
X2904997Y3260852D01*
X2915411Y3266186D01*
X2925825Y3266186D01*
X2936240Y3260852D01*
X2941320Y3255771D01*
X2946400Y3240023D01*
X2946400Y3193287D01*
X2946400Y3229610D02*
G01*
X3003550Y3266186D01*
X2894584Y3300476D02*
G01*
X3003550Y3341878D01*
X2894584Y3383534D02*
G01*
X3003550Y3341878D01*
X2915411Y3417823D02*
G01*
X2910077Y3428237D01*
X2894584Y3443731D01*
X3003550Y3443731D01*
D12*
X3088386Y2451100D02*
G01*
X3079241Y2469642D01*
X3051556Y2497328D01*
X3245358Y2497328D01*
X3097529Y2942844D02*
G01*
X3088386Y2942844D01*
X3069843Y2952242D01*
X3060700Y2961386D01*
X3051556Y2979928D01*
X3051556Y3016757D01*
X3060700Y3035300D01*
X3069843Y3044444D01*
X3088386Y3053842D01*
X3106927Y3053842D01*
X3125470Y3044444D01*
X3153156Y3026155D01*
X3245358Y2933700D01*
X3245358Y3062986D01*
X3051556Y3434842D02*
G01*
X3051556Y3536442D01*
X3125470Y3481070D01*
X3125470Y3508755D01*
X3134613Y3527044D01*
X3143758Y3536442D01*
X3171443Y3545586D01*
X3189986Y3545586D01*
X3217672Y3536442D01*
X3236213Y3517900D01*
X3245358Y3490213D01*
X3245358Y3462528D01*
X3236213Y3434842D01*
X3227070Y3425444D01*
X3208527Y3416300D01*
D22*
X3628643Y2589021D02*
G01*
X3618229Y2599436D01*
X3602736Y2604515D01*
X3581908Y2604515D01*
X3566413Y2599436D01*
X3556000Y2589021D01*
X3556000Y2578607D01*
X3561079Y2568194D01*
X3566413Y2562860D01*
X3576827Y2557779D01*
X3608070Y2547365D01*
X3618229Y2542286D01*
X3623563Y2536952D01*
X3628643Y2526537D01*
X3628643Y2511044D01*
X3618229Y2500629D01*
X3602736Y2495550D01*
X3581908Y2495550D01*
X3566413Y2500629D01*
X3556000Y2511044D01*
X3662934Y2604515D02*
G01*
X3662934Y2495550D01*
X3662934Y2604515D02*
G01*
X3730497Y2604515D01*
X3662934Y2552700D02*
G01*
X3704590Y2552700D01*
X3662934Y2495550D02*
G01*
X3730497Y2495550D01*
X3764788Y2604515D02*
G01*
X3764788Y2495550D01*
X3764788Y2604515D02*
G01*
X3811524Y2604515D01*
X3827272Y2599436D01*
X3832352Y2594102D01*
X3837686Y2583687D01*
X3837686Y2573273D01*
X3832352Y2562860D01*
X3827272Y2557779D01*
X3811524Y2552700D01*
X3764788Y2552700D01*
X3801109Y2552700D02*
G01*
X3837686Y2495550D01*
X3871975Y2604515D02*
G01*
X3913377Y2495550D01*
X3955034Y2604515D02*
G01*
X3913377Y2495550D01*
X3994404Y2578607D02*
G01*
X3994404Y2583687D01*
X3999738Y2594102D01*
X4004818Y2599436D01*
X4015231Y2604515D01*
X4036059Y2604515D01*
X4046474Y2599436D01*
X4051554Y2594102D01*
X4056888Y2583687D01*
X4056888Y2573273D01*
X4051554Y2562860D01*
X4041140Y2547365D01*
X3989324Y2495550D01*
X4061968Y2495550D01*
D12*
X3022600Y2410713D02*
G01*
X3041141Y2419857D01*
X3068827Y2447544D01*
X3068827Y2253742D01*
X3514343Y2401570D02*
G01*
X3514343Y2410713D01*
X3523741Y2429255D01*
X3532886Y2438400D01*
X3551427Y2447544D01*
X3588258Y2447544D01*
X3606800Y2438400D01*
X3615943Y2429255D01*
X3625341Y2410713D01*
X3625341Y2392171D01*
X3615943Y2373629D01*
X3597656Y2345944D01*
X3505200Y2253742D01*
X3634486Y2253742D01*
X4006341Y2447544D02*
G01*
X4107941Y2447544D01*
X4052570Y2373629D01*
X4080256Y2373629D01*
X4098543Y2364486D01*
X4107941Y2355342D01*
X4117086Y2327655D01*
X4117086Y2309113D01*
X4107941Y2281428D01*
X4089400Y2262886D01*
X4061713Y2253742D01*
X4034027Y2253742D01*
X4006341Y2262886D01*
X3996943Y2272029D01*
X3987800Y2290571D01*
D22*
X4871275Y2436634D02*
G01*
X4860861Y2447048D01*
X4845367Y2452128D01*
X4824539Y2452128D01*
X4809045Y2447048D01*
X4798631Y2436634D01*
X4798631Y2426220D01*
X4803711Y2415806D01*
X4809045Y2410472D01*
X4819459Y2405392D01*
X4850701Y2394978D01*
X4860861Y2389898D01*
X4866195Y2384564D01*
X4871275Y2374150D01*
X4871275Y2358656D01*
X4860861Y2348242D01*
X4845367Y2343162D01*
X4824539Y2343162D01*
X4809045Y2348242D01*
X4798631Y2358656D01*
X4905565Y2452128D02*
G01*
X4905565Y2343162D01*
X4905565Y2452128D02*
G01*
X4973129Y2452128D01*
X4905565Y2400312D02*
G01*
X4947221Y2400312D01*
X4905565Y2343162D02*
G01*
X4973129Y2343162D01*
X5007419Y2452128D02*
G01*
X5007419Y2343162D01*
X5007419Y2452128D02*
G01*
X5054155Y2452128D01*
X5069903Y2447048D01*
X5074983Y2441714D01*
X5080317Y2431300D01*
X5080317Y2420886D01*
X5074983Y2410472D01*
X5069903Y2405392D01*
X5054155Y2400312D01*
X5007419Y2400312D01*
X5043741Y2400312D02*
G01*
X5080317Y2343162D01*
X5114607Y2452128D02*
G01*
X5156009Y2343162D01*
X5197665Y2452128D02*
G01*
X5156009Y2343162D01*
X5263197Y2452128D02*
G01*
X5252783Y2447048D01*
X5242369Y2436634D01*
X5237035Y2426220D01*
X5231955Y2410472D01*
X5231955Y2384564D01*
X5237035Y2369070D01*
X5242369Y2358656D01*
X5252783Y2348242D01*
X5263197Y2343162D01*
X5283771Y2343162D01*
X5294185Y2348242D01*
X5304599Y2358656D01*
X5309933Y2369070D01*
X5315013Y2384564D01*
X5315013Y2410472D01*
X5309933Y2426220D01*
X5304599Y2436634D01*
X5294185Y2447048D01*
X5283771Y2452128D01*
X5263197Y2452128D01*
X5349303Y2452128D02*
G01*
X5349303Y2343162D01*
X5349303Y2452128D02*
G01*
X5396039Y2452128D01*
X5411787Y2447048D01*
X5416867Y2441714D01*
X5422201Y2431300D01*
X5422201Y2420886D01*
X5416867Y2410472D01*
X5411787Y2405392D01*
X5396039Y2400312D01*
X5349303Y2400312D01*
X5385625Y2400312D02*
G01*
X5422201Y2343162D01*
X5456491Y2452128D02*
G01*
X5456491Y2343162D01*
X5456491Y2452128D02*
G01*
X5523801Y2452128D01*
X5456491Y2400312D02*
G01*
X5497893Y2400312D01*
X5456491Y2343162D02*
G01*
X5523801Y2343162D01*
X5636069Y2426220D02*
G01*
X5630989Y2436634D01*
X5620575Y2447048D01*
X5610161Y2452128D01*
X5589333Y2452128D01*
X5578919Y2447048D01*
X5568505Y2436634D01*
X5563425Y2426220D01*
X5558091Y2410472D01*
X5558091Y2384564D01*
X5563425Y2369070D01*
X5568505Y2358656D01*
X5578919Y2348242D01*
X5589333Y2343162D01*
X5610161Y2343162D01*
X5620575Y2348242D01*
X5630989Y2358656D01*
X5636069Y2369070D01*
X5636069Y2384564D01*
X5610161Y2384564D02*
G01*
X5636069Y2384564D01*
X2300477Y9004808D02*
G01*
X2295143Y9015221D01*
X2284729Y9025636D01*
X2274570Y9030715D01*
X2253741Y9030715D01*
X2243327Y9025636D01*
X2232913Y9015221D01*
X2227579Y9004808D01*
X2222500Y8989060D01*
X2222500Y8963152D01*
X2227579Y8947658D01*
X2232913Y8937244D01*
X2243327Y8926829D01*
X2253741Y8921750D01*
X2274570Y8921750D01*
X2284729Y8926829D01*
X2295143Y8937244D01*
X2300477Y8947658D01*
X2300477Y8963152D01*
X2274570Y8963152D02*
G01*
X2300477Y8963152D01*
X2334768Y9009887D02*
G01*
X2345181Y9015221D01*
X2360675Y9030715D01*
X2360675Y8921750D01*
D12*
X1420113Y7845044D02*
G01*
X1414271Y7856728D01*
X1402842Y7868158D01*
X1391157Y7874000D01*
X1368044Y7874000D01*
X1356613Y7868158D01*
X1344929Y7856728D01*
X1339342Y7845044D01*
X1333500Y7827771D01*
X1333500Y7798815D01*
X1339342Y7781544D01*
X1344929Y7770113D01*
X1356613Y7758429D01*
X1368044Y7752587D01*
X1391157Y7752587D01*
X1402842Y7758429D01*
X1414271Y7770113D01*
X1420113Y7781544D01*
X1420113Y7798815D01*
X1391157Y7798815D02*
G01*
X1420113Y7798815D01*
X1458213Y7874000D02*
G01*
X1504442Y7816087D01*
X1504442Y7752587D01*
X1550670Y7874000D02*
G01*
X1504442Y7816087D01*
X1588770Y7804658D02*
G01*
X1692655Y7804658D01*
X1799844Y7874000D02*
G01*
X1742186Y7874000D01*
X1736344Y7821929D01*
X1742186Y7827771D01*
X1759457Y7833613D01*
X1776729Y7833613D01*
X1794255Y7827771D01*
X1805686Y7816087D01*
X1811528Y7798815D01*
X1811528Y7787386D01*
X1805686Y7770113D01*
X1794255Y7758429D01*
X1776729Y7752587D01*
X1759457Y7752587D01*
X1742186Y7758429D01*
X1736344Y7764271D01*
X1730755Y7775702D01*
X1855470Y7845044D02*
G01*
X1855470Y7850886D01*
X1861057Y7862315D01*
X1866900Y7868158D01*
X1878329Y7874000D01*
X1901444Y7874000D01*
X1913128Y7868158D01*
X1918970Y7862315D01*
X1924557Y7850886D01*
X1924557Y7839202D01*
X1918970Y7827771D01*
X1907286Y7810500D01*
X1849628Y7752587D01*
X1930400Y7752587D01*
X1968500Y7850886D02*
G01*
X1979929Y7856728D01*
X1997456Y7874000D01*
X1997456Y7752587D01*
X2124456Y7874000D02*
G01*
X2124456Y7752587D01*
X2124456Y7874000D02*
G01*
X2170429Y7752587D01*
X2216658Y7874000D02*
G01*
X2170429Y7752587D01*
X2216658Y7874000D02*
G01*
X2216658Y7752587D01*
X2254758Y7874000D02*
G01*
X2254758Y7752587D01*
X2254758Y7874000D02*
G01*
X2306827Y7874000D01*
X2324100Y7868158D01*
X2329941Y7862315D01*
X2335529Y7850886D01*
X2335529Y7833613D01*
X2329941Y7821929D01*
X2324100Y7816087D01*
X2306827Y7810500D01*
X2254758Y7810500D01*
X2373629Y7874000D02*
G01*
X2373629Y7787386D01*
X2379472Y7770113D01*
X2391156Y7758429D01*
X2408427Y7752587D01*
X2419858Y7752587D01*
X2437129Y7758429D01*
X2448813Y7770113D01*
X2454656Y7787386D01*
X2454656Y7874000D01*
X2561843Y7856728D02*
G01*
X2556256Y7868158D01*
X2538729Y7874000D01*
X2527300Y7874000D01*
X2510027Y7868158D01*
X2498343Y7850886D01*
X2492756Y7821929D01*
X2492756Y7793228D01*
X2498343Y7770113D01*
X2510027Y7758429D01*
X2527300Y7752587D01*
X2533141Y7752587D01*
X2550413Y7758429D01*
X2561843Y7770113D01*
X2567686Y7787386D01*
X2567686Y7793228D01*
X2561843Y7810500D01*
X2550413Y7821929D01*
X2533141Y7827771D01*
X2527300Y7827771D01*
X2510027Y7821929D01*
X2498343Y7810500D01*
X2492756Y7793228D01*
X2640329Y7874000D02*
G01*
X2623058Y7868158D01*
X2611627Y7850886D01*
X2605786Y7821929D01*
X2605786Y7804658D01*
X2611627Y7775702D01*
X2623058Y7758429D01*
X2640329Y7752587D01*
X2652013Y7752587D01*
X2669286Y7758429D01*
X2680970Y7775702D01*
X2686558Y7804658D01*
X2686558Y7821929D01*
X2680970Y7850886D01*
X2669286Y7868158D01*
X2652013Y7874000D01*
X2640329Y7874000D01*
X2794000Y7874000D02*
G01*
X2736341Y7874000D01*
X2730500Y7821929D01*
X2736341Y7827771D01*
X2753613Y7833613D01*
X2770886Y7833613D01*
X2788158Y7827771D01*
X2799841Y7816087D01*
X2805429Y7798815D01*
X2805429Y7787386D01*
X2799841Y7770113D01*
X2788158Y7758429D01*
X2770886Y7752587D01*
X2753613Y7752587D01*
X2736341Y7758429D01*
X2730500Y7764271D01*
X2724658Y7775702D01*
X2878327Y7874000D02*
G01*
X2861056Y7868158D01*
X2849372Y7850886D01*
X2843529Y7821929D01*
X2843529Y7804658D01*
X2849372Y7775702D01*
X2861056Y7758429D01*
X2878327Y7752587D01*
X2889758Y7752587D01*
X2907029Y7758429D01*
X2918713Y7775702D01*
X2924556Y7804658D01*
X2924556Y7821929D01*
X2918713Y7850886D01*
X2907029Y7868158D01*
X2889758Y7874000D01*
X2878327Y7874000D01*
G36*
X3543300Y3619500D02*
G01*
X3289300Y3365500D01*
X3543300Y3365500D01*
G37*
G36*
X3543300Y3111500D02*
G01*
X3289300Y2857500D01*
X3543300Y2857500D01*
G37*
G36*
X3543300Y2603500D02*
G01*
X3289300Y2349500D01*
X3543300Y2349500D01*
G37*
G36*
X3937000Y2209800D02*
G01*
X3937000Y1955800D01*
X4191000Y1955800D01*
G37*
G36*
X3429000Y2209800D02*
G01*
X3429000Y1955800D01*
X3683000Y1955800D01*
G37*
G36*
X2921000Y2209800D02*
G01*
X2921000Y1955800D01*
X3175000Y1955800D01*
G37*
D10*
X1270000Y2463800D02*
G01*
X1562100Y2463800D01*
X1836110Y2512931D02*
G01*
X2128210Y2512931D01*
X1981200Y2362200D02*
G01*
X1981200Y2654300D01*
X4724400Y4660900D02*
G01*
X4724400Y3657600D01*
X4724400Y4660900D02*
G01*
X4927600Y4660900D01*
X4927600Y3657600D01*
X4724400Y3657600D01*
X5435600Y2679700D02*
G01*
X5435600Y3683000D01*
X5435600Y2679700D02*
G01*
X5232400Y2679700D01*
X5232400Y3683000D01*
X5435600Y3683000D01*
X3663594Y4652898D02*
G01*
X3663594Y3652901D01*
X4413605Y3652901D01*
X4413605Y4652898D01*
X3663594Y4652898D01*
X2469794Y4690998D02*
G01*
X2469794Y3691001D01*
X3219805Y3691001D01*
X3219805Y4690998D01*
X2469794Y4690998D01*
X2908300Y5651500D02*
G01*
X2908300Y5286235D01*
D21*
X5219700Y8331200D02*
G01*
X5156200Y8394700D01*
X5219700Y8458200D01*
X5219700Y8585200D01*
X5156200Y8648700D01*
X5219700Y8712200D01*
X5219700Y8839200D01*
X5156200Y8902700D01*
X5219700Y8966200D01*
X5219700Y9093200D01*
X5156200Y9156700D01*
X5029200Y9156700D01*
X4965700Y9093200D01*
X4965700Y8966200D01*
X5029200Y8902700D01*
X4965700Y8839200D01*
X4965700Y8712200D01*
X5029200Y8648700D01*
X4965700Y8585200D01*
X4965700Y8458200D01*
X5029200Y8394700D01*
X4965700Y8331200D01*
X4965700Y8204200D01*
X5029200Y8140700D01*
X4965700Y8077200D01*
X4965700Y7950200D01*
X5029200Y7886700D01*
X4965700Y7823200D01*
X4965700Y7696200D01*
X5029200Y7632700D01*
X4965700Y7569200D01*
X4965700Y7442200D01*
X5029200Y7378700D01*
X4965700Y7315200D01*
X4965700Y7188200D01*
X5029200Y7124700D01*
X4965700Y7061200D01*
X4965700Y6934200D01*
X5029200Y6870700D01*
X4965700Y6807200D01*
X4965700Y6680200D01*
X5029200Y6616700D01*
X4965700Y6553200D01*
X4965700Y6426200D01*
X5029200Y6362700D01*
X4965700Y6299200D01*
X4965700Y6172200D01*
X5029200Y6108700D01*
X4965700Y6045200D01*
X4965700Y5918200D01*
X5029200Y5854700D01*
X4965700Y5791200D01*
X4965700Y5664200D01*
X5029200Y5600700D01*
X4965700Y5537200D01*
X4965700Y5410200D01*
X5029200Y5346700D01*
X5156200Y5346700D01*
X5219700Y5410200D01*
X5219700Y5537200D02*
G01*
X5156200Y5600700D01*
X5219700Y5664200D01*
X5219700Y5092700D01*
X4648200Y5092700D01*
X4013200Y5092700D01*
X3441700Y5092700D01*
X3441700Y5537200D01*
X3441700Y5664200D01*
X3505200Y5600700D01*
X3441700Y5537200D01*
X5219700Y5791200D02*
G01*
X5156200Y5854700D01*
X5219700Y5918200D01*
X5219700Y5664200D02*
G01*
X5219700Y6045200D01*
X5156200Y6108700D01*
X5219700Y6172200D01*
X5219700Y6299200D02*
G01*
X5156200Y6362700D01*
X5219700Y6426200D01*
X5219700Y6553200D02*
G01*
X5156200Y6616700D01*
X5219700Y6680200D01*
X5219700Y6807200D02*
G01*
X5156200Y6870700D01*
X5219700Y6934200D01*
X5219700Y7061200D02*
G01*
X5156200Y7124700D01*
X5219700Y7188200D01*
X5219700Y7315200D02*
G01*
X5156200Y7378700D01*
X5219700Y7442200D01*
X5219700Y7569200D02*
G01*
X5156200Y7632700D01*
X5219700Y7696200D01*
X5219700Y8458200D01*
X5219700Y7823200D02*
G01*
X5156200Y7886700D01*
X5219700Y7950200D01*
X5219700Y8077200D02*
G01*
X5156200Y8140700D01*
X5219700Y8204200D01*
X3441700Y5410200D02*
G01*
X3505200Y5346700D01*
X3632200Y5346700D01*
X3695700Y5410200D01*
X3695700Y5537200D01*
X3632200Y5600700D01*
X3695700Y5664200D01*
X3695700Y5791200D01*
X3632200Y5854700D01*
X3695700Y5918200D01*
X3695700Y6045200D01*
X3632200Y6108700D01*
X3695700Y6172200D01*
X3695700Y6299200D01*
X3632200Y6362700D01*
X3695700Y6426200D01*
X3695700Y6553200D01*
X3632200Y6616700D01*
X3695700Y6680200D01*
X3695700Y6807200D01*
X3632200Y6870700D01*
X3695700Y6934200D01*
X3695700Y7061200D01*
X3632200Y7124700D01*
X3695700Y7188200D01*
X3695700Y7315200D01*
X3632200Y7378700D01*
X3695700Y7442200D01*
X3695700Y7569200D01*
X3632200Y7632700D01*
X3695700Y7696200D01*
X3695700Y7823200D01*
X3632200Y7886700D01*
X3695700Y7950200D01*
X3695700Y8077200D01*
X3632200Y8140700D01*
X3695700Y8204200D01*
X3695700Y8331200D01*
X3632200Y8394700D01*
X3695700Y8458200D01*
X3695700Y8585200D01*
X3632200Y8648700D01*
X3695700Y8712200D01*
X3695700Y8839200D01*
X3632200Y8902700D01*
X3695700Y8966200D01*
X3695700Y9093200D01*
X3632200Y9156700D01*
X3505200Y9156700D01*
X3441700Y9093200D01*
X3441700Y9410700D01*
X4013200Y9410700D01*
X4013200Y8648700D01*
X4648200Y8648700D01*
X4648200Y9410700D01*
X4648200Y9537700D01*
X4013200Y9537700D01*
X4013200Y9410700D01*
X3441700Y8331200D02*
G01*
X3505200Y8394700D01*
X3441700Y8458200D01*
X3441700Y8585200D01*
X3505200Y8648700D01*
X3441700Y8712200D01*
X3441700Y8839200D01*
X3505200Y8902700D01*
X3441700Y8966200D01*
X3441700Y9093200D01*
X5219700Y6045200D02*
G01*
X5219700Y7696200D01*
X3441700Y8077200D02*
G01*
X3505200Y8140700D01*
X3441700Y8204200D01*
X3441700Y8077200D01*
X3441700Y7950200D01*
X3441700Y7823200D01*
X3441700Y7696200D01*
X3441700Y7569200D01*
X3441700Y7442200D01*
X3441700Y7315200D01*
X3441700Y7188200D01*
X3441700Y7061200D01*
X3441700Y6934200D01*
X3441700Y6807200D01*
X3441700Y6680200D01*
X3441700Y6553200D01*
X3441700Y6426200D01*
X3441700Y6299200D01*
X3441700Y6172200D01*
X3441700Y6045200D01*
X3441700Y5918200D01*
X3441700Y5791200D01*
X3441700Y5664200D01*
X3441700Y7950200D02*
G01*
X3505200Y7886700D01*
X3441700Y7823200D01*
X3441700Y7696200D02*
G01*
X3505200Y7632700D01*
X3441700Y7569200D01*
X3441700Y7442200D02*
G01*
X3505200Y7378700D01*
X3441700Y7315200D01*
X3441700Y7188200D02*
G01*
X3505200Y7124700D01*
X3441700Y7061200D01*
X3441700Y6934200D02*
G01*
X3505200Y6870700D01*
X3441700Y6807200D01*
X3441700Y6680200D02*
G01*
X3505200Y6616700D01*
X3441700Y6553200D01*
X3441700Y6426200D02*
G01*
X3505200Y6362700D01*
X3441700Y6299200D01*
X3441700Y6172200D02*
G01*
X3505200Y6108700D01*
X3441700Y6045200D01*
X3441700Y5918200D02*
G01*
X3505200Y5854700D01*
X3441700Y5791200D01*
X5219700Y8585200D02*
G01*
X5219700Y8712200D01*
X5219700Y8839200D02*
G01*
X5219700Y8966200D01*
X5219700Y9093200D02*
G01*
X5219700Y9410700D01*
X4648200Y9410700D01*
X3441700Y8966200D02*
G01*
X3441700Y8839200D01*
X3441700Y8712200D02*
G01*
X3441700Y8585200D01*
X3441700Y8458200D02*
G01*
X3441700Y8204200D01*
D10*
X4616300Y2921099D02*
G01*
X4616300Y3007499D01*
X4616300Y3007499D02*
G01*
X4716302Y3007499D01*
X4756299Y2826103D02*
G01*
X4756299Y2888896D01*
X4616300Y2707500D02*
G01*
X4616300Y2793900D01*
X4616300Y2707500D02*
G01*
X4716302Y2707500D01*
X1104900Y5537200D02*
G01*
X1612900Y5537200D01*
X1612900Y5537200D02*
G01*
X1612900Y5461000D01*
X1612900Y5461000D02*
G01*
X1612900Y5384800D01*
X1612900Y5384800D02*
G01*
X1104900Y5384800D01*
X1104900Y5384800D02*
G01*
X1104900Y5461000D01*
X1104900Y5461000D02*
G01*
X1104900Y5537200D01*
X1612900Y5461000D02*
G01*
X1638300Y5461000D01*
X1104900Y5461000D02*
G01*
X1079500Y5461000D01*
X1104900Y6273800D02*
G01*
X1612900Y6273800D01*
X1612900Y6273800D02*
G01*
X1612900Y6197600D01*
X1612900Y6197600D02*
G01*
X1612900Y6121400D01*
X1612900Y6121400D02*
G01*
X1104900Y6121400D01*
X1104900Y6121400D02*
G01*
X1104900Y6197600D01*
X1104900Y6197600D02*
G01*
X1104900Y6273800D01*
X1612900Y6197600D02*
G01*
X1638300Y6197600D01*
X1104900Y6197600D02*
G01*
X1079500Y6197600D01*
X1104900Y4737100D02*
G01*
X1612900Y4737100D01*
X1612900Y4737100D02*
G01*
X1612900Y4660900D01*
X1612900Y4660900D02*
G01*
X1612900Y4584700D01*
X1612900Y4584700D02*
G01*
X1104900Y4584700D01*
X1104900Y4584700D02*
G01*
X1104900Y4660900D01*
X1104900Y4660900D02*
G01*
X1104900Y4737100D01*
X1612900Y4660900D02*
G01*
X1638300Y4660900D01*
X1104900Y4660900D02*
G01*
X1079500Y4660900D01*
X1092200Y3962400D02*
G01*
X1600200Y3962400D01*
X1600200Y3962400D02*
G01*
X1600200Y3886200D01*
X1600200Y3886200D02*
G01*
X1600200Y3810000D01*
X1600200Y3810000D02*
G01*
X1092200Y3810000D01*
X1092200Y3810000D02*
G01*
X1092200Y3886200D01*
X1092200Y3886200D02*
G01*
X1092200Y3962400D01*
X1600200Y3886200D02*
G01*
X1625600Y3886200D01*
X1092200Y3886200D02*
G01*
X1066800Y3886200D01*
X1054100Y3517900D02*
G01*
X1562100Y3517900D01*
X1562100Y3517900D02*
G01*
X1562100Y3441700D01*
X1562100Y3441700D02*
G01*
X1562100Y3365500D01*
X1562100Y3365500D02*
G01*
X1054100Y3365500D01*
X1054100Y3365500D02*
G01*
X1054100Y3441700D01*
X1054100Y3441700D02*
G01*
X1054100Y3517900D01*
X1562100Y3441700D02*
G01*
X1587500Y3441700D01*
X1054100Y3441700D02*
G01*
X1028700Y3441700D01*
X3162300Y2349500D02*
G01*
X3162300Y2222500D01*
X3797300Y2222500D01*
X3797300Y3746500D01*
X3162300Y3746500D01*
X3162300Y3619500D01*
X3162300Y3365500D02*
G01*
X3162300Y3111500D01*
X3162300Y2857500D02*
G01*
X3162300Y2603500D01*
X3289300Y2730500D02*
G01*
X3670300Y2730500D01*
X3289300Y3238500D02*
G01*
X3670300Y3238500D01*
X2921000Y2336800D02*
G01*
X2794000Y2336800D01*
X2794000Y1701800D01*
X4318000Y1701800D01*
X4318000Y2336800D01*
X4191000Y2336800D01*
X3937000Y2336800D02*
G01*
X3683000Y2336800D01*
X3429000Y2336800D02*
G01*
X3175000Y2336800D01*
X3302000Y2209800D02*
G01*
X3302000Y1828800D01*
X3810000Y2209800D02*
G01*
X3810000Y1828800D01*
D22*
X4947048Y2290030D02*
G01*
X4681811Y2290030D01*
X4681811Y2175149D01*
X4947048Y1824794D02*
G01*
X4681811Y1824794D01*
X4681811Y1939676D01*
D10*
X1206500Y7366000D02*
G01*
X1206500Y8890000D01*
X3238500Y8890000D01*
X3238500Y7366000D01*
X1206500Y7366000D01*
X3238500Y7620000D02*
G01*
X1206500Y7620000D01*
G75*
G01*
X2908300Y5651500D02*
G03*
X2904607Y5286235I-228600J-180340D01*
G75*
G01
X2326665Y2222500D02*
G03X2326665Y2222500I-599465J0D01*
M02*
