G04 Layer: BottomSolderMaskLayer*
G04 EasyEDA v6.5.5, 2022-07-12 11:33:07*
G04 f1e15a90033e4b75946299fcb03ef411,10*
G04 Gerber Generator version 0.2*
G04 Scale: 100 percent, Rotated: No, Reflected: No *
G04 Dimensions in millimeters *
G04 leading zeros omitted , absolute positions ,4 integer and 5 decimal *
%FSLAX45Y45*%
%MOMM*%

%ADD24C,2.6000*%
%ADD25C,1.6256*%
%ADD27C,1.7112*%
%ADD29C,1.9812*%

%LPD*%
D24*
G01*
X1427200Y2222500D03*
G01*
X2027199Y2222500D03*
D25*
G01*
X4826000Y4419600D03*
G01*
X4826000Y3911600D03*
G01*
X5334000Y2921000D03*
G01*
X5334000Y3429000D03*
G01*
X4038600Y4402886D03*
G01*
X4038600Y3902887D03*
G01*
X2844800Y4440986D03*
G01*
X2844800Y3940987D03*
G01*
X2552700Y5473700D03*
G01*
X2806700Y5473700D03*
G36*
X5017261Y5388102D02*
G01*
X5017300Y5388140D01*
X5014252Y5388648D01*
X5011204Y5390172D01*
X5009172Y5392204D01*
X5007648Y5395252D01*
X5007140Y5398300D01*
X5007102Y5398262D01*
X5007102Y5549137D01*
X5007140Y5549099D01*
X5007648Y5552147D01*
X5009172Y5555195D01*
X5011204Y5557227D01*
X5014252Y5558751D01*
X5017300Y5559259D01*
X5017261Y5559297D01*
X5168138Y5559297D01*
X5168099Y5559259D01*
X5171147Y5558751D01*
X5174195Y5557227D01*
X5176227Y5555195D01*
X5177751Y5552147D01*
X5178259Y5549099D01*
X5178297Y5549137D01*
X5178297Y5398262D01*
X5178259Y5398300D01*
X5177751Y5395252D01*
X5176227Y5392204D01*
X5174195Y5390172D01*
X5171147Y5388648D01*
X5168099Y5388140D01*
X5168138Y5388102D01*
G37*
D27*
G01*
X5092700Y5727700D03*
G01*
X5092700Y5981700D03*
G01*
X5092700Y6235700D03*
G01*
X5092700Y6489700D03*
G01*
X5092700Y6743700D03*
G01*
X5092700Y6997700D03*
G01*
X5092700Y7251700D03*
G01*
X5092700Y7505700D03*
G01*
X5092700Y7759700D03*
G01*
X5092700Y8013700D03*
G01*
X5092700Y8267700D03*
G01*
X3568700Y5473700D03*
G01*
X3568700Y5727700D03*
G01*
X3568700Y5981700D03*
G01*
X3568700Y6235700D03*
G01*
X3568700Y6489700D03*
G01*
X3568700Y6743700D03*
G01*
X3568700Y7251700D03*
G01*
X3568700Y7505700D03*
G01*
X3568700Y8013700D03*
G01*
X3568700Y8267700D03*
G01*
X3568700Y7759700D03*
G01*
X3568700Y6997700D03*
G01*
X5092700Y8521700D03*
G01*
X5092700Y8775700D03*
G01*
X5092700Y9029700D03*
G01*
X3568700Y8521700D03*
G01*
X3568700Y8775700D03*
G01*
X3568700Y9029700D03*
D29*
G01*
X977900Y5461000D03*
G01*
X1739900Y5461000D03*
G01*
X977900Y6197600D03*
G01*
X1739900Y6197600D03*
G01*
X977900Y4660900D03*
G01*
X1739900Y4660900D03*
G01*
X965200Y3886200D03*
G01*
X1727200Y3886200D03*
G01*
X927100Y3441700D03*
G01*
X1689100Y3441700D03*
D25*
G01*
X3670300Y2476500D03*
G01*
X3670300Y2984500D03*
G01*
X3670300Y3492500D03*
G01*
X3048000Y1828800D03*
G01*
X3556000Y1828800D03*
G01*
X4064000Y1828800D03*
G01*
X1333500Y7493000D03*
G01*
X1587500Y7493000D03*
G01*
X1841500Y7493000D03*
G01*
X2095500Y7493000D03*
G01*
X2349500Y7493000D03*
G01*
X2603500Y7493000D03*
G01*
X2857500Y7493000D03*
G01*
X3111500Y7493000D03*
M02*
